G04*
G04 #@! TF.GenerationSoftware,Altium Limited,Altium Designer,24.0.1 (36)*
G04*
G04 Layer_Physical_Order=1*
G04 Layer_Color=255*
%FSLAX25Y25*%
%MOIN*%
G70*
G04*
G04 #@! TF.SameCoordinates,E65E77B6-1085-46EA-A972-3149D6B0C422*
G04*
G04*
G04 #@! TF.FilePolarity,Positive*
G04*
G01*
G75*
%ADD10C,0.01968*%
%ADD18R,0.13386X0.07087*%
%ADD19R,0.02756X0.03543*%
%ADD20R,0.04724X0.06496*%
%ADD21R,0.03543X0.03150*%
%ADD22R,0.03543X0.02756*%
%ADD23R,0.02165X0.07874*%
%ADD24R,0.02165X0.07874*%
%ADD25R,0.03347X0.03740*%
%ADD26C,0.06496*%
%ADD27C,0.09567*%
%ADD28C,0.05756*%
%ADD29R,0.05756X0.05756*%
%ADD30C,0.07874*%
%ADD31C,0.18779*%
%ADD32C,0.06909*%
%ADD33R,0.06909X0.06909*%
%ADD34C,0.19685*%
%ADD35C,0.13287*%
%ADD36C,0.07650*%
%ADD37C,0.05000*%
%ADD38C,0.01500*%
G36*
X297244Y24044D02*
X295291Y24006D01*
X293491Y28353D01*
X290164Y31680D01*
X285817Y33480D01*
X281112D01*
X276765Y31680D01*
X273438Y28353D01*
X271638Y24006D01*
Y23622D01*
X61039D01*
Y24006D01*
X59239Y28353D01*
X55912Y31680D01*
X51565Y33480D01*
X46860D01*
X42513Y31680D01*
X39186Y28353D01*
X37386Y24006D01*
X35433Y24044D01*
Y192748D01*
X37252Y193501D01*
X68417Y162336D01*
X68690Y162223D01*
X68929Y162049D01*
X69899Y161816D01*
X71253Y161256D01*
X72502Y160490D01*
X73616Y159539D01*
X74567Y158425D01*
X75333Y157176D01*
X75893Y155822D01*
X76126Y154852D01*
X76300Y154613D01*
X76413Y154339D01*
X83880Y146872D01*
X83880Y146872D01*
X93723Y137030D01*
X93723Y137030D01*
X94488Y136713D01*
X94489Y136713D01*
X155512D01*
X155512Y136713D01*
X156277Y137030D01*
X156277Y137030D01*
X160214Y140967D01*
X160531Y141732D01*
X160531Y141732D01*
Y149606D01*
X160531Y149606D01*
X160214Y150372D01*
X160214Y150372D01*
X150372Y160214D01*
X149606Y160531D01*
X149606Y160531D01*
X145161D01*
X144345Y162500D01*
X154309Y172463D01*
X154309Y172463D01*
X154626Y173228D01*
X154626Y173228D01*
Y192913D01*
X154626Y192913D01*
X154309Y193679D01*
X154309Y193679D01*
X144196Y203792D01*
X144949Y205610D01*
X149158D01*
X164272Y190497D01*
X164272Y84646D01*
X164272Y84646D01*
X164589Y83880D01*
X164589Y83880D01*
X176400Y72069D01*
X176400Y72069D01*
X177165Y71752D01*
X177165Y71752D01*
X192913D01*
X192913Y71752D01*
X193679Y72069D01*
X193679Y72069D01*
X203521Y81912D01*
X203521Y81912D01*
X203838Y82677D01*
X203838Y82677D01*
Y190497D01*
X213047Y199705D01*
X248031D01*
X248797Y200022D01*
X248797Y200022D01*
X262547Y213772D01*
X262547Y213772D01*
X262864Y214538D01*
X262864Y214538D01*
Y289748D01*
X266884D01*
X269759Y292623D01*
X271728Y291808D01*
Y132674D01*
X208107Y69053D01*
X77292D01*
X70859Y75486D01*
X70905Y77455D01*
X77060D01*
Y86364D01*
X68150D01*
Y86364D01*
X66350Y86771D01*
X65963Y87149D01*
X65961Y87340D01*
X65878Y87532D01*
Y89207D01*
X63269Y91817D01*
X59578D01*
X56969Y89207D01*
Y85517D01*
X59578Y82907D01*
X61254D01*
X61446Y82825D01*
X61874Y82821D01*
X62247Y82799D01*
X62584Y82762D01*
X62886Y82710D01*
X63152Y82646D01*
X63383Y82571D01*
X63578Y82488D01*
X63669Y82438D01*
X64537Y81570D01*
Y73699D01*
X65092Y72360D01*
X74132Y63320D01*
X75471Y62765D01*
X209927D01*
X211266Y63320D01*
X245577Y97631D01*
X276729Y128783D01*
X276729Y128783D01*
X277461Y129515D01*
X278016Y130854D01*
Y311145D01*
X277461Y312485D01*
X264909Y325037D01*
Y332769D01*
X264355Y334108D01*
X260683Y337779D01*
X261223Y339748D01*
X266884D01*
X271276Y344139D01*
Y350349D01*
X266884Y354740D01*
X262864D01*
X262864Y399635D01*
X262864Y399635D01*
X262547Y400401D01*
X262547Y400401D01*
X235017Y427931D01*
X234252Y428248D01*
X234252Y428248D01*
X201787D01*
Y431413D01*
X195063D01*
Y428248D01*
X190764D01*
Y431359D01*
X203521Y444116D01*
X203838Y444882D01*
X203838Y444882D01*
Y498032D01*
X203838Y498032D01*
X203521Y498797D01*
X203521Y498797D01*
X189742Y512576D01*
X188976Y512893D01*
X188976Y512893D01*
X139764D01*
X138998Y512576D01*
X138998Y512576D01*
X131124Y504702D01*
X131124Y504702D01*
X130807Y503937D01*
X130807Y503937D01*
Y499492D01*
X128839Y498676D01*
X128718Y498797D01*
X127953Y499114D01*
X127953Y499114D01*
X114173D01*
X114173Y499114D01*
X113408Y498797D01*
X113408Y498797D01*
X111439Y496828D01*
X111122Y496063D01*
X111122Y496063D01*
Y478795D01*
X101914Y469586D01*
X84646D01*
X84646Y469586D01*
X83880Y469269D01*
X83880Y469269D01*
X76331Y461720D01*
X76233Y461484D01*
X76067Y461289D01*
X75633Y459955D01*
X74968Y458649D01*
X74107Y457464D01*
X73071Y456428D01*
X71886Y455567D01*
X70581Y454902D01*
X69246Y454468D01*
X69052Y454302D01*
X68815Y454205D01*
X66481Y451870D01*
X62992D01*
X62992Y451870D01*
X62227Y451553D01*
X62227Y451553D01*
X54353Y443679D01*
X54036Y442913D01*
X54036Y442913D01*
Y427165D01*
X54353Y426400D01*
X54353Y426400D01*
X56321Y424432D01*
X56802Y424232D01*
X57649Y422296D01*
X56963Y421609D01*
Y417919D01*
X59572Y415309D01*
X63262D01*
X65872Y417919D01*
Y419971D01*
X67840Y420786D01*
X70101Y418526D01*
X70169Y418182D01*
X68144Y416156D01*
Y412466D01*
X70753Y409856D01*
X74444D01*
X77053Y412466D01*
Y416156D01*
X76819Y416390D01*
X77572Y418209D01*
X106299D01*
X107065Y418526D01*
X107065Y418526D01*
X118559Y430020D01*
X131024D01*
X131507Y428089D01*
X131124Y427931D01*
Y427931D01*
X117345Y414151D01*
X117345Y414151D01*
X117028Y413386D01*
X117028Y413386D01*
Y412338D01*
X116321Y410519D01*
X115309Y410449D01*
Y410022D01*
X106693D01*
X105174Y409393D01*
X104562Y408780D01*
X101159Y412183D01*
X101159Y412183D01*
X100394Y412500D01*
X100394Y412500D01*
X88583Y412500D01*
X88583Y412500D01*
X87817Y412183D01*
X87817Y412183D01*
X79943Y404309D01*
X79626Y403543D01*
X79626Y403543D01*
X79626Y398930D01*
X79536Y398807D01*
X79043Y398373D01*
X77831Y397773D01*
X75918Y397965D01*
X75197Y399705D01*
X77053Y401560D01*
Y405251D01*
X74444Y407860D01*
X70753D01*
X68144Y405251D01*
Y401560D01*
X69999Y399705D01*
X69960Y399040D01*
X69625Y398130D01*
X68144Y396955D01*
X67831Y396935D01*
X65872Y398709D01*
Y399798D01*
X63262Y402408D01*
X59572D01*
X56963Y399798D01*
Y396108D01*
X59572Y393498D01*
X63262D01*
X65012Y395248D01*
X65685Y395040D01*
X66231Y394679D01*
X66831Y392959D01*
Y386811D01*
X66831Y386811D01*
X67148Y386046D01*
X67148Y386046D01*
X85849Y367345D01*
X85849Y367345D01*
X86614Y367028D01*
X86614Y367028D01*
X104331D01*
X105096Y367345D01*
X105096Y367345D01*
X107065Y369313D01*
X107065Y369313D01*
X107212Y369669D01*
X107382Y370079D01*
X107382Y370079D01*
Y375805D01*
X116140D01*
X117028Y375212D01*
Y349957D01*
X114692D01*
X112642Y347906D01*
Y345007D01*
X113532Y344116D01*
X113602Y343931D01*
X113716Y343810D01*
X113787Y343719D01*
X113850Y343622D01*
X113906Y343519D01*
X113954Y343407D01*
X113994Y343286D01*
Y312225D01*
X113954Y312105D01*
X113906Y311993D01*
X113850Y311890D01*
X113787Y311793D01*
X113716Y311702D01*
X113602Y311581D01*
X113532Y311395D01*
X112642Y310505D01*
Y307605D01*
X114692Y305555D01*
X117028D01*
Y266124D01*
X111614D01*
X110096Y265495D01*
X104168Y259567D01*
X97222Y266513D01*
X97222Y266513D01*
X96457Y266830D01*
X96457Y266830D01*
X88583Y266830D01*
X88583Y266830D01*
X87817Y266513D01*
X87817Y266513D01*
X80211Y258907D01*
X79735Y258653D01*
X77869Y258776D01*
X75989Y260655D01*
X72299D01*
X69689Y258046D01*
Y254356D01*
X70160Y253885D01*
X69396Y251865D01*
X69386Y251861D01*
X67418Y252593D01*
X64808Y255203D01*
X61118D01*
X58508Y252593D01*
Y248903D01*
X61118Y246293D01*
X64808D01*
X65012Y246498D01*
X66831Y245744D01*
Y241142D01*
X66831Y241142D01*
X67148Y240376D01*
X67148Y240376D01*
X85849Y221676D01*
X85849Y221676D01*
X86614Y221358D01*
X86614Y221359D01*
X104331D01*
X105096Y221676D01*
X105096Y221676D01*
X107064Y223644D01*
X107065Y223644D01*
X107382Y224410D01*
X107382Y224410D01*
Y229348D01*
X111417D01*
X112936Y229977D01*
X115059Y232101D01*
X117028Y231285D01*
Y218504D01*
X117345Y217739D01*
X117345Y217739D01*
X125489Y209594D01*
X125219Y207458D01*
X124902Y206693D01*
Y199169D01*
X125219Y198404D01*
X125219Y198404D01*
X127658Y195964D01*
X126843Y193996D01*
X81157D01*
X66503Y208649D01*
X66267Y208747D01*
X66072Y208913D01*
X64981Y209268D01*
X63675Y209933D01*
X62490Y210794D01*
X61454Y211830D01*
X60593Y213016D01*
X59928Y214321D01*
X59573Y215413D01*
X59407Y215607D01*
X59309Y215844D01*
X56200Y218952D01*
Y265300D01*
X60062Y269161D01*
X61118Y268104D01*
X64808D01*
X67418Y270714D01*
Y274404D01*
X66361Y275461D01*
X67694Y276794D01*
X67721Y276857D01*
X69689Y276466D01*
Y276170D01*
X72299Y273561D01*
X75989D01*
X78599Y276170D01*
Y279861D01*
X77896Y280563D01*
X78649Y282382D01*
X78740D01*
X79505Y282699D01*
X79505Y282699D01*
X81474Y284668D01*
X81791Y285433D01*
X81791Y285433D01*
Y295276D01*
X81474Y296041D01*
X81474Y296041D01*
X77537Y299978D01*
X76772Y300295D01*
X76772Y300295D01*
X49213D01*
X49213Y300295D01*
X48447Y299978D01*
X48447Y299978D01*
X37252Y288783D01*
X35433Y289536D01*
Y673959D01*
X37402Y674219D01*
X40545Y671076D01*
X44892Y669276D01*
X49597D01*
X53943Y671076D01*
X57270Y674403D01*
X59071Y678750D01*
Y683455D01*
X57270Y687802D01*
X55946Y689126D01*
X56699Y690945D01*
X272041D01*
X272794Y689126D01*
X271470Y687802D01*
X269669Y683455D01*
Y678750D01*
X271470Y674403D01*
X274797Y671076D01*
X279144Y669276D01*
X283849D01*
X288195Y671076D01*
X291522Y674403D01*
X293323Y678750D01*
Y683455D01*
X291522Y687802D01*
X290198Y689126D01*
X290951Y690945D01*
X297244D01*
Y24044D01*
D02*
G37*
G36*
X185039Y480315D02*
Y452756D01*
X175197Y442913D01*
X106299D01*
X92520Y429134D01*
X74730D01*
X74318Y429372D01*
X73185Y429675D01*
X72012D01*
X70879Y429372D01*
X70720Y429280D01*
X68898Y431102D01*
Y438976D01*
X72835Y442913D01*
X90551D01*
X100394Y452756D01*
X169291D01*
X173228Y456693D01*
Y468504D01*
X169291Y472441D01*
X149606D01*
X147638Y474409D01*
Y494095D01*
X149606Y496063D01*
X169291D01*
X185039Y480315D01*
D02*
G37*
G36*
X129921Y496063D02*
Y470472D01*
X131890Y468504D01*
X167323D01*
X169291Y466535D01*
Y458661D01*
X167323Y456693D01*
X94488D01*
X82677Y444882D01*
X71611D01*
X66919Y440190D01*
X66929Y440179D01*
Y427886D01*
X66708Y427556D01*
X66631Y427165D01*
Y426867D01*
X64961Y425197D01*
X57087D01*
X55118Y427165D01*
Y442913D01*
X62992Y450787D01*
X66929D01*
X69581Y453439D01*
X70996Y453899D01*
X72453Y454641D01*
X73776Y455603D01*
X74933Y456759D01*
X75894Y458082D01*
X76636Y459539D01*
X77096Y460955D01*
X84646Y468504D01*
X102362D01*
X112205Y478346D01*
Y496063D01*
X114173Y498032D01*
X127953D01*
X129921Y496063D01*
D02*
G37*
G36*
X200207Y423921D02*
X200039Y423862D01*
X199892Y423763D01*
X199764Y423624D01*
X199655Y423446D01*
X199567Y423228D01*
X199498Y422971D01*
X199449Y422674D01*
X199419Y422337D01*
X199409Y421961D01*
X197441D01*
X197431Y422337D01*
X197402Y422674D01*
X197352Y422971D01*
X197283Y423228D01*
X197195Y423446D01*
X197087Y423624D01*
X196959Y423763D01*
X196811Y423862D01*
X196644Y423921D01*
X196457Y423941D01*
X200394D01*
X200207Y423921D01*
D02*
G37*
G36*
X189183D02*
X189016Y423862D01*
X188868Y423763D01*
X188740Y423624D01*
X188632Y423446D01*
X188543Y423228D01*
X188474Y422971D01*
X188425Y422674D01*
X188396Y422337D01*
X188386Y421961D01*
X186417D01*
X186407Y422337D01*
X186378Y422674D01*
X186329Y422971D01*
X186260Y423228D01*
X186171Y423446D01*
X186063Y423624D01*
X185935Y423763D01*
X185787Y423862D01*
X185620Y423921D01*
X185433Y423941D01*
X189370D01*
X189183Y423921D01*
D02*
G37*
G36*
X202756Y498032D02*
Y444882D01*
X189287Y431413D01*
X184039D01*
Y431102D01*
X118110D01*
X106299Y419291D01*
X70866D01*
X67650Y422507D01*
Y427165D01*
X96457D01*
X108268Y438976D01*
X177165Y438976D01*
X188976Y450787D01*
Y490158D01*
X181102Y498032D01*
X147638D01*
X145669Y496063D01*
Y472441D01*
X143701Y470472D01*
X133858D01*
X131890Y472441D01*
Y503937D01*
X139764Y511811D01*
X188976D01*
X202756Y498032D01*
D02*
G37*
G36*
X198427Y417114D02*
X198039Y416712D01*
X197428Y415990D01*
X197206Y415671D01*
X197187Y415638D01*
X197258Y415505D01*
X197500Y415138D01*
X197807Y414734D01*
X198619Y413811D01*
X199123Y413292D01*
X197429Y412203D01*
X197008Y412610D01*
X196260Y413246D01*
X195934Y413475D01*
X195640Y413644D01*
X195377Y413753D01*
X195147Y413803D01*
X194948Y413793D01*
X194781Y413724D01*
X194645Y413595D01*
X195996Y415391D01*
X194303Y417114D01*
X194572Y417128D01*
X194841Y417170D01*
X195112Y417239D01*
X195384Y417337D01*
X195656Y417462D01*
X195930Y417615D01*
X196205Y417796D01*
X196481Y418005D01*
X196757Y418242D01*
X197035Y418506D01*
X198427Y417114D01*
D02*
G37*
G36*
X189069Y418242D02*
X189346Y418005D01*
X189622Y417796D01*
X189897Y417615D01*
X190171Y417462D01*
X190443Y417337D01*
X190715Y417239D01*
X190985Y417170D01*
X191255Y417128D01*
X191523Y417114D01*
X189803Y415356D01*
X191523Y413595D01*
X191255Y413581D01*
X190985Y413539D01*
X190715Y413469D01*
X190443Y413372D01*
X190171Y413247D01*
X189897Y413094D01*
X189622Y412913D01*
X189346Y412704D01*
X189069Y412467D01*
X188792Y412203D01*
X187400Y413595D01*
X187789Y413998D01*
X188402Y414721D01*
X188626Y415041D01*
X188794Y415334D01*
X188802Y415354D01*
X188793Y415377D01*
X188625Y415669D01*
X188401Y415988D01*
X188123Y416336D01*
X187400Y417114D01*
X188792Y418506D01*
X189069Y418242D01*
D02*
G37*
G36*
X201986Y407468D02*
X199845D01*
X199862Y407488D01*
X199876Y407547D01*
X199889Y407646D01*
X199910Y407960D01*
X199932Y409437D01*
X201900D01*
X201986Y407468D01*
D02*
G37*
G36*
X186986D02*
X184845D01*
X184862Y407488D01*
X184876Y407547D01*
X184889Y407646D01*
X184910Y407960D01*
X184932Y409437D01*
X186900D01*
X186986Y407468D01*
D02*
G37*
G36*
X119860Y409271D02*
X119920Y409122D01*
X120018Y408991D01*
X120156Y408878D01*
X120333Y408781D01*
X120549Y408703D01*
X120805Y408642D01*
X121101Y408598D01*
X121435Y408572D01*
X121809Y408563D01*
Y406595D01*
X121435Y406592D01*
X120333Y406524D01*
X120156Y406493D01*
X120018Y406456D01*
X119920Y406413D01*
X119860Y406365D01*
X119841Y406311D01*
Y409437D01*
X119860Y409271D01*
D02*
G37*
G36*
X116321Y406311D02*
X116302Y406421D01*
X116243Y406520D01*
X116144Y406606D01*
X116007Y406681D01*
X115829Y406745D01*
X115613Y406797D01*
X115357Y406838D01*
X115062Y406867D01*
X114353Y406890D01*
Y408858D01*
X114727Y408864D01*
X115357Y408910D01*
X115613Y408951D01*
X115829Y409003D01*
X116007Y409067D01*
X116144Y409142D01*
X116243Y409229D01*
X116302Y409327D01*
X116321Y409437D01*
Y406311D01*
D02*
G37*
G36*
X131671Y409093D02*
X131730Y408961D01*
X131829Y408845D01*
X131967Y408744D01*
X132144Y408658D01*
X132360Y408589D01*
X132616Y408534D01*
X132912Y408496D01*
X133246Y408472D01*
X133620Y408465D01*
Y406496D01*
X133246Y406492D01*
X132360Y406435D01*
X132144Y406401D01*
X131967Y406359D01*
X131829Y406309D01*
X131730Y406252D01*
X131671Y406187D01*
X131652Y406114D01*
Y409240D01*
X131671Y409093D01*
D02*
G37*
G36*
X220742Y408838D02*
X220787Y408710D01*
X220862Y408598D01*
X220967Y408500D01*
X221102Y408418D01*
X221267Y408350D01*
X221462Y408298D01*
X221687Y408260D01*
X221942Y408238D01*
X222227Y408230D01*
Y406730D01*
X221942Y406723D01*
X221687Y406700D01*
X221462Y406663D01*
X221267Y406610D01*
X221102Y406543D01*
X220967Y406460D01*
X220862Y406363D01*
X220787Y406250D01*
X220742Y406123D01*
X220727Y405980D01*
Y408980D01*
X220742Y408838D01*
D02*
G37*
G36*
X212286Y405622D02*
X212266Y405788D01*
X212207Y405937D01*
X212109Y406068D01*
X211971Y406181D01*
X211794Y406278D01*
X211577Y406356D01*
X211321Y406417D01*
X211026Y406461D01*
X210691Y406487D01*
X210317Y406496D01*
Y408465D01*
X210691Y408473D01*
X211026Y408499D01*
X211321Y408543D01*
X211577Y408604D01*
X211794Y408683D01*
X211971Y408779D01*
X212109Y408893D01*
X212207Y409024D01*
X212266Y409172D01*
X212286Y409338D01*
Y405622D01*
D02*
G37*
G36*
X163364Y409262D02*
X163423Y409094D01*
X163522Y408947D01*
X163660Y408819D01*
X163837Y408711D01*
X164053Y408622D01*
X164309Y408553D01*
X164604Y408504D01*
X164939Y408474D01*
X165313Y408465D01*
Y406496D01*
X164939Y406486D01*
X164604Y406457D01*
X164309Y406407D01*
X164053Y406339D01*
X163837Y406250D01*
X163660Y406142D01*
X163522Y406014D01*
X163423Y405866D01*
X163364Y405699D01*
X163345Y405512D01*
Y409449D01*
X163364Y409262D01*
D02*
G37*
G36*
X147633Y405512D02*
X147613Y405699D01*
X147553Y405866D01*
X147454Y406014D01*
X147316Y406142D01*
X147137Y406250D01*
X146920Y406339D01*
X146662Y406407D01*
X146365Y406457D01*
X146028Y406486D01*
X145652Y406496D01*
Y408465D01*
X146028Y408474D01*
X146365Y408504D01*
X146662Y408553D01*
X146920Y408622D01*
X147137Y408711D01*
X147316Y408819D01*
X147454Y408947D01*
X147553Y409094D01*
X147613Y409262D01*
X147633Y409449D01*
Y405512D01*
D02*
G37*
G36*
X232438Y397405D02*
Y388799D01*
X232559Y388192D01*
X232442Y387928D01*
X232265Y387678D01*
X231653Y387556D01*
X231074Y387170D01*
X231074Y387170D01*
X225610Y381705D01*
X221905D01*
X221815Y381713D01*
X221739Y381726D01*
Y382791D01*
X212321D01*
X212282Y382799D01*
X212245Y382791D01*
X211274D01*
Y382791D01*
X210774Y382609D01*
X208620Y384763D01*
X208811Y385225D01*
X217247D01*
X217352Y385221D01*
X217580Y385197D01*
X217672Y385182D01*
Y384630D01*
X218646D01*
X218684Y384622D01*
X218722Y384630D01*
X222165D01*
X222203Y384622D01*
X222241Y384630D01*
X223215D01*
Y385204D01*
X223435Y385225D01*
X223833D01*
X224607Y385379D01*
X225264Y385818D01*
X227287Y387841D01*
X227312Y387861D01*
X227439Y387952D01*
X227562Y388026D01*
X227682Y388086D01*
X227801Y388133D01*
X227918Y388169D01*
X228036Y388193D01*
X228157Y388208D01*
X228250Y388211D01*
X228317Y388202D01*
X229231Y388322D01*
X230082Y388675D01*
X230814Y389236D01*
X231375Y389967D01*
X231727Y390819D01*
X231848Y391732D01*
X231727Y392646D01*
X231375Y393497D01*
X230814Y394229D01*
X230082Y394790D01*
X229231Y395142D01*
X228317Y395263D01*
X227404Y395142D01*
X226552Y394790D01*
X225821Y394229D01*
X225260Y393497D01*
X224907Y392646D01*
X224787Y391732D01*
X224796Y391665D01*
X224793Y391572D01*
X224779Y391451D01*
X224754Y391333D01*
X224718Y391215D01*
X224671Y391097D01*
X224611Y390977D01*
X224537Y390854D01*
X224447Y390727D01*
X224426Y390702D01*
X223110Y389386D01*
X222241D01*
X222203Y389393D01*
X222165Y389386D01*
X218722D01*
X218684Y389393D01*
X218646Y389386D01*
X217672D01*
Y389289D01*
X217363Y389271D01*
X207726D01*
X204304Y392693D01*
X203648Y393132D01*
X203574Y393146D01*
X203624Y393646D01*
X209089D01*
X209121Y393643D01*
X209275Y393617D01*
X209415Y393583D01*
X209542Y393540D01*
X209659Y393490D01*
X209767Y393432D01*
X209868Y393366D01*
X209964Y393291D01*
X210032Y393227D01*
X210073Y393173D01*
X210804Y392612D01*
X211656Y392259D01*
X212569Y392139D01*
X213483Y392259D01*
X214334Y392612D01*
X215066Y393173D01*
X215627Y393904D01*
X215979Y394756D01*
X216100Y395669D01*
X215979Y396583D01*
X215627Y397434D01*
X215066Y398165D01*
X214334Y398727D01*
X213483Y399079D01*
X212569Y399200D01*
X211656Y399079D01*
X210804Y398727D01*
X210073Y398165D01*
X210032Y398112D01*
X209964Y398048D01*
X209868Y397973D01*
X209767Y397907D01*
X209659Y397849D01*
X209542Y397799D01*
X209415Y397756D01*
X209275Y397722D01*
X209121Y397696D01*
X209089Y397692D01*
X201773D01*
X201322Y398144D01*
X201513Y398606D01*
X202998D01*
Y401424D01*
X203022Y401434D01*
X203168Y401473D01*
X203375Y401508D01*
X203519Y401520D01*
X204695D01*
X205469Y401674D01*
X206126Y402113D01*
X209470Y405457D01*
X210786D01*
X210912Y405447D01*
X211128Y405415D01*
X211274Y405380D01*
Y404610D01*
X212248D01*
X212286Y404603D01*
X212324Y404610D01*
X212400D01*
X212406Y404610D01*
X212407Y404610D01*
X221739D01*
Y405675D01*
X221815Y405688D01*
X221905Y405696D01*
X224148D01*
X232438Y397405D01*
D02*
G37*
G36*
X184039Y427165D02*
Y422917D01*
X185286D01*
X185291Y422903D01*
X185331Y422755D01*
X185366Y422546D01*
X185379Y422400D01*
Y418504D01*
X185532Y417730D01*
X185971Y417073D01*
X187024Y416021D01*
X187351Y415669D01*
X187585Y415377D01*
X187601Y415354D01*
X187593Y415344D01*
X187113Y414777D01*
X184485Y412149D01*
X184047Y411493D01*
X183893Y410719D01*
Y409503D01*
X164877D01*
X164733Y409516D01*
X164526Y409551D01*
X164380Y409590D01*
X164357Y409600D01*
Y411728D01*
X157632D01*
Y403232D01*
X164357D01*
Y405361D01*
X164380Y405371D01*
X164526Y405410D01*
X164733Y405444D01*
X164877Y405457D01*
X183833D01*
Y398606D01*
X187998D01*
Y407430D01*
X188006Y407468D01*
X188002Y407491D01*
X188005Y407513D01*
X187998Y407664D01*
Y408480D01*
X187963D01*
X187939Y409020D01*
Y409881D01*
X189858Y411800D01*
X189986Y411909D01*
X190211Y412079D01*
X190427Y412222D01*
X190633Y412337D01*
X190829Y412427D01*
X191015Y412494D01*
X191191Y412539D01*
X191360Y412565D01*
X191576Y412576D01*
X191601Y412583D01*
X192535D01*
Y413547D01*
X192543Y413583D01*
X192537Y413615D01*
X192542Y413648D01*
X192535Y413672D01*
Y417037D01*
X192542Y417061D01*
X192537Y417093D01*
X192543Y417125D01*
X192535Y417161D01*
Y418126D01*
X191601D01*
X191576Y418132D01*
X191360Y418143D01*
X191191Y418170D01*
X191015Y418215D01*
X190829Y418282D01*
X190633Y418372D01*
X190427Y418487D01*
X190211Y418629D01*
X189986Y418800D01*
X189858Y418909D01*
X189425Y419342D01*
Y422400D01*
X189437Y422546D01*
X189472Y422755D01*
X189512Y422903D01*
X189517Y422917D01*
X190764D01*
Y427165D01*
X195063D01*
Y422917D01*
X196309D01*
X196315Y422903D01*
X196355Y422755D01*
X196389Y422546D01*
X196402Y422400D01*
Y419342D01*
X195969Y418909D01*
X195841Y418799D01*
X195616Y418629D01*
X195400Y418487D01*
X195194Y418372D01*
X194998Y418282D01*
X194812Y418215D01*
X194636Y418170D01*
X194467Y418143D01*
X194251Y418132D01*
X194226Y418126D01*
X193291D01*
Y417159D01*
X193284Y417123D01*
X193290Y417092D01*
X193285Y417061D01*
X193291Y417037D01*
Y412583D01*
X194588D01*
X194621Y412575D01*
X194663Y412583D01*
X195431D01*
X195636Y412439D01*
X196226Y411937D01*
X198893Y409270D01*
Y408480D01*
X198833D01*
Y407507D01*
X198826Y407468D01*
X198833Y407430D01*
Y407409D01*
X198830Y407377D01*
X198833Y407365D01*
Y401365D01*
X198333Y401190D01*
X198234Y401315D01*
X198061Y401565D01*
X198037Y401607D01*
Y403445D01*
X197998Y403640D01*
Y408480D01*
X193833D01*
Y399721D01*
X193830Y399709D01*
X193833Y399676D01*
Y398606D01*
X194743D01*
X194755Y398603D01*
X194833Y398596D01*
X194865Y398588D01*
X194941Y398559D01*
X195055Y398502D01*
X195201Y398414D01*
X195354Y398308D01*
X195893Y397850D01*
X199505Y394239D01*
X200161Y393800D01*
X200235Y393786D01*
X200185Y393286D01*
X196182D01*
X192939Y396529D01*
Y398606D01*
X192998D01*
Y399580D01*
X193006Y399618D01*
X192998Y399657D01*
Y399678D01*
X193002Y399710D01*
X192998Y399722D01*
Y408480D01*
X188833D01*
Y399657D01*
X188826Y399618D01*
X188830Y399596D01*
X188827Y399574D01*
X188833Y399423D01*
Y398606D01*
X188869D01*
X188893Y398067D01*
Y396170D01*
X188393Y395963D01*
X187256Y397100D01*
X186600Y397538D01*
X185826Y397692D01*
X172880D01*
X172777Y397699D01*
X172553Y397729D01*
X172427Y397756D01*
Y398441D01*
X171454D01*
X171416Y398448D01*
X171377Y398441D01*
X167672D01*
Y392898D01*
X171377D01*
X171416Y392890D01*
X171454Y392898D01*
X172427D01*
Y393583D01*
X172536Y393606D01*
X172943Y393646D01*
X184988D01*
X188893Y389741D01*
Y389189D01*
X188833D01*
Y388215D01*
X188826Y388177D01*
X188833Y388139D01*
Y388118D01*
X188830Y388085D01*
X188833Y388074D01*
Y379315D01*
X192998D01*
Y388139D01*
X193006Y388177D01*
X193002Y388199D01*
X193005Y388222D01*
X192998Y388372D01*
Y389189D01*
X192963D01*
X192939Y389729D01*
Y390100D01*
X193203Y390260D01*
X193300Y390279D01*
X193439Y390285D01*
X193794Y389930D01*
Y384350D01*
X193833Y384155D01*
Y379315D01*
X197998D01*
Y388055D01*
X197999Y388057D01*
X197998Y388063D01*
Y388139D01*
X198006Y388177D01*
X197998Y388215D01*
Y388964D01*
X198416Y389187D01*
X198833Y388964D01*
Y380365D01*
X198826Y380327D01*
X198830Y380305D01*
X198826Y380282D01*
X198833Y380132D01*
Y379315D01*
X198869D01*
X198893Y378775D01*
Y376557D01*
X195969Y373633D01*
X195841Y373524D01*
X195616Y373354D01*
X195400Y373211D01*
X195194Y373096D01*
X194998Y373006D01*
X194812Y372939D01*
X194636Y372894D01*
X194467Y372868D01*
X194251Y372857D01*
X194226Y372850D01*
X193291D01*
Y371884D01*
X193284Y371848D01*
X193290Y371817D01*
X193285Y371786D01*
X193291Y371761D01*
Y367307D01*
X195105D01*
X195827Y366666D01*
X196373Y366120D01*
Y363033D01*
X196360Y362887D01*
X196326Y362678D01*
X196286Y362530D01*
X196280Y362516D01*
X195034D01*
Y354020D01*
X201758D01*
Y362516D01*
X200512D01*
X200506Y362530D01*
X200467Y362678D01*
X200432Y362887D01*
X200419Y363033D01*
Y366958D01*
X200265Y367733D01*
X199827Y368389D01*
X199250Y368965D01*
X199250Y368965D01*
X198308Y369908D01*
X198195Y370032D01*
X198237Y370092D01*
X198716Y370658D01*
X202346Y374288D01*
X202785Y374945D01*
X202939Y375719D01*
Y379315D01*
X202998D01*
Y380289D01*
X203006Y380327D01*
X202998Y380365D01*
Y380386D01*
X203002Y380419D01*
X202998Y380430D01*
Y381739D01*
X203022Y381749D01*
X203168Y381788D01*
X203375Y381822D01*
X203519Y381835D01*
X205826D01*
X209044Y378617D01*
X209700Y378179D01*
X210474Y378025D01*
X210917D01*
X211013Y378017D01*
X211205Y377988D01*
X211274Y377971D01*
Y377051D01*
X221739D01*
Y378116D01*
X221815Y378129D01*
X221905Y378137D01*
X226349D01*
X227032Y378273D01*
X227611Y378660D01*
X232211Y383260D01*
X232673Y383068D01*
Y372204D01*
X232808Y371521D01*
X233195Y370942D01*
X235539Y368599D01*
X235539Y368599D01*
X236118Y368212D01*
X236801Y368076D01*
X236801Y368076D01*
X238571D01*
X238687Y367196D01*
X239040Y366345D01*
X239601Y365614D01*
X240332Y365053D01*
X241183Y364700D01*
X242097Y364580D01*
X243010Y364700D01*
X243862Y365053D01*
X244593Y365614D01*
X245154Y366345D01*
X245507Y367196D01*
X245627Y368110D01*
X245507Y369024D01*
X245154Y369875D01*
X244593Y370606D01*
X244262Y370860D01*
Y371360D01*
X244593Y371614D01*
X245154Y372345D01*
X245507Y373197D01*
X245627Y374110D01*
X245507Y375024D01*
X245154Y375875D01*
X244593Y376606D01*
X243862Y377168D01*
X243010Y377520D01*
X242097Y377640D01*
X241183Y377520D01*
X240332Y377168D01*
X239601Y376606D01*
X239241Y376138D01*
X238741Y376308D01*
Y386065D01*
X238741Y386065D01*
X238605Y386748D01*
X238219Y387327D01*
X236007Y389538D01*
Y398144D01*
X236007Y398144D01*
X235871Y398827D01*
X235485Y399406D01*
X235485Y399406D01*
X226148Y408742D01*
X225570Y409129D01*
X224887Y409265D01*
X221905D01*
X221815Y409272D01*
X221739Y409285D01*
Y410350D01*
X212407D01*
X212406Y410351D01*
X212400Y410350D01*
X212324D01*
X212286Y410358D01*
X212248Y410350D01*
X211274D01*
Y409580D01*
X211128Y409545D01*
X210912Y409513D01*
X210786Y409503D01*
X208632D01*
X207858Y409349D01*
X207202Y408911D01*
X203857Y405566D01*
X203519D01*
X203375Y405579D01*
X203168Y405614D01*
X203022Y405653D01*
X202998Y405663D01*
Y407430D01*
X203006Y407468D01*
X203002Y407491D01*
X203005Y407513D01*
X202998Y407664D01*
Y408480D01*
X202963D01*
X202939Y409020D01*
Y410108D01*
X202785Y410882D01*
X202346Y411539D01*
X199266Y414619D01*
X198597Y415379D01*
X198432Y415597D01*
X198716Y415934D01*
X199856Y417073D01*
X200294Y417730D01*
X200448Y418504D01*
Y422400D01*
X200461Y422546D01*
X200496Y422755D01*
X200535Y422903D01*
X200541Y422917D01*
X201787D01*
Y427165D01*
X234252D01*
X261782Y399635D01*
X261782Y354471D01*
X260897Y354203D01*
X259595Y353507D01*
X258453Y352570D01*
X257517Y351429D01*
X256821Y350127D01*
X256392Y348714D01*
X256247Y347244D01*
X256392Y345775D01*
X256821Y344362D01*
X257478Y343131D01*
X257449Y342979D01*
X257434Y342945D01*
X257213Y342641D01*
X248851D01*
X248851Y342641D01*
X248168Y342505D01*
X247589Y342118D01*
X247589Y342118D01*
X240882Y335411D01*
X240495Y334832D01*
X240359Y334149D01*
Y319255D01*
X240495Y318572D01*
X240882Y317993D01*
X241943Y316932D01*
X241943Y316932D01*
X242522Y316546D01*
X242868Y316477D01*
X242872Y316473D01*
X242888Y316456D01*
X242860Y316248D01*
X242993Y315236D01*
X243384Y314292D01*
X244006Y313482D01*
X244816Y312861D01*
X245661Y312511D01*
X245696Y312339D01*
Y312165D01*
X245661Y311993D01*
X244816Y311643D01*
X244006Y311022D01*
X243384Y310212D01*
X242993Y309268D01*
X242860Y308256D01*
X242993Y307244D01*
X243384Y306300D01*
X244006Y305490D01*
X244816Y304869D01*
X245759Y304478D01*
X246772Y304345D01*
X247784Y304478D01*
X248727Y304869D01*
X249496Y305458D01*
X249826Y305081D01*
X239980Y295236D01*
X239594Y294657D01*
X239458Y293974D01*
Y286317D01*
X239594Y285634D01*
X239980Y285055D01*
X242897Y282138D01*
Y256820D01*
X242435Y256628D01*
X234022Y265041D01*
X233443Y265428D01*
X232761Y265564D01*
X231747D01*
X231658Y265572D01*
X231581Y265584D01*
Y266650D01*
X222250D01*
X222249Y266650D01*
X222242Y266650D01*
X222167D01*
X222129Y266657D01*
X222090Y266650D01*
X221116D01*
Y265879D01*
X220971Y265844D01*
X220754Y265812D01*
X220629Y265803D01*
X218475D01*
X217701Y265649D01*
X217044Y265210D01*
X215668Y263834D01*
X209287D01*
X209218Y263836D01*
X208986Y263859D01*
X208904Y263872D01*
Y264386D01*
X208868D01*
X208844Y264926D01*
Y267982D01*
X208690Y268756D01*
X208252Y269412D01*
X204714Y272951D01*
X204384Y273306D01*
X204151Y273597D01*
X204134Y273622D01*
X204143Y273636D01*
X204622Y274202D01*
X205761Y275341D01*
X206200Y275997D01*
X206354Y276772D01*
Y280668D01*
X206367Y280814D01*
X206401Y281023D01*
X206441Y281171D01*
X206447Y281185D01*
X207693D01*
Y289681D01*
X200969D01*
Y281185D01*
X202215D01*
X202221Y281171D01*
X202260Y281023D01*
X202295Y280814D01*
X202308Y280668D01*
Y277610D01*
X201875Y277177D01*
X201747Y277067D01*
X201522Y276897D01*
X201306Y276755D01*
X201099Y276639D01*
X200903Y276549D01*
X200718Y276483D01*
X200541Y276437D01*
X200373Y276411D01*
X200156Y276400D01*
X200132Y276394D01*
X199197D01*
Y275427D01*
X199189Y275391D01*
X199195Y275360D01*
X199191Y275329D01*
X199197Y275304D01*
Y271940D01*
X199191Y271915D01*
X199195Y271884D01*
X199189Y271853D01*
X199197Y271817D01*
Y270850D01*
X200132D01*
X200156Y270844D01*
X200373Y270833D01*
X200541Y270807D01*
X200718Y270761D01*
X200903Y270695D01*
X201099Y270605D01*
X201306Y270490D01*
X201521Y270347D01*
X201747Y270177D01*
X201875Y270067D01*
X204798Y267144D01*
Y264386D01*
X204739D01*
Y263412D01*
X204731Y263374D01*
X204739Y263336D01*
Y263314D01*
X204735Y263282D01*
X204739Y263270D01*
Y254512D01*
X208904D01*
Y259692D01*
X208927Y259701D01*
X209073Y259741D01*
X209281Y259775D01*
X209424Y259788D01*
X216506D01*
X217281Y259942D01*
X217937Y260381D01*
X219313Y261756D01*
X220629D01*
X220754Y261747D01*
X220971Y261715D01*
X221116Y261680D01*
Y260909D01*
X222090D01*
X222129Y260902D01*
X222167Y260909D01*
X222242D01*
X222249Y260909D01*
X222250Y260909D01*
X231581D01*
Y261852D01*
X232081Y261936D01*
X241299Y252718D01*
X241877Y252332D01*
X242560Y252196D01*
X242808D01*
X242999Y251734D01*
X242737Y251472D01*
X242350Y250893D01*
X242214Y250210D01*
Y246735D01*
X241767Y246288D01*
X241343Y246572D01*
X241570Y247118D01*
X241690Y248031D01*
X241570Y248945D01*
X241217Y249797D01*
X240656Y250528D01*
X239925Y251089D01*
X239073Y251441D01*
X238160Y251562D01*
X237246Y251441D01*
X236395Y251089D01*
X235664Y250528D01*
X235103Y249797D01*
X234750Y248945D01*
X234630Y248031D01*
X234750Y247118D01*
X235103Y246266D01*
X235557Y245675D01*
Y245428D01*
X233558Y243429D01*
X233057Y243524D01*
Y243717D01*
X227514D01*
Y243362D01*
X224825D01*
X222661Y245525D01*
X222005Y245964D01*
X221231Y246118D01*
X211548D01*
X210156Y247509D01*
X209500Y247948D01*
X208726Y248102D01*
X203450D01*
X203252Y248399D01*
X201978Y249673D01*
X202105Y249917D01*
X202273Y250085D01*
X202974Y249945D01*
X214995D01*
X215027Y249942D01*
X215180Y249916D01*
X215320Y249882D01*
X215448Y249839D01*
X215564Y249789D01*
X215672Y249731D01*
X215773Y249665D01*
X215869Y249590D01*
X215937Y249526D01*
X215979Y249472D01*
X216710Y248911D01*
X217561Y248559D01*
X218475Y248438D01*
X219389Y248559D01*
X220240Y248911D01*
X220971Y249472D01*
X221532Y250203D01*
X221885Y251055D01*
X222005Y251969D01*
X221885Y252882D01*
X221532Y253734D01*
X220971Y254465D01*
X220240Y255026D01*
X219389Y255378D01*
X218475Y255499D01*
X217561Y255378D01*
X216710Y255026D01*
X215979Y254465D01*
X215937Y254411D01*
X215869Y254347D01*
X215773Y254272D01*
X215672Y254206D01*
X215564Y254148D01*
X215448Y254098D01*
X215320Y254055D01*
X215180Y254021D01*
X215027Y253995D01*
X214995Y253992D01*
X203844D01*
Y254512D01*
X203904D01*
Y255486D01*
X203911Y255524D01*
X203904Y255562D01*
Y255583D01*
X203907Y255615D01*
X203904Y255627D01*
Y264386D01*
X199739D01*
Y255562D01*
X199731Y255524D01*
X199735Y255502D01*
X199732Y255479D01*
X199739Y255328D01*
Y254512D01*
X199774D01*
X199798Y253972D01*
Y253122D01*
X199938Y252420D01*
X199770Y252253D01*
X199525Y252126D01*
X198844Y252806D01*
Y254512D01*
X198904D01*
Y255486D01*
X198911Y255524D01*
X198904Y255562D01*
Y255583D01*
X198907Y255615D01*
X198904Y255627D01*
Y264386D01*
X194739D01*
Y255562D01*
X194731Y255524D01*
X194735Y255502D01*
X194732Y255479D01*
X194739Y255328D01*
Y254512D01*
X194774D01*
X194798Y253972D01*
Y251969D01*
X194876Y251576D01*
X194415Y251330D01*
X194315Y251431D01*
X193658Y251869D01*
X192884Y252023D01*
X178785D01*
X178683Y252030D01*
X178458Y252060D01*
X178333Y252086D01*
Y252772D01*
X177359D01*
X177321Y252779D01*
X177283Y252772D01*
X173577D01*
Y247228D01*
X177283D01*
X177321Y247221D01*
X177359Y247228D01*
X178333D01*
Y247914D01*
X178442Y247937D01*
X178849Y247977D01*
X192046D01*
X194519Y245504D01*
X194739Y245094D01*
Y244121D01*
X194731Y244082D01*
X194739Y244044D01*
Y244023D01*
X194735Y243991D01*
X194739Y243979D01*
Y235221D01*
X198904D01*
Y244044D01*
X198911Y244082D01*
X198907Y244105D01*
X198911Y244127D01*
X198904Y244278D01*
Y245094D01*
X198868D01*
X198844Y245634D01*
Y246063D01*
X198766Y246455D01*
X199227Y246702D01*
X199798Y246130D01*
Y245094D01*
X199739D01*
Y244121D01*
X199731Y244082D01*
X199739Y244044D01*
Y244023D01*
X199735Y243991D01*
X199739Y243979D01*
Y235221D01*
X203904D01*
Y244044D01*
X203906Y244056D01*
X204739D01*
Y236271D01*
X204731Y236232D01*
X204735Y236210D01*
X204732Y236188D01*
X204739Y236037D01*
Y235221D01*
X204774D01*
X204798Y234681D01*
Y230888D01*
X203843Y229933D01*
X203715Y229823D01*
X203490Y229653D01*
X203274Y229510D01*
X203068Y229395D01*
X202872Y229305D01*
X202686Y229239D01*
X202510Y229193D01*
X202341Y229167D01*
X202125Y229156D01*
X202100Y229150D01*
X201165D01*
Y228183D01*
X201158Y228147D01*
X201164Y228116D01*
X201159Y228085D01*
X201165Y228060D01*
Y224696D01*
X201159Y224671D01*
X201164Y224640D01*
X201158Y224609D01*
X201165Y224573D01*
Y223606D01*
X202100D01*
X202125Y223600D01*
X202341Y223589D01*
X202510Y223563D01*
X202686Y223517D01*
X202872Y223451D01*
X203068Y223361D01*
X203274Y223245D01*
X203490Y223103D01*
X203715Y222933D01*
X203843Y222823D01*
X204276Y222390D01*
Y217364D01*
X204263Y217218D01*
X204229Y217008D01*
X204189Y216861D01*
X204183Y216846D01*
X202937D01*
Y208350D01*
X209661D01*
Y216846D01*
X208415D01*
X208409Y216861D01*
X208370Y217008D01*
X208335Y217218D01*
X208322Y217364D01*
Y223228D01*
X208168Y224003D01*
X207730Y224659D01*
X206681Y225708D01*
X206353Y226061D01*
X206120Y226352D01*
X206102Y226378D01*
X206111Y226391D01*
X206591Y226958D01*
X208252Y228619D01*
X208690Y229275D01*
X208844Y230050D01*
Y235221D01*
X208904D01*
Y236194D01*
X208911Y236232D01*
X208904Y236271D01*
Y236292D01*
X208907Y236324D01*
X208904Y236336D01*
Y238038D01*
X208927Y238048D01*
X209073Y238087D01*
X209281Y238122D01*
X209424Y238134D01*
X213700D01*
X218886Y232948D01*
X219543Y232509D01*
X220317Y232355D01*
X220759D01*
X220855Y232348D01*
X221048Y232318D01*
X221116Y232302D01*
Y231382D01*
X231581D01*
Y233367D01*
X231658Y233380D01*
X231748Y233388D01*
X233175D01*
X233858Y233524D01*
X234436Y233911D01*
X245260Y244735D01*
X245647Y245314D01*
X245783Y245996D01*
Y249471D01*
X248443Y252131D01*
X248443Y252131D01*
X248830Y252710D01*
X248966Y253393D01*
X248966Y253393D01*
Y283913D01*
X248966Y283913D01*
X248915Y284168D01*
X249257Y284533D01*
X250276Y284399D01*
X251785Y284598D01*
X253192Y285180D01*
X254400Y286107D01*
X255327Y287316D01*
X255910Y288722D01*
X256109Y290232D01*
X255910Y291742D01*
X255327Y293149D01*
X254400Y294357D01*
X253192Y295284D01*
X251785Y295867D01*
X250276Y296066D01*
X250030Y296033D01*
X249809Y296482D01*
X255613Y302286D01*
X256000Y302865D01*
X256136Y303548D01*
X256136Y303548D01*
Y307737D01*
X256000Y308420D01*
X255774Y308758D01*
X255798Y308830D01*
X255825Y308889D01*
X255848Y308928D01*
X255866Y308951D01*
X255880Y308965D01*
X255949Y309016D01*
X255985Y309056D01*
X256545Y309486D01*
X257167Y310296D01*
X257558Y311240D01*
X257691Y312252D01*
X257558Y313264D01*
X257167Y314208D01*
X256545Y315018D01*
X255735Y315639D01*
X254890Y315989D01*
X254855Y316161D01*
Y316335D01*
X254890Y316507D01*
X255735Y316857D01*
X256545Y317478D01*
X257167Y318288D01*
X257558Y319232D01*
X257691Y320244D01*
X257558Y321256D01*
X257167Y322200D01*
X256545Y323010D01*
X255735Y323632D01*
X254890Y323981D01*
X254855Y324153D01*
Y324327D01*
X254890Y324499D01*
X255735Y324849D01*
X256545Y325470D01*
X257167Y326280D01*
X257558Y327224D01*
X257655Y327967D01*
X257671Y328024D01*
X257681Y328158D01*
X257691Y328236D01*
X257688Y328259D01*
X257694Y328350D01*
X257728Y328629D01*
X257773Y328884D01*
X257828Y329114D01*
X257892Y329320D01*
X257963Y329501D01*
X258040Y329659D01*
X258123Y329796D01*
X258184Y329878D01*
X258269Y329964D01*
X258731Y329772D01*
Y323217D01*
X258867Y322534D01*
X259254Y321955D01*
X261782Y319427D01*
Y304471D01*
X260897Y304203D01*
X259595Y303507D01*
X258453Y302570D01*
X257517Y301429D01*
X256821Y300127D01*
X256392Y298714D01*
X256247Y297244D01*
X256392Y295775D01*
X256821Y294362D01*
X257517Y293059D01*
X258453Y291918D01*
X259595Y290981D01*
X260897Y290285D01*
X261782Y290017D01*
Y214538D01*
X248031Y200787D01*
X212598D01*
X202756Y190945D01*
Y82677D01*
X192913Y72835D01*
X177165D01*
X165354Y84646D01*
X165354Y190945D01*
X149606Y206693D01*
X129921D01*
X118110Y218504D01*
Y234000D01*
X118893D01*
X118961Y233998D01*
X119194Y233976D01*
X119276Y233962D01*
Y233449D01*
X120249D01*
X120288Y233441D01*
X120326Y233449D01*
X123769D01*
X123807Y233441D01*
X123845Y233449D01*
X124819D01*
Y233962D01*
X124889Y233974D01*
X125255Y234000D01*
X128735D01*
X128804Y233998D01*
X129036Y233976D01*
X129118Y233962D01*
Y233449D01*
X130092D01*
X130130Y233441D01*
X130168Y233449D01*
X133611D01*
X133649Y233441D01*
X133688Y233449D01*
X134661D01*
Y233962D01*
X134731Y233974D01*
X135098Y234000D01*
X148060D01*
X148206Y233988D01*
X148415Y233953D01*
X148563Y233913D01*
X148577Y233908D01*
Y231972D01*
X155302D01*
Y240469D01*
X148577D01*
Y238140D01*
X148563Y238134D01*
X148415Y238094D01*
X148206Y238059D01*
X148060Y238047D01*
X135044D01*
X134976Y238049D01*
X134743Y238072D01*
X134661Y238085D01*
Y238598D01*
X133688D01*
X133649Y238606D01*
X133611Y238598D01*
X130168D01*
X130130Y238606D01*
X130092Y238598D01*
X129118D01*
Y238085D01*
X129048Y238074D01*
X128682Y238047D01*
X125202D01*
X125133Y238049D01*
X124901Y238072D01*
X124819Y238085D01*
Y238598D01*
X123845D01*
X123807Y238606D01*
X123769Y238598D01*
X120326D01*
X120288Y238606D01*
X120249Y238598D01*
X119276D01*
Y238085D01*
X119206Y238074D01*
X118839Y238047D01*
X118110D01*
Y261953D01*
X118893D01*
X118961Y261951D01*
X119194Y261928D01*
X119276Y261915D01*
Y261402D01*
X120249D01*
X120288Y261394D01*
X120326Y261402D01*
X123685D01*
X123687Y261401D01*
X123693Y261402D01*
X123769D01*
X123807Y261394D01*
X123845Y261402D01*
X124819D01*
Y261539D01*
X125155Y261560D01*
X129080D01*
X129118Y261558D01*
Y261402D01*
X130092D01*
X130130Y261394D01*
X130168Y261402D01*
X130244D01*
X130250Y261401D01*
X130252Y261402D01*
X133528D01*
X133529Y261401D01*
X133536Y261402D01*
X133611D01*
X133649Y261394D01*
X133688Y261402D01*
X134661D01*
Y261539D01*
X134997Y261560D01*
X148060D01*
X148206Y261547D01*
X148415Y261512D01*
X148563Y261473D01*
X148577Y261467D01*
Y259531D01*
X155302D01*
Y268028D01*
X148577D01*
Y265699D01*
X148563Y265693D01*
X148415Y265653D01*
X148206Y265619D01*
X148060Y265606D01*
X135179D01*
X135037Y265618D01*
X134828Y265652D01*
X134681Y265691D01*
X134661Y265700D01*
Y266551D01*
X133688D01*
X133649Y266559D01*
X133611Y266551D01*
X133562D01*
X133541Y266553D01*
X133535Y266551D01*
X130244D01*
X130238Y266553D01*
X130218Y266551D01*
X130168D01*
X130130Y266559D01*
X130092Y266551D01*
X129118D01*
Y265700D01*
X129098Y265692D01*
X128951Y265652D01*
X128743Y265618D01*
X128601Y265606D01*
X125336D01*
X125194Y265618D01*
X124986Y265652D01*
X124839Y265691D01*
X124819Y265700D01*
Y266551D01*
X123845D01*
X123807Y266559D01*
X123769Y266551D01*
X123719D01*
X123699Y266553D01*
X123693Y266551D01*
X120326D01*
X120288Y266559D01*
X120249Y266551D01*
X119276D01*
Y266038D01*
X119206Y266026D01*
X118839Y266000D01*
X118110D01*
Y306154D01*
X118638Y306559D01*
X119199Y307290D01*
X119552Y308141D01*
X119672Y309055D01*
X119552Y309969D01*
X119199Y310820D01*
X118638Y311551D01*
X118584Y311593D01*
X118520Y311661D01*
X118445Y311756D01*
X118379Y311857D01*
X118321Y311965D01*
X118271Y312082D01*
X118228Y312210D01*
X118194Y312350D01*
X118168Y312503D01*
X118165Y312535D01*
Y342976D01*
X118168Y343009D01*
X118194Y343162D01*
X118228Y343302D01*
X118271Y343430D01*
X118321Y343546D01*
X118379Y343654D01*
X118445Y343755D01*
X118520Y343851D01*
X118584Y343919D01*
X118638Y343960D01*
X119199Y344692D01*
X119552Y345543D01*
X119672Y346457D01*
X119552Y347370D01*
X119199Y348222D01*
X118638Y348953D01*
X118110Y349358D01*
Y377061D01*
X118199Y377150D01*
X119803D01*
X119841Y377142D01*
X119879Y377150D01*
X120853D01*
Y377663D01*
X120923Y377674D01*
X121289Y377701D01*
X126668D01*
X126771Y377694D01*
X126996Y377665D01*
X127120Y377638D01*
Y376953D01*
X128094D01*
X128132Y376945D01*
X128171Y376953D01*
X131614D01*
X131652Y376945D01*
X131690Y376953D01*
X132664D01*
Y377638D01*
X132773Y377661D01*
X133179Y377701D01*
X146091D01*
X146237Y377689D01*
X146447Y377654D01*
X146595Y377614D01*
X146609Y377608D01*
Y375673D01*
X153333D01*
Y384169D01*
X146609D01*
Y381840D01*
X146595Y381835D01*
X146447Y381795D01*
X146237Y381760D01*
X146091Y381748D01*
X132952D01*
X132694Y381760D01*
X132664Y381763D01*
Y382102D01*
X131690D01*
X131652Y382110D01*
X131614Y382102D01*
X128171D01*
X128132Y382110D01*
X128094Y382102D01*
X127120D01*
Y381772D01*
X126744Y381748D01*
X121236D01*
X121167Y381750D01*
X120935Y381772D01*
X120853Y381785D01*
Y382299D01*
X119879D01*
X119841Y382307D01*
X119803Y382299D01*
X118110D01*
Y385417D01*
X120853D01*
Y389517D01*
X120860Y389555D01*
X120853Y389593D01*
Y390567D01*
X120167D01*
X120144Y390676D01*
X120104Y391082D01*
Y391878D01*
X120119Y392057D01*
X120159Y392337D01*
X120214Y392592D01*
X120282Y392823D01*
X120362Y393031D01*
X120379Y393066D01*
X120879D01*
X121113Y393044D01*
X121270Y393017D01*
X121430Y392980D01*
X121581Y392936D01*
X121724Y392885D01*
X121860Y392827D01*
X121990Y392761D01*
X122141Y392673D01*
X122143Y392672D01*
X122222Y392612D01*
X123073Y392259D01*
X123987Y392139D01*
X124900Y392259D01*
X125752Y392612D01*
X126483Y393173D01*
X127044Y393904D01*
X127397Y394756D01*
X127869Y394650D01*
Y390822D01*
X127862Y390720D01*
X127832Y390495D01*
X127806Y390370D01*
X127120D01*
Y389396D01*
X127113Y389358D01*
X127120Y389320D01*
Y385221D01*
X132664D01*
Y389320D01*
X132671Y389358D01*
X132664Y389396D01*
Y390370D01*
X131978D01*
X131955Y390479D01*
X131915Y390886D01*
Y391606D01*
X131941Y391839D01*
X131995Y392124D01*
X132071Y392397D01*
X132167Y392660D01*
X132285Y392914D01*
X132425Y393161D01*
X132588Y393401D01*
X132734Y393583D01*
X132797Y393646D01*
X136255D01*
X136287Y393643D01*
X136440Y393617D01*
X136580Y393583D01*
X136708Y393540D01*
X136824Y393490D01*
X136932Y393432D01*
X137033Y393366D01*
X137129Y393291D01*
X137197Y393227D01*
X137238Y393173D01*
X137970Y392612D01*
X138821Y392259D01*
X139735Y392139D01*
X140648Y392259D01*
X141500Y392612D01*
X142231Y393173D01*
X142792Y393904D01*
X143145Y394756D01*
X143265Y395669D01*
X143145Y396583D01*
X142792Y397434D01*
X142231Y398165D01*
X141500Y398727D01*
X140648Y399079D01*
X139735Y399200D01*
X138821Y399079D01*
X137970Y398727D01*
X137238Y398165D01*
X137197Y398112D01*
X137129Y398048D01*
X137033Y397973D01*
X136932Y397907D01*
X136824Y397849D01*
X136708Y397799D01*
X136580Y397756D01*
X136440Y397722D01*
X136287Y397696D01*
X136255Y397692D01*
X133142D01*
X132671Y397847D01*
X132664Y397885D01*
Y401984D01*
X127120D01*
Y398156D01*
X126620Y397986D01*
X126483Y398165D01*
X125752Y398727D01*
X124900Y399079D01*
X123987Y399200D01*
X123073Y399079D01*
X122222Y398727D01*
X121490Y398165D01*
X121353Y397986D01*
X121240Y397990D01*
X121059Y398016D01*
X120853Y398156D01*
Y402181D01*
X118110D01*
Y405299D01*
X119803D01*
X119841Y405292D01*
X119862Y405296D01*
X119884Y405293D01*
X119911Y405299D01*
X120853D01*
Y405534D01*
X121200Y405556D01*
X127120D01*
Y405102D01*
X131614D01*
X131652Y405095D01*
X131690Y405102D01*
X132664D01*
Y405433D01*
X133040Y405457D01*
X146091D01*
X146237Y405444D01*
X146447Y405410D01*
X146595Y405370D01*
X146609Y405364D01*
Y403232D01*
X153333D01*
Y411728D01*
X146609D01*
Y409596D01*
X146595Y409590D01*
X146447Y409551D01*
X146237Y409516D01*
X146091Y409503D01*
X133116D01*
X133013Y409511D01*
X132789Y409540D01*
X132664Y409567D01*
Y410252D01*
X131690D01*
X131652Y410260D01*
X131614Y410252D01*
X127120D01*
Y409602D01*
X121341D01*
X121215Y409612D01*
X120999Y409644D01*
X120853Y409679D01*
Y410449D01*
X119879D01*
X119841Y410456D01*
X119803Y410449D01*
X119727D01*
X119721Y410449D01*
X119719Y410449D01*
X118110D01*
Y413386D01*
X131890Y427165D01*
X184039Y427165D01*
D02*
G37*
G36*
X202006Y405325D02*
X202065Y405158D01*
X202164Y405010D01*
X202301Y404882D01*
X202479Y404774D01*
X202695Y404685D01*
X202951Y404616D01*
X203246Y404567D01*
X203581Y404537D01*
X203955Y404528D01*
Y402559D01*
X203581Y402549D01*
X203246Y402520D01*
X202951Y402470D01*
X202695Y402402D01*
X202479Y402313D01*
X202301Y402205D01*
X202164Y402077D01*
X202065Y401929D01*
X202006Y401762D01*
X201986Y401575D01*
Y405512D01*
X202006Y405325D01*
D02*
G37*
G36*
X196891Y402233D02*
X196848Y402039D01*
X196858Y401821D01*
X196919Y401579D01*
X197032Y401313D01*
X197197Y401022D01*
X197414Y400708D01*
X197684Y400369D01*
X198005Y400006D01*
X198378Y399618D01*
X196986Y398226D01*
X196714Y398491D01*
X195976Y399117D01*
X195755Y399270D01*
X195547Y399396D01*
X195352Y399493D01*
X195170Y399563D01*
X195001Y399604D01*
X194845Y399618D01*
X196986Y402402D01*
X196891Y402233D01*
D02*
G37*
G36*
X191970Y399599D02*
X191955Y399540D01*
X191942Y399441D01*
X191922Y399126D01*
X191900Y397650D01*
X189931D01*
X189845Y399618D01*
X191986D01*
X191970Y399599D01*
D02*
G37*
G36*
X119693Y398024D02*
X119562Y397965D01*
X119445Y397866D01*
X119344Y397728D01*
X119259Y397551D01*
X119189Y397335D01*
X119135Y397079D01*
X119096Y396784D01*
X119073Y396449D01*
X119065Y396075D01*
X117097D01*
X117089Y396449D01*
X117027Y397079D01*
X116973Y397335D01*
X116903Y397551D01*
X116818Y397728D01*
X116717Y397866D01*
X116601Y397965D01*
X116469Y398024D01*
X116321Y398043D01*
X119841D01*
X119693Y398024D01*
D02*
G37*
G36*
X210784Y393919D02*
X210629Y394065D01*
X210463Y394195D01*
X210287Y394310D01*
X210102Y394409D01*
X209906Y394494D01*
X209699Y394563D01*
X209482Y394616D01*
X209256Y394654D01*
X209018Y394677D01*
X208771Y394685D01*
Y396654D01*
X209018Y396661D01*
X209256Y396684D01*
X209482Y396723D01*
X209699Y396776D01*
X209906Y396845D01*
X210102Y396929D01*
X210287Y397029D01*
X210463Y397144D01*
X210629Y397274D01*
X210784Y397419D01*
Y393919D01*
D02*
G37*
G36*
X137949D02*
X137794Y394065D01*
X137629Y394195D01*
X137453Y394310D01*
X137267Y394409D01*
X137071Y394494D01*
X136864Y394563D01*
X136648Y394616D01*
X136421Y394654D01*
X136184Y394677D01*
X135936Y394685D01*
Y396654D01*
X136184Y396661D01*
X136421Y396684D01*
X136648Y396723D01*
X136864Y396776D01*
X137071Y396845D01*
X137267Y396929D01*
X137453Y397029D01*
X137629Y397144D01*
X137794Y397274D01*
X137949Y397419D01*
Y393919D01*
D02*
G37*
G36*
X171435Y397282D02*
X171494Y397150D01*
X171593Y397034D01*
X171730Y396933D01*
X171908Y396847D01*
X172124Y396778D01*
X172380Y396723D01*
X172675Y396685D01*
X173010Y396661D01*
X173384Y396654D01*
Y394685D01*
X173010Y394677D01*
X172380Y394615D01*
X172124Y394561D01*
X171908Y394491D01*
X171730Y394406D01*
X171593Y394305D01*
X171494Y394189D01*
X171435Y394057D01*
X171416Y393910D01*
Y397429D01*
X171435Y397282D01*
D02*
G37*
G36*
X122656Y393553D02*
X122477Y393658D01*
X122290Y393752D01*
X122096Y393834D01*
X121895Y393906D01*
X121687Y393967D01*
X121471Y394017D01*
X121249Y394055D01*
X120781Y394099D01*
X120536Y394105D01*
X120019Y396074D01*
X120271Y396082D01*
X120506Y396109D01*
X120727Y396153D01*
X120932Y396215D01*
X121122Y396294D01*
X121297Y396392D01*
X121457Y396507D01*
X121601Y396639D01*
X121730Y396789D01*
X121844Y396957D01*
X122656Y393553D01*
D02*
G37*
G36*
X100394Y411417D02*
X104331Y407480D01*
X104331Y391732D01*
X86614Y391732D01*
X80709Y397638D01*
X80709Y403543D01*
X88583Y411417D01*
X100394Y411417D01*
D02*
G37*
G36*
X119877Y394183D02*
X119706Y393954D01*
X119556Y393705D01*
X119426Y393437D01*
X119316Y393150D01*
X119226Y392843D01*
X119156Y392517D01*
X119105Y392172D01*
X119075Y391807D01*
X119067Y391467D01*
X119073Y391149D01*
X119135Y390519D01*
X119189Y390264D01*
X119259Y390047D01*
X119344Y389870D01*
X119445Y389732D01*
X119562Y389634D01*
X119693Y389575D01*
X119841Y389555D01*
X116321D01*
X116469Y389575D01*
X116601Y389634D01*
X116717Y389732D01*
X116818Y389870D01*
X116903Y390047D01*
X116973Y390264D01*
X117027Y390519D01*
X117066Y390815D01*
X117089Y391149D01*
X117097Y391523D01*
X118982D01*
X117097Y393799D01*
X118081D01*
X120067Y394393D01*
X119877Y394183D01*
D02*
G37*
G36*
X130877Y397847D02*
X131652D01*
X131504Y397827D01*
X131373Y397768D01*
X131256Y397670D01*
X131156Y397532D01*
X131070Y397355D01*
X131000Y397138D01*
X130946Y396882D01*
X130934Y396787D01*
X130938Y396749D01*
X130973Y396567D01*
X131016Y396433D01*
X131066Y396345D01*
X131124Y396305D01*
X131190Y396311D01*
X131263Y396365D01*
X132268Y394587D01*
X132004Y394303D01*
X131767Y394007D01*
X131558Y393700D01*
X131377Y393381D01*
X131224Y393051D01*
X131099Y392709D01*
X131002Y392355D01*
X130932Y391990D01*
X130890Y391614D01*
X130878Y391263D01*
X130884Y390953D01*
X130946Y390323D01*
X131000Y390067D01*
X131070Y389850D01*
X131156Y389673D01*
X131256Y389535D01*
X131373Y389437D01*
X131504Y389378D01*
X131652Y389358D01*
X128132D01*
X128280Y389378D01*
X128412Y389437D01*
X128528Y389535D01*
X128629Y389673D01*
X128714Y389850D01*
X128784Y390067D01*
X128838Y390323D01*
X128877Y390618D01*
X128900Y390953D01*
X128908Y391327D01*
X130793D01*
X128908Y393602D01*
X129939Y395878D01*
X128908D01*
X128900Y396252D01*
X128838Y396882D01*
X128784Y397138D01*
X128714Y397355D01*
X128629Y397532D01*
X128528Y397670D01*
X128412Y397768D01*
X128280Y397827D01*
X128132Y397847D01*
X130831D01*
X130876Y397947D01*
X130877Y397847D01*
D02*
G37*
G36*
X228292Y389232D02*
X228080Y389226D01*
X227871Y389201D01*
X227665Y389158D01*
X227463Y389096D01*
X227265Y389017D01*
X227070Y388920D01*
X226879Y388805D01*
X226692Y388671D01*
X226508Y388520D01*
X226328Y388351D01*
X224936Y389743D01*
X225105Y389923D01*
X225256Y390107D01*
X225390Y390294D01*
X225505Y390485D01*
X225602Y390680D01*
X225681Y390878D01*
X225743Y391080D01*
X225786Y391286D01*
X225811Y391495D01*
X225817Y391707D01*
X228292Y389232D01*
D02*
G37*
G36*
X196803Y389772D02*
X196892Y388354D01*
X196920Y388256D01*
X196951Y388197D01*
X196986Y388177D01*
X194845D01*
X194843Y388197D01*
X194841Y388256D01*
X194833Y390145D01*
X196801D01*
X196803Y389772D01*
D02*
G37*
G36*
X191986Y388177D02*
X189845D01*
X189862Y388197D01*
X189876Y388256D01*
X189889Y388354D01*
X189910Y388669D01*
X189931Y390145D01*
X191900D01*
X191986Y388177D01*
D02*
G37*
G36*
X222219Y388347D02*
X222268Y388323D01*
X222350Y388302D01*
X222464Y388283D01*
X222610Y388268D01*
X223246Y388238D01*
X223833Y388232D01*
Y386264D01*
X223523Y386258D01*
X223002Y386208D01*
X222790Y386164D01*
X222610Y386108D01*
X222464Y386040D01*
X222350Y385959D01*
X222268Y385866D01*
X222219Y385760D01*
X222203Y385642D01*
Y388374D01*
X222219Y388347D01*
D02*
G37*
G36*
X218684Y385642D02*
X218664Y385760D01*
X218605Y385866D01*
X218507Y385959D01*
X218369Y386040D01*
X218192Y386108D01*
X217975Y386164D01*
X217719Y386208D01*
X217424Y386239D01*
X216715Y386264D01*
Y388232D01*
X217089Y388234D01*
X218605Y388323D01*
X218664Y388347D01*
X218684Y388374D01*
Y385642D01*
D02*
G37*
G36*
X202006Y385640D02*
X202065Y385472D01*
X202164Y385325D01*
X202301Y385197D01*
X202479Y385089D01*
X202695Y385000D01*
X202951Y384931D01*
X203246Y384882D01*
X203581Y384852D01*
X203955Y384842D01*
Y382874D01*
X203581Y382864D01*
X203246Y382835D01*
X202951Y382785D01*
X202695Y382716D01*
X202479Y382628D01*
X202301Y382520D01*
X202164Y382392D01*
X202065Y382244D01*
X202006Y382077D01*
X201986Y381890D01*
Y385827D01*
X202006Y385640D01*
D02*
G37*
G36*
X220742Y381279D02*
X220787Y381151D01*
X220862Y381039D01*
X220967Y380941D01*
X221102Y380859D01*
X221267Y380791D01*
X221462Y380739D01*
X221687Y380701D01*
X221942Y380679D01*
X222227Y380671D01*
Y379171D01*
X221942Y379164D01*
X221687Y379141D01*
X221462Y379104D01*
X221267Y379051D01*
X221102Y378984D01*
X220967Y378901D01*
X220862Y378804D01*
X220787Y378691D01*
X220742Y378564D01*
X220727Y378421D01*
Y381421D01*
X220742Y381279D01*
D02*
G37*
G36*
X201970Y380307D02*
X201955Y380248D01*
X201942Y380150D01*
X201922Y379835D01*
X201900Y378359D01*
X199932D01*
X199845Y380327D01*
X201986D01*
X201970Y380307D01*
D02*
G37*
G36*
X212298Y378236D02*
X212279Y378393D01*
X212224Y378534D01*
X212133Y378658D01*
X212005Y378766D01*
X211841Y378857D01*
X211640Y378931D01*
X211403Y378989D01*
X211130Y379030D01*
X210820Y379055D01*
X210474Y379063D01*
Y381032D01*
X210819Y381039D01*
X211398Y381099D01*
X211634Y381152D01*
X211833Y381219D01*
X211996Y381301D01*
X212123Y381398D01*
X212213Y381510D01*
X212268Y381637D01*
X212286Y381779D01*
X212298Y378236D01*
D02*
G37*
G36*
X119860Y381177D02*
X119920Y381079D01*
X120018Y380992D01*
X120156Y380917D01*
X120333Y380853D01*
X120549Y380801D01*
X120805Y380761D01*
X121101Y380732D01*
X121809Y380709D01*
Y378740D01*
X121435Y378734D01*
X120805Y378688D01*
X120549Y378648D01*
X120333Y378595D01*
X120156Y378532D01*
X120018Y378457D01*
X119920Y378370D01*
X119860Y378272D01*
X119841Y378162D01*
Y381287D01*
X119860Y381177D01*
D02*
G37*
G36*
X131671Y381018D02*
X131730Y380953D01*
X131829Y380896D01*
X131967Y380846D01*
X132144Y380804D01*
X132360Y380770D01*
X132616Y380743D01*
X133246Y380713D01*
X133620Y380709D01*
Y378740D01*
X133246Y378732D01*
X132616Y378670D01*
X132360Y378616D01*
X132144Y378546D01*
X131967Y378461D01*
X131829Y378360D01*
X131730Y378244D01*
X131671Y378112D01*
X131652Y377965D01*
Y381090D01*
X131671Y381018D01*
D02*
G37*
G36*
X128132Y377965D02*
X128113Y378112D01*
X128054Y378244D01*
X127955Y378360D01*
X127817Y378461D01*
X127640Y378546D01*
X127424Y378616D01*
X127168Y378670D01*
X126873Y378709D01*
X126538Y378732D01*
X126164Y378740D01*
Y380709D01*
X126538Y380713D01*
X127424Y380770D01*
X127640Y380804D01*
X127817Y380846D01*
X127955Y380896D01*
X128054Y380953D01*
X128113Y381018D01*
X128132Y381090D01*
Y377965D01*
D02*
G37*
G36*
X147633Y377756D02*
X147613Y377943D01*
X147553Y378110D01*
X147454Y378258D01*
X147316Y378386D01*
X147137Y378494D01*
X146920Y378583D01*
X146662Y378652D01*
X146365Y378701D01*
X146028Y378730D01*
X145652Y378740D01*
Y380709D01*
X146028Y380718D01*
X146365Y380748D01*
X146662Y380797D01*
X146920Y380866D01*
X147137Y380955D01*
X147316Y381063D01*
X147454Y381191D01*
X147553Y381339D01*
X147613Y381506D01*
X147633Y381693D01*
Y377756D01*
D02*
G37*
G36*
X240455Y372225D02*
X240445Y372226D01*
X240426Y372218D01*
X240400Y372201D01*
X240366Y372175D01*
X240275Y372096D01*
X239999Y371830D01*
X238938Y372891D01*
X239654Y373579D01*
X240455Y372225D01*
D02*
G37*
G36*
X240079Y370310D02*
X240426Y370002D01*
X240445Y369995D01*
X240455Y369996D01*
X239654Y368641D01*
X238938Y369330D01*
X239999Y370391D01*
X240079Y370310D01*
D02*
G37*
G36*
X90551Y383858D02*
X104331D01*
X106299Y381890D01*
Y370079D01*
X104331Y368110D01*
X86614D01*
X67913Y386811D01*
Y394685D01*
X69882Y396654D01*
X77756D01*
X90551Y383858D01*
D02*
G37*
G36*
X198427Y371838D02*
X198039Y371436D01*
X197428Y370714D01*
X197205Y370394D01*
X197038Y370102D01*
X196927Y369837D01*
X196909Y369761D01*
X197035Y369888D01*
X197033Y369856D01*
X197063Y369797D01*
X197123Y369709D01*
X197216Y369594D01*
X197680Y369082D01*
X198427Y368319D01*
X197035Y366927D01*
X196753Y367208D01*
X195498Y368321D01*
X195467Y368319D01*
X196623Y369475D01*
X194303Y371838D01*
X194572Y371852D01*
X194841Y371894D01*
X195112Y371964D01*
X195384Y372061D01*
X195656Y372186D01*
X195930Y372340D01*
X196205Y372520D01*
X196481Y372729D01*
X196757Y372966D01*
X197035Y373230D01*
X198427Y371838D01*
D02*
G37*
G36*
X199390Y363096D02*
X199420Y362759D01*
X199469Y362462D01*
X199538Y362205D01*
X199626Y361987D01*
X199735Y361809D01*
X199863Y361670D01*
X200010Y361571D01*
X200178Y361511D01*
X200365Y361492D01*
X196428D01*
X196615Y361511D01*
X196782Y361571D01*
X196930Y361670D01*
X197057Y361809D01*
X197166Y361987D01*
X197254Y362205D01*
X197323Y362462D01*
X197372Y362759D01*
X197402Y363096D01*
X197412Y363472D01*
X199380D01*
X199390Y363096D01*
D02*
G37*
G36*
X117746Y344516D02*
X117616Y344351D01*
X117501Y344175D01*
X117402Y343989D01*
X117317Y343793D01*
X117248Y343586D01*
X117195Y343370D01*
X117157Y343143D01*
X117134Y342906D01*
X117126Y342659D01*
X115157D01*
X115150Y342906D01*
X115127Y343143D01*
X115089Y343370D01*
X115035Y343586D01*
X114966Y343793D01*
X114882Y343989D01*
X114782Y344175D01*
X114667Y344351D01*
X114537Y344516D01*
X114392Y344671D01*
X117892D01*
X117746Y344516D01*
D02*
G37*
G36*
X257579Y330736D02*
X257419Y330559D01*
X257274Y330363D01*
X257144Y330147D01*
X257029Y329912D01*
X256929Y329658D01*
X256844Y329384D01*
X256774Y329091D01*
X256719Y328779D01*
X256679Y328447D01*
X256654Y328096D01*
X253977Y331107D01*
X254315Y331094D01*
X254636Y331099D01*
X254939Y331125D01*
X255225Y331171D01*
X255495Y331236D01*
X255747Y331322D01*
X255981Y331427D01*
X256199Y331552D01*
X256399Y331697D01*
X256583Y331861D01*
X257579Y330736D01*
D02*
G37*
G36*
X244298Y318634D02*
X244463Y318490D01*
X244536Y318437D01*
X244603Y318396D01*
X244662Y318367D01*
X244715Y318350D01*
X244761Y318346D01*
X244800Y318354D01*
X244832Y318374D01*
X243933Y316723D01*
X243929Y316755D01*
X243909Y316802D01*
X243871Y316862D01*
X243817Y316936D01*
X243659Y317124D01*
X243298Y317508D01*
X243144Y317664D01*
X244204Y318724D01*
X244298Y318634D01*
D02*
G37*
G36*
X117134Y312606D02*
X117157Y312369D01*
X117195Y312142D01*
X117248Y311925D01*
X117317Y311719D01*
X117402Y311523D01*
X117501Y311337D01*
X117616Y311161D01*
X117746Y310996D01*
X117892Y310841D01*
X114392D01*
X114537Y310996D01*
X114667Y311161D01*
X114782Y311337D01*
X114882Y311523D01*
X114966Y311719D01*
X115035Y311925D01*
X115089Y312142D01*
X115127Y312369D01*
X115150Y312606D01*
X115157Y312853D01*
X117126D01*
X117134Y312606D01*
D02*
G37*
G36*
X255215Y309740D02*
X255103Y309631D01*
X255005Y309505D01*
X254920Y309362D01*
X254848Y309202D01*
X254789Y309026D01*
X254743Y308833D01*
X254710Y308624D01*
X254691Y308397D01*
X254684Y308155D01*
X253184D01*
X253177Y308381D01*
X253156Y308592D01*
X253121Y308786D01*
X253073Y308963D01*
X253010Y309124D01*
X252934Y309268D01*
X252843Y309396D01*
X252739Y309507D01*
X252620Y309602D01*
X252488Y309680D01*
X255339Y309833D01*
X255215Y309740D01*
D02*
G37*
G36*
X249555Y309031D02*
X249610Y308950D01*
X249683Y308878D01*
X249772Y308815D01*
X249878Y308763D01*
X250001Y308719D01*
X250140Y308686D01*
X250297Y308662D01*
X250470Y308647D01*
X250660Y308643D01*
Y307143D01*
X250432Y307138D01*
X250030Y307105D01*
X249857Y307077D01*
X249703Y307039D01*
X249567Y306994D01*
X249450Y306940D01*
X249352Y306878D01*
X249272Y306808D01*
X249212Y306730D01*
X249516Y309122D01*
X249555Y309031D01*
D02*
G37*
G36*
X249546Y295128D02*
X249682Y295008D01*
X249931Y295025D01*
X250171Y294960D01*
X250276Y294974D01*
X251503Y294812D01*
X252646Y294339D01*
X253628Y293585D01*
X254382Y292603D01*
X254856Y291459D01*
X255017Y290232D01*
X254856Y289005D01*
X254382Y287861D01*
X253628Y286879D01*
X252646Y286126D01*
X251503Y285652D01*
X250276Y285491D01*
X249398Y285606D01*
X249308Y285582D01*
X249221Y285615D01*
X248919Y285478D01*
X248598Y285392D01*
X247179Y286595D01*
X245636Y288137D01*
Y292154D01*
X247670Y294187D01*
X249371Y295175D01*
X249546Y295128D01*
D02*
G37*
G36*
X80709Y295276D02*
Y285433D01*
X78740Y283465D01*
X72835D01*
X66929Y289370D01*
X57087Y289370D01*
X41339Y273622D01*
X41339Y206693D01*
X88583Y159449D01*
X149606D01*
X159449Y149606D01*
Y141732D01*
X155512Y137795D01*
X94488D01*
X84646Y147638D01*
X77179Y155105D01*
X76926Y156158D01*
X76300Y157668D01*
X75446Y159063D01*
X74384Y160306D01*
X73140Y161369D01*
X71746Y162223D01*
X70235Y162849D01*
X69182Y163102D01*
X29528Y202756D01*
X29528Y279527D01*
X49213Y299213D01*
X76772D01*
X80709Y295276D01*
D02*
G37*
G36*
X206112Y282189D02*
X205945Y282130D01*
X205797Y282031D01*
X205669Y281892D01*
X205561Y281714D01*
X205472Y281496D01*
X205403Y281239D01*
X205354Y280942D01*
X205325Y280605D01*
X205315Y280228D01*
X203346D01*
X203337Y280605D01*
X203307Y280942D01*
X203258Y281239D01*
X203189Y281496D01*
X203100Y281714D01*
X202992Y281892D01*
X202864Y282031D01*
X202716Y282130D01*
X202549Y282189D01*
X202362Y282209D01*
X206299D01*
X206112Y282189D01*
D02*
G37*
G36*
X66929Y285433D02*
Y277559D01*
X65569Y276199D01*
X64682Y276710D01*
X63550Y277014D01*
X62376D01*
X61243Y276710D01*
X60228Y276124D01*
X59398Y275294D01*
X58812Y274278D01*
X58508Y273146D01*
Y271973D01*
X58812Y270840D01*
X59324Y269953D01*
X55118Y265748D01*
Y218504D01*
X58544Y215078D01*
X58925Y213905D01*
X59667Y212448D01*
X60629Y211125D01*
X61785Y209969D01*
X63108Y209008D01*
X64565Y208265D01*
X65738Y207884D01*
X80709Y192913D01*
X127953D01*
X129921Y190945D01*
Y177165D01*
X127953Y175197D01*
X104331D01*
X102362Y177165D01*
X78740D01*
X45276Y210630D01*
X45276Y273622D01*
X59055Y287402D01*
X64961D01*
X66929Y285433D01*
D02*
G37*
G36*
X204333Y275382D02*
X203944Y274979D01*
X203334Y274258D01*
X203112Y273939D01*
X202945Y273647D01*
X202934Y273622D01*
X202944Y273599D01*
X203111Y273307D01*
X203333Y272987D01*
X203611Y272640D01*
X204333Y271862D01*
X202941Y270470D01*
X202663Y270735D01*
X202386Y270972D01*
X202110Y271180D01*
X201835Y271361D01*
X201562Y271514D01*
X201289Y271640D01*
X201017Y271737D01*
X200747Y271807D01*
X200477Y271849D01*
X200209Y271862D01*
X201937Y273623D01*
X200209Y275382D01*
X200477Y275396D01*
X200747Y275437D01*
X201017Y275507D01*
X201289Y275604D01*
X201562Y275730D01*
X201835Y275883D01*
X202110Y276064D01*
X202386Y276273D01*
X202663Y276509D01*
X202941Y276774D01*
X204333Y275382D01*
D02*
G37*
G36*
X207892Y263374D02*
X205751D01*
X205767Y263393D01*
X205782Y263453D01*
X205795Y263551D01*
X205815Y263866D01*
X205837Y265342D01*
X207805D01*
X207892Y263374D01*
D02*
G37*
G36*
X133669Y265354D02*
X133728Y265189D01*
X133827Y265043D01*
X133964Y264917D01*
X134142Y264810D01*
X134358Y264722D01*
X134614Y264654D01*
X134909Y264606D01*
X135244Y264577D01*
X135618Y264567D01*
Y262598D01*
X135244Y262597D01*
X133827Y262508D01*
X133728Y262480D01*
X133669Y262449D01*
X133649Y262414D01*
Y265539D01*
X133669Y265354D01*
D02*
G37*
G36*
X130130Y262414D02*
X130110Y262449D01*
X130051Y262480D01*
X129953Y262508D01*
X129815Y262532D01*
X129638Y262552D01*
X128870Y262591D01*
X128162Y262598D01*
Y264567D01*
X128536Y264577D01*
X128870Y264606D01*
X129166Y264654D01*
X129421Y264722D01*
X129638Y264810D01*
X129815Y264917D01*
X129953Y265043D01*
X130051Y265189D01*
X130110Y265354D01*
X130130Y265539D01*
Y262414D01*
D02*
G37*
G36*
X123827Y265354D02*
X123886Y265189D01*
X123984Y265043D01*
X124122Y264917D01*
X124299Y264810D01*
X124516Y264722D01*
X124771Y264654D01*
X125067Y264606D01*
X125401Y264577D01*
X125775Y264567D01*
Y262598D01*
X125401Y262597D01*
X123984Y262508D01*
X123886Y262480D01*
X123827Y262449D01*
X123807Y262414D01*
Y265539D01*
X123827Y265354D01*
D02*
G37*
G36*
X120288Y262414D02*
X120268Y262524D01*
X120209Y262622D01*
X120110Y262709D01*
X119973Y262784D01*
X119796Y262847D01*
X119579Y262900D01*
X119323Y262940D01*
X119028Y262969D01*
X118319Y262992D01*
Y264961D01*
X118693Y264966D01*
X119323Y265013D01*
X119579Y265053D01*
X119796Y265105D01*
X119973Y265169D01*
X120110Y265244D01*
X120209Y265331D01*
X120268Y265429D01*
X120288Y265539D01*
Y262414D01*
D02*
G37*
G36*
X230584Y265137D02*
X230629Y265009D01*
X230704Y264897D01*
X230809Y264799D01*
X230944Y264717D01*
X231109Y264650D01*
X231304Y264597D01*
X231529Y264560D01*
X231784Y264537D01*
X232069Y264529D01*
Y263030D01*
X231784Y263022D01*
X231529Y263000D01*
X231304Y262962D01*
X231109Y262910D01*
X230944Y262842D01*
X230809Y262759D01*
X230704Y262662D01*
X230629Y262549D01*
X230584Y262422D01*
X230569Y262280D01*
Y265280D01*
X230584Y265137D01*
D02*
G37*
G36*
X222129Y261921D02*
X222109Y262087D01*
X222050Y262236D01*
X221951Y262367D01*
X221814Y262481D01*
X221636Y262577D01*
X221420Y262655D01*
X221164Y262717D01*
X220869Y262760D01*
X220534Y262787D01*
X220160Y262795D01*
Y264764D01*
X220534Y264773D01*
X220869Y264799D01*
X221164Y264842D01*
X221420Y264904D01*
X221636Y264982D01*
X221814Y265078D01*
X221951Y265192D01*
X222050Y265323D01*
X222109Y265472D01*
X222129Y265638D01*
Y261921D01*
D02*
G37*
G36*
X149601Y261614D02*
X149581Y261801D01*
X149522Y261968D01*
X149423Y262116D01*
X149284Y262244D01*
X149106Y262352D01*
X148888Y262441D01*
X148631Y262510D01*
X148334Y262559D01*
X147997Y262589D01*
X147621Y262598D01*
Y264567D01*
X147997Y264577D01*
X148334Y264606D01*
X148631Y264655D01*
X148888Y264724D01*
X149106Y264813D01*
X149284Y264921D01*
X149423Y265049D01*
X149522Y265197D01*
X149581Y265364D01*
X149601Y265551D01*
Y261614D01*
D02*
G37*
G36*
X207912Y263264D02*
X207971Y263165D01*
X208069Y263079D01*
X208207Y263003D01*
X208384Y262940D01*
X208601Y262888D01*
X208857Y262847D01*
X209152Y262818D01*
X209860Y262795D01*
Y260827D01*
X209486Y260817D01*
X209152Y260787D01*
X208857Y260738D01*
X208601Y260669D01*
X208384Y260581D01*
X208207Y260472D01*
X208069Y260345D01*
X207971Y260197D01*
X207912Y260030D01*
X207892Y259842D01*
Y263374D01*
X207912Y263264D01*
D02*
G37*
G36*
X202875Y255504D02*
X202861Y255445D01*
X202848Y255347D01*
X202827Y255032D01*
X202805Y253555D01*
X200837D01*
X200751Y255524D01*
X202892D01*
X202875Y255504D01*
D02*
G37*
G36*
X197875D02*
X197861Y255445D01*
X197848Y255347D01*
X197827Y255032D01*
X197806Y253555D01*
X195837D01*
X195751Y255524D01*
X197892D01*
X197875Y255504D01*
D02*
G37*
G36*
X216689Y250219D02*
X216534Y250364D01*
X216369Y250494D01*
X216193Y250609D01*
X216007Y250709D01*
X215811Y250793D01*
X215605Y250862D01*
X215388Y250915D01*
X215161Y250954D01*
X214924Y250977D01*
X214677Y250984D01*
Y252953D01*
X214924Y252960D01*
X215161Y252983D01*
X215388Y253022D01*
X215605Y253075D01*
X215811Y253144D01*
X216007Y253228D01*
X216193Y253328D01*
X216369Y253443D01*
X216534Y253573D01*
X216689Y253718D01*
Y250219D01*
D02*
G37*
G36*
X177341Y251612D02*
X177400Y251481D01*
X177498Y251364D01*
X177636Y251263D01*
X177813Y251178D01*
X178030Y251108D01*
X178286Y251054D01*
X178581Y251015D01*
X178916Y250992D01*
X179290Y250984D01*
Y249016D01*
X178916Y249008D01*
X178286Y248946D01*
X178030Y248892D01*
X177813Y248822D01*
X177636Y248737D01*
X177498Y248636D01*
X177400Y248519D01*
X177341Y248388D01*
X177321Y248240D01*
Y251760D01*
X177341Y251612D01*
D02*
G37*
G36*
X96457Y265748D02*
X104331Y257874D01*
Y255699D01*
X104530Y255500D01*
X104331Y255294D01*
Y246063D01*
X86614Y246063D01*
X80709Y251969D01*
X80709Y257874D01*
X88583Y265748D01*
X96457Y265748D01*
D02*
G37*
G36*
X202892Y244082D02*
X200750D01*
X200767Y244102D01*
X200782Y244161D01*
X200795Y244260D01*
X200815Y244575D01*
X200837Y246051D01*
X202805D01*
X202892Y244082D01*
D02*
G37*
G36*
X197892D02*
X195750D01*
X195767Y244102D01*
X195782Y244161D01*
X195795Y244260D01*
X195815Y244575D01*
X195837Y246051D01*
X197806D01*
X197892Y244082D01*
D02*
G37*
G36*
X207912Y241939D02*
X207971Y241772D01*
X208069Y241624D01*
X208207Y241496D01*
X208384Y241388D01*
X208601Y241299D01*
X208857Y241230D01*
X209152Y241181D01*
X209486Y241152D01*
X209860Y241142D01*
Y239173D01*
X209486Y239163D01*
X209152Y239134D01*
X208857Y239085D01*
X208601Y239016D01*
X208384Y238927D01*
X208207Y238819D01*
X208069Y238691D01*
X207971Y238543D01*
X207912Y238376D01*
X207892Y238189D01*
Y242126D01*
X207912Y241939D01*
D02*
G37*
G36*
X133669Y237476D02*
X133728Y237378D01*
X133827Y237291D01*
X133964Y237216D01*
X134142Y237153D01*
X134358Y237100D01*
X134614Y237060D01*
X134909Y237031D01*
X135618Y237008D01*
Y235039D01*
X135244Y235034D01*
X134614Y234987D01*
X134358Y234947D01*
X134142Y234895D01*
X133964Y234831D01*
X133827Y234756D01*
X133728Y234669D01*
X133669Y234571D01*
X133649Y234461D01*
Y237586D01*
X133669Y237476D01*
D02*
G37*
G36*
X130130Y234461D02*
X130110Y234571D01*
X130051Y234669D01*
X129953Y234756D01*
X129815Y234831D01*
X129638Y234895D01*
X129421Y234947D01*
X129166Y234987D01*
X128870Y235016D01*
X128162Y235039D01*
Y237008D01*
X128536Y237014D01*
X129166Y237060D01*
X129421Y237100D01*
X129638Y237153D01*
X129815Y237216D01*
X129953Y237291D01*
X130051Y237378D01*
X130110Y237476D01*
X130130Y237586D01*
Y234461D01*
D02*
G37*
G36*
X123827Y237476D02*
X123886Y237378D01*
X123984Y237291D01*
X124122Y237216D01*
X124299Y237153D01*
X124516Y237100D01*
X124771Y237060D01*
X125067Y237031D01*
X125775Y237008D01*
Y235039D01*
X125401Y235034D01*
X124771Y234987D01*
X124516Y234947D01*
X124299Y234895D01*
X124122Y234831D01*
X123984Y234756D01*
X123886Y234669D01*
X123827Y234571D01*
X123807Y234461D01*
Y237586D01*
X123827Y237476D01*
D02*
G37*
G36*
X120288Y234461D02*
X120268Y234571D01*
X120209Y234669D01*
X120110Y234756D01*
X119973Y234831D01*
X119796Y234895D01*
X119579Y234947D01*
X119323Y234987D01*
X119028Y235016D01*
X118319Y235039D01*
Y237008D01*
X118693Y237014D01*
X119323Y237060D01*
X119579Y237100D01*
X119796Y237153D01*
X119973Y237216D01*
X120110Y237291D01*
X120209Y237378D01*
X120268Y237476D01*
X120288Y237586D01*
Y234461D01*
D02*
G37*
G36*
X207875Y236213D02*
X207861Y236154D01*
X207848Y236055D01*
X207827Y235740D01*
X207805Y234264D01*
X205837D01*
X205751Y236232D01*
X207892D01*
X207875Y236213D01*
D02*
G37*
G36*
X149601Y234055D02*
X149581Y234242D01*
X149522Y234409D01*
X149423Y234557D01*
X149284Y234685D01*
X149106Y234793D01*
X148888Y234882D01*
X148631Y234951D01*
X148334Y235000D01*
X147997Y235030D01*
X147621Y235039D01*
Y237008D01*
X147997Y237018D01*
X148334Y237047D01*
X148631Y237096D01*
X148888Y237165D01*
X149106Y237254D01*
X149284Y237362D01*
X149423Y237490D01*
X149522Y237638D01*
X149581Y237805D01*
X149601Y237992D01*
Y234055D01*
D02*
G37*
G36*
X230584Y236074D02*
X230629Y236042D01*
X230704Y236014D01*
X230809Y235990D01*
X230944Y235969D01*
X231304Y235939D01*
X232069Y235922D01*
Y234422D01*
X231784Y234415D01*
X231529Y234392D01*
X231304Y234355D01*
X231109Y234302D01*
X230944Y234235D01*
X230809Y234152D01*
X230704Y234055D01*
X230629Y233942D01*
X230584Y233815D01*
X230569Y233672D01*
Y236110D01*
X230584Y236074D01*
D02*
G37*
G36*
X222141Y232567D02*
X222122Y232724D01*
X222067Y232865D01*
X221975Y232989D01*
X221847Y233096D01*
X221683Y233187D01*
X221483Y233262D01*
X221246Y233320D01*
X220972Y233361D01*
X220663Y233386D01*
X220317Y233394D01*
Y235363D01*
X220661Y235370D01*
X221241Y235430D01*
X221476Y235482D01*
X221676Y235549D01*
X221839Y235632D01*
X221966Y235729D01*
X222056Y235841D01*
X222110Y235968D01*
X222129Y236110D01*
X222141Y232567D01*
D02*
G37*
G36*
X206301Y228138D02*
X205913Y227735D01*
X205302Y227013D01*
X205079Y226693D01*
X204912Y226401D01*
X204903Y226378D01*
X204913Y226353D01*
X205080Y226061D01*
X205302Y225742D01*
X205580Y225395D01*
X206301Y224618D01*
X204909Y223226D01*
X204631Y223491D01*
X204355Y223727D01*
X204079Y223936D01*
X203804Y224117D01*
X203530Y224270D01*
X203258Y224396D01*
X202986Y224493D01*
X202715Y224563D01*
X202446Y224604D01*
X202177Y224618D01*
X203905Y226377D01*
X202177Y228138D01*
X202446Y228151D01*
X202715Y228193D01*
X202986Y228263D01*
X203258Y228360D01*
X203530Y228486D01*
X203804Y228639D01*
X204079Y228820D01*
X204355Y229029D01*
X204631Y229265D01*
X204909Y229530D01*
X206301Y228138D01*
D02*
G37*
G36*
X90551Y238189D02*
X104331D01*
X106299Y236221D01*
Y224410D01*
X104331Y222441D01*
X86614D01*
X67913Y241142D01*
Y249016D01*
X69882Y250984D01*
X77756D01*
X90551Y238189D01*
D02*
G37*
G36*
X207293Y217427D02*
X207323Y217090D01*
X207372Y216793D01*
X207441Y216535D01*
X207529Y216318D01*
X207638Y216139D01*
X207766Y216001D01*
X207913Y215902D01*
X208081Y215842D01*
X208268Y215823D01*
X204331D01*
X204518Y215842D01*
X204685Y215902D01*
X204833Y216001D01*
X204961Y216139D01*
X205069Y216318D01*
X205157Y216535D01*
X205226Y216793D01*
X205276Y217090D01*
X205305Y217427D01*
X205315Y217803D01*
X207283D01*
X207293Y217427D01*
D02*
G37*
G36*
X129200Y205972D02*
X129531Y205751D01*
X129921Y205673D01*
X140783D01*
X153543Y192913D01*
Y173228D01*
X141732Y161417D01*
X104331D01*
X102362Y163386D01*
Y171260D01*
X104331Y173228D01*
X131890Y173228D01*
X133858Y175197D01*
X133858Y191295D01*
X125984Y199169D01*
Y206693D01*
X128479D01*
X129200Y205972D01*
D02*
G37*
G36*
X64883Y86874D02*
X64952Y86051D01*
X65015Y85681D01*
X65098Y85338D01*
X65200Y85024D01*
X65322Y84737D01*
X65463Y84478D01*
X65624Y84246D01*
X65804Y84042D01*
X64744Y82982D01*
X64540Y83162D01*
X64308Y83322D01*
X64049Y83464D01*
X63762Y83586D01*
X63447Y83688D01*
X63105Y83771D01*
X62735Y83834D01*
X62337Y83878D01*
X61911Y83903D01*
X61458Y83908D01*
X64878Y87328D01*
X64883Y86874D01*
D02*
G37*
%LPC*%
G36*
X221920Y644904D02*
X217923D01*
X215096Y642077D01*
Y638874D01*
X187053D01*
X187053Y638874D01*
X186670Y638715D01*
X185347Y639315D01*
X184746Y639799D01*
Y642077D01*
X181920Y644904D01*
X177923D01*
X175096Y642077D01*
Y638080D01*
X177923Y635254D01*
X180201D01*
X181016Y633285D01*
X174632Y626901D01*
X174632Y626901D01*
X174315Y626135D01*
X174315Y626135D01*
Y602930D01*
X174410Y602700D01*
X174426Y602451D01*
X174562Y602332D01*
X174632Y602165D01*
X174862Y602069D01*
X175049Y601905D01*
X175096Y601889D01*
Y598269D01*
X175049Y598252D01*
X174862Y598088D01*
X174632Y597993D01*
X174562Y597826D01*
X174426Y597706D01*
X174410Y597458D01*
X174315Y597228D01*
Y594412D01*
X174315Y594412D01*
X174632Y593646D01*
X174632Y593646D01*
X182500Y585778D01*
X183265Y585461D01*
X183265Y585461D01*
X186205D01*
Y585024D01*
X191748D01*
Y585461D01*
X201953D01*
Y585024D01*
X207496D01*
Y585461D01*
X217701Y585461D01*
Y585024D01*
X223244D01*
Y585461D01*
X231932D01*
X232370Y585461D01*
X232370Y585461D01*
X233135Y585778D01*
X233452Y586544D01*
X233452Y586544D01*
X233452Y586981D01*
X233452Y637791D01*
X233135Y638557D01*
X232370Y638874D01*
X224746D01*
Y642077D01*
X221920Y644904D01*
D02*
G37*
G36*
X74444Y604557D02*
X70753D01*
X68144Y601948D01*
Y598257D01*
X70753Y595648D01*
X74444D01*
X77053Y598257D01*
Y601948D01*
X74444Y604557D01*
D02*
G37*
G36*
X63262Y599100D02*
X59572D01*
X56963Y596491D01*
Y592801D01*
X59572Y590191D01*
X63262D01*
X65872Y592801D01*
Y596491D01*
X63262Y599100D01*
D02*
G37*
G36*
X74444Y593652D02*
X70753D01*
X68144Y591042D01*
Y587352D01*
X70753Y584742D01*
X74444D01*
X77053Y587352D01*
Y591042D01*
X74444Y593652D01*
D02*
G37*
G36*
X63262Y588195D02*
X59572D01*
X56963Y585585D01*
Y581895D01*
X59572Y579285D01*
X63262D01*
X65872Y581895D01*
Y585585D01*
X63262Y588195D01*
D02*
G37*
G36*
X74444Y582742D02*
X70753D01*
X68144Y580133D01*
Y576442D01*
X70753Y573833D01*
X74444D01*
X77053Y576442D01*
Y580133D01*
X74444Y582742D01*
D02*
G37*
G36*
X63262Y577289D02*
X59572D01*
X56963Y574680D01*
Y570990D01*
X59572Y568380D01*
X63262D01*
X65872Y570990D01*
Y574680D01*
X63262Y577289D01*
D02*
G37*
G36*
X222005Y574038D02*
X218007D01*
X215181Y571211D01*
Y567214D01*
X218007Y564388D01*
X222005D01*
X224831Y567214D01*
Y571211D01*
X222005Y574038D01*
D02*
G37*
G36*
X182005D02*
X178007D01*
X175181Y571211D01*
Y567214D01*
X178007Y564388D01*
X182005D01*
X184831Y567214D01*
Y571211D01*
X182005Y574038D01*
D02*
G37*
G36*
X74444Y571837D02*
X70753D01*
X68144Y569227D01*
Y565537D01*
X70753Y562927D01*
X74444D01*
X77053Y565537D01*
Y569227D01*
X74444Y571837D01*
D02*
G37*
G36*
X63262Y566384D02*
X59572D01*
X56963Y563774D01*
Y560084D01*
X59572Y557474D01*
X63262D01*
X65872Y560084D01*
Y563774D01*
X63262Y566384D01*
D02*
G37*
G36*
X77053Y560931D02*
X68144D01*
Y552022D01*
X77053D01*
Y560931D01*
D02*
G37*
G36*
X222005Y534038D02*
X218007D01*
X215181Y531211D01*
Y527214D01*
X218007Y524388D01*
X222005D01*
X224831Y527214D01*
Y531211D01*
X222005Y534038D01*
D02*
G37*
G36*
X182005D02*
X178007D01*
X175181Y531211D01*
Y527214D01*
X178007Y524388D01*
X182005D01*
X184831Y527214D01*
Y531211D01*
X182005Y534038D01*
D02*
G37*
G36*
X238265Y469504D02*
X234175D01*
X231283Y466612D01*
Y462522D01*
X234175Y459630D01*
X238265D01*
X241158Y462522D01*
Y466612D01*
X238265Y469504D01*
D02*
G37*
G36*
X63262Y413313D02*
X59572D01*
X56963Y410704D01*
Y407013D01*
X59572Y404403D01*
X63262D01*
X65872Y407013D01*
Y410704D01*
X63262Y413313D01*
D02*
G37*
G36*
X75989Y271561D02*
X72299D01*
X69689Y268952D01*
Y265261D01*
X72299Y262652D01*
X75989D01*
X78599Y265261D01*
Y268952D01*
X75989Y271561D01*
D02*
G37*
G36*
X64808Y266108D02*
X61118D01*
X58508Y263499D01*
Y259808D01*
X61118Y257199D01*
X64808D01*
X67418Y259808D01*
Y263499D01*
X64808Y266108D01*
D02*
G37*
G36*
X217557Y150606D02*
X213467D01*
X210575Y147714D01*
Y143624D01*
X213467Y140732D01*
X217557D01*
X220449Y143624D01*
Y147714D01*
X217557Y150606D01*
D02*
G37*
G36*
X74450Y129990D02*
X70759D01*
X68150Y127381D01*
Y123690D01*
X70759Y121081D01*
X74450D01*
X77060Y123690D01*
Y127381D01*
X74450Y129990D01*
D02*
G37*
G36*
X63269Y124533D02*
X59578D01*
X56969Y121924D01*
Y118234D01*
X59578Y115624D01*
X63269D01*
X65878Y118234D01*
Y121924D01*
X63269Y124533D01*
D02*
G37*
G36*
X74450Y119085D02*
X70759D01*
X68150Y116475D01*
Y112785D01*
X70759Y110175D01*
X74450D01*
X77060Y112785D01*
Y116475D01*
X74450Y119085D01*
D02*
G37*
G36*
X226927Y115173D02*
X222837D01*
X219945Y112281D01*
Y108191D01*
X222837Y105299D01*
X226927D01*
X229819Y108191D01*
Y112281D01*
X226927Y115173D01*
D02*
G37*
G36*
X63269Y113628D02*
X59578D01*
X56969Y111018D01*
Y107328D01*
X59578Y104718D01*
X63269D01*
X65878Y107328D01*
Y111018D01*
X63269Y113628D01*
D02*
G37*
G36*
X74450Y108175D02*
X70759D01*
X68150Y105566D01*
Y101875D01*
X70759Y99266D01*
X74450D01*
X77060Y101875D01*
Y105566D01*
X74450Y108175D01*
D02*
G37*
G36*
X63269Y102722D02*
X59578D01*
X56969Y100113D01*
Y96422D01*
X59578Y93813D01*
X63269D01*
X65878Y96422D01*
Y100113D01*
X63269Y102722D01*
D02*
G37*
G36*
X74450Y97270D02*
X70759D01*
X68150Y94660D01*
Y90970D01*
X70759Y88360D01*
X74450D01*
X77060Y90970D01*
Y94660D01*
X74450Y97270D01*
D02*
G37*
%LPD*%
G36*
X232370Y586544D02*
X183265Y586544D01*
X175397Y594412D01*
Y597228D01*
X175897Y597397D01*
X176480Y596637D01*
X177488Y595864D01*
X178662Y595378D01*
X179921Y595212D01*
X181181Y595378D01*
X182355Y595864D01*
X183362Y596637D01*
X184136Y597645D01*
X184622Y598819D01*
X184788Y600079D01*
X184622Y601338D01*
X184136Y602512D01*
X183362Y603520D01*
X182355Y604293D01*
X181181Y604779D01*
X179921Y604945D01*
X178662Y604779D01*
X177488Y604293D01*
X176480Y603520D01*
X175897Y602760D01*
X175397Y602930D01*
Y626135D01*
X187053Y637791D01*
X215646D01*
X215707Y637645D01*
X216480Y636637D01*
X217488Y635864D01*
X218662Y635378D01*
X219921Y635212D01*
X221181Y635378D01*
X222355Y635864D01*
X223362Y636637D01*
X224136Y637645D01*
X224196Y637791D01*
X232370D01*
X232370Y586544D01*
D02*
G37*
%LPC*%
G36*
X219921Y604945D02*
X218662Y604779D01*
X217488Y604293D01*
X216480Y603520D01*
X215707Y602512D01*
X215220Y601338D01*
X215055Y600079D01*
X215220Y598819D01*
X215707Y597645D01*
X216480Y596637D01*
X217488Y595864D01*
X218662Y595378D01*
X219921Y595212D01*
X221181Y595378D01*
X222355Y595864D01*
X223362Y596637D01*
X224136Y597645D01*
X224622Y598819D01*
X224788Y600079D01*
X224622Y601338D01*
X224136Y602512D01*
X223362Y603520D01*
X222355Y604293D01*
X221181Y604779D01*
X219921Y604945D01*
D02*
G37*
G36*
X187998Y389189D02*
X183833D01*
Y382176D01*
X183601Y381944D01*
X164877D01*
X164733Y381957D01*
X164526Y381992D01*
X164380Y382031D01*
X164357Y382041D01*
Y384169D01*
X157632D01*
Y375673D01*
X164357D01*
Y377802D01*
X164380Y377812D01*
X164526Y377851D01*
X164733Y377886D01*
X164877Y377898D01*
X183893D01*
Y374714D01*
X184047Y373940D01*
X184485Y373284D01*
X187023Y370746D01*
X187351Y370393D01*
X187585Y370100D01*
X187610Y370065D01*
X187125Y369513D01*
X186508Y368897D01*
X186188Y368417D01*
X185942Y368171D01*
X185503Y367515D01*
X185349Y366741D01*
Y363033D01*
X185337Y362887D01*
X185302Y362678D01*
X185262Y362530D01*
X185257Y362516D01*
X184010D01*
Y354020D01*
X190735D01*
Y362516D01*
X189488D01*
X189483Y362530D01*
X189443Y362678D01*
X189408Y362887D01*
X189396Y363033D01*
Y365916D01*
X189690Y366357D01*
X190297Y366963D01*
X190648Y367272D01*
X190693Y367307D01*
X192535D01*
Y371761D01*
X192542Y371786D01*
X192537Y371818D01*
X192543Y371850D01*
X192535Y371886D01*
Y372850D01*
X191601D01*
X191576Y372857D01*
X191360Y372868D01*
X191191Y372894D01*
X191015Y372939D01*
X190829Y373006D01*
X190633Y373096D01*
X190427Y373211D01*
X190211Y373354D01*
X189986Y373524D01*
X189858Y373633D01*
X187939Y375552D01*
Y379315D01*
X187998D01*
Y380289D01*
X188006Y380327D01*
X187998Y380365D01*
Y380386D01*
X188002Y380419D01*
X187998Y380430D01*
Y389189D01*
D02*
G37*
G36*
X250276Y360085D02*
X248766Y359887D01*
X247359Y359304D01*
X246151Y358377D01*
X245224Y357169D01*
X244641Y355762D01*
X244442Y354252D01*
X244641Y352742D01*
X245224Y351335D01*
X246151Y350127D01*
X247359Y349200D01*
X248766Y348617D01*
X250276Y348419D01*
X251785Y348617D01*
X253192Y349200D01*
X254400Y350127D01*
X255327Y351335D01*
X255910Y352742D01*
X256109Y354252D01*
X255910Y355762D01*
X255327Y357169D01*
X254400Y358377D01*
X253192Y359304D01*
X251785Y359887D01*
X250276Y360085D01*
D02*
G37*
G36*
X227795Y353163D02*
X226783Y353030D01*
X225840Y352639D01*
X225029Y352018D01*
X224408Y351208D01*
X224017Y350264D01*
X223884Y349252D01*
X224017Y348240D01*
X224408Y347296D01*
X225029Y346486D01*
X225840Y345865D01*
X226783Y345474D01*
X227795Y345340D01*
X228808Y345474D01*
X229751Y345865D01*
X230561Y346486D01*
X231183Y347296D01*
X231573Y348240D01*
X231707Y349252D01*
X231573Y350264D01*
X231183Y351208D01*
X230561Y352018D01*
X229751Y352639D01*
X228808Y353030D01*
X227795Y353163D01*
D02*
G37*
G36*
X208661Y348018D02*
X207748Y347898D01*
X206896Y347545D01*
X206165Y346984D01*
X205604Y346253D01*
X205252Y345402D01*
X205131Y344488D01*
X205252Y343575D01*
X205604Y342723D01*
X206165Y341992D01*
X206896Y341431D01*
X207748Y341078D01*
X208661Y340958D01*
X209575Y341078D01*
X210426Y341431D01*
X211158Y341992D01*
X211719Y342723D01*
X212071Y343575D01*
X212192Y344488D01*
X212071Y345402D01*
X211719Y346253D01*
X211158Y346984D01*
X210426Y347545D01*
X209575Y347898D01*
X208661Y348018D01*
D02*
G37*
G36*
X227795Y344144D02*
X226783Y344010D01*
X225840Y343620D01*
X225029Y342998D01*
X224408Y342188D01*
X224017Y341245D01*
X223884Y340232D01*
X224017Y339220D01*
X224408Y338277D01*
X225029Y337467D01*
X225840Y336845D01*
X226783Y336454D01*
X227795Y336321D01*
X228808Y336454D01*
X229751Y336845D01*
X230561Y337467D01*
X231183Y338277D01*
X231573Y339220D01*
X231707Y340232D01*
X231573Y341245D01*
X231183Y342188D01*
X230561Y342998D01*
X229751Y343620D01*
X228808Y344010D01*
X227795Y344144D01*
D02*
G37*
G36*
X194882Y348018D02*
X193968Y347898D01*
X193117Y347545D01*
X192386Y346984D01*
X191825Y346253D01*
X191472Y345402D01*
X191352Y344488D01*
X191472Y343575D01*
X191825Y342723D01*
X192386Y341992D01*
X192439Y341951D01*
X192503Y341882D01*
X192579Y341787D01*
X192645Y341686D01*
X192702Y341578D01*
X192753Y341461D01*
X192795Y341334D01*
X192830Y341194D01*
X192856Y341040D01*
X192859Y341008D01*
Y324803D01*
X193013Y324029D01*
X193451Y323373D01*
X204770Y312054D01*
X204791Y312029D01*
X204881Y311902D01*
X204955Y311779D01*
X205015Y311658D01*
X205062Y311540D01*
X205098Y311423D01*
X205123Y311305D01*
X205137Y311184D01*
X205140Y311091D01*
X205131Y311024D01*
X205252Y310110D01*
X205604Y309259D01*
X206165Y308527D01*
X206896Y307966D01*
X207748Y307614D01*
X208661Y307493D01*
X209575Y307614D01*
X210426Y307966D01*
X211158Y308527D01*
X211719Y309259D01*
X212071Y310110D01*
X212192Y311024D01*
X212071Y311937D01*
X211719Y312789D01*
X211158Y313520D01*
X210426Y314081D01*
X209575Y314434D01*
X208661Y314554D01*
X208594Y314545D01*
X208501Y314548D01*
X208380Y314562D01*
X208262Y314587D01*
X208145Y314623D01*
X208027Y314670D01*
X207906Y314730D01*
X207783Y314804D01*
X207656Y314895D01*
X207631Y314915D01*
X196905Y325641D01*
Y341008D01*
X196908Y341040D01*
X196934Y341194D01*
X196969Y341334D01*
X197011Y341461D01*
X197061Y341578D01*
X197119Y341686D01*
X197185Y341787D01*
X197260Y341882D01*
X197324Y341951D01*
X197378Y341992D01*
X197939Y342723D01*
X198292Y343575D01*
X198412Y344488D01*
X198292Y345402D01*
X197939Y346253D01*
X197378Y346984D01*
X196647Y347545D01*
X195796Y347898D01*
X194882Y348018D01*
D02*
G37*
G36*
X214567Y341800D02*
X213653Y341680D01*
X212802Y341327D01*
X212071Y340766D01*
X211510Y340035D01*
X211157Y339183D01*
X211037Y338270D01*
X211157Y337356D01*
X211510Y336505D01*
X212071Y335773D01*
X212802Y335212D01*
X213653Y334860D01*
X214567Y334739D01*
X215481Y334860D01*
X215553Y334890D01*
X215702Y334926D01*
X215842Y334947D01*
X215965Y334953D01*
X216072Y334947D01*
X216167Y334931D01*
X216255Y334905D01*
X216341Y334868D01*
X216428Y334818D01*
X216481Y334779D01*
X217001Y334260D01*
X217580Y333873D01*
X218262Y333737D01*
X218262Y333737D01*
X218858D01*
X235484Y317111D01*
Y308756D01*
X235474Y308686D01*
X235445Y308558D01*
X235403Y308430D01*
X235347Y308298D01*
X235275Y308162D01*
X235186Y308021D01*
X235079Y307876D01*
X234951Y307726D01*
X234830Y307600D01*
X234772Y307555D01*
X234211Y306824D01*
X233858Y305973D01*
X233738Y305059D01*
X233858Y304145D01*
X234211Y303294D01*
X234772Y302563D01*
X235503Y302002D01*
X236354Y301649D01*
X237268Y301529D01*
X238182Y301649D01*
X239033Y302002D01*
X239764Y302563D01*
X240325Y303294D01*
X240678Y304145D01*
X240798Y305059D01*
X240678Y305973D01*
X240325Y306824D01*
X239764Y307555D01*
X239706Y307600D01*
X239585Y307726D01*
X239458Y307876D01*
X239350Y308021D01*
X239261Y308162D01*
X239190Y308298D01*
X239134Y308430D01*
X239091Y308558D01*
X239062Y308686D01*
X239052Y308756D01*
Y317850D01*
X238917Y318533D01*
X238530Y319112D01*
X238530Y319112D01*
X220858Y336783D01*
X220280Y337170D01*
X219597Y337306D01*
X219001D01*
X218661Y337646D01*
X218625Y337690D01*
X218535Y337818D01*
X218453Y337951D01*
X218268Y338312D01*
X218195Y338484D01*
X218035Y338944D01*
X217986Y339113D01*
X217977Y339183D01*
X217624Y340035D01*
X217063Y340766D01*
X216332Y341327D01*
X215481Y341680D01*
X214567Y341800D01*
D02*
G37*
G36*
X227795Y308159D02*
X226783Y308026D01*
X225840Y307635D01*
X225029Y307014D01*
X224408Y306204D01*
X224017Y305260D01*
X223884Y304248D01*
X224017Y303236D01*
X224408Y302292D01*
X225029Y301482D01*
X225840Y300861D01*
X226783Y300470D01*
X227795Y300337D01*
X228808Y300470D01*
X229751Y300861D01*
X230561Y301482D01*
X231183Y302292D01*
X231573Y303236D01*
X231707Y304248D01*
X231573Y305260D01*
X231183Y306204D01*
X230561Y307014D01*
X229751Y307635D01*
X228808Y308026D01*
X227795Y308159D01*
D02*
G37*
G36*
Y299144D02*
X226783Y299010D01*
X225840Y298620D01*
X225029Y297998D01*
X224408Y297188D01*
X224017Y296245D01*
X223884Y295232D01*
X224017Y294220D01*
X224408Y293277D01*
X225029Y292466D01*
X225840Y291845D01*
X226783Y291454D01*
X227795Y291321D01*
X228808Y291454D01*
X229751Y291845D01*
X230561Y292466D01*
X231183Y293277D01*
X231573Y294220D01*
X231707Y295232D01*
X231573Y296245D01*
X231183Y297188D01*
X230561Y297998D01*
X229751Y298620D01*
X228808Y299010D01*
X227795Y299144D01*
D02*
G37*
G36*
X196669Y289681D02*
X189945D01*
Y281185D01*
X191191D01*
X191197Y281171D01*
X191236Y281023D01*
X191271Y280814D01*
X191284Y280668D01*
Y276772D01*
X191438Y275997D01*
X191876Y275341D01*
X192929Y274289D01*
X193256Y273937D01*
X193490Y273644D01*
X193506Y273622D01*
X193499Y273612D01*
X193019Y273045D01*
X190391Y270417D01*
X189952Y269761D01*
X189798Y268987D01*
Y265803D01*
X166846D01*
X166702Y265815D01*
X166495Y265850D01*
X166349Y265889D01*
X166325Y265899D01*
Y268028D01*
X159601D01*
Y259531D01*
X166325D01*
Y261660D01*
X166349Y261670D01*
X166495Y261709D01*
X166702Y261744D01*
X166846Y261756D01*
X189507D01*
X189739Y261525D01*
Y254512D01*
X193904D01*
Y263336D01*
X193912Y263374D01*
X193907Y263396D01*
X193911Y263419D01*
X193904Y263569D01*
Y264386D01*
X193868D01*
X193844Y264926D01*
Y268149D01*
X195763Y270067D01*
X195891Y270177D01*
X196116Y270347D01*
X196332Y270490D01*
X196538Y270605D01*
X196734Y270695D01*
X196920Y270761D01*
X197096Y270807D01*
X197265Y270833D01*
X197482Y270844D01*
X197506Y270850D01*
X198441D01*
Y271815D01*
X198449Y271851D01*
X198442Y271883D01*
X198447Y271915D01*
X198441Y271940D01*
Y275304D01*
X198447Y275329D01*
X198442Y275361D01*
X198449Y275393D01*
X198441Y275429D01*
Y276394D01*
X197506D01*
X197482Y276400D01*
X197265Y276411D01*
X197097Y276437D01*
X196920Y276483D01*
X196734Y276549D01*
X196538Y276639D01*
X196332Y276755D01*
X196116Y276897D01*
X195891Y277067D01*
X195763Y277177D01*
X195330Y277610D01*
Y280668D01*
X195343Y280814D01*
X195378Y281023D01*
X195417Y281171D01*
X195423Y281185D01*
X196669D01*
Y289681D01*
D02*
G37*
G36*
X134661Y258283D02*
X129118D01*
Y253134D01*
X130318D01*
X130327Y253110D01*
X130367Y252964D01*
X130401Y252757D01*
X130414Y252613D01*
Y250334D01*
Y247387D01*
X130401Y247243D01*
X130367Y247036D01*
X130327Y246890D01*
X130318Y246866D01*
X129118D01*
Y241717D01*
X134661D01*
Y245790D01*
X134668Y245820D01*
X134666Y245837D01*
X134669Y245854D01*
X134661Y245892D01*
Y246866D01*
X134482D01*
X134460Y247208D01*
Y247663D01*
X134491Y247838D01*
X134538Y247979D01*
X134587Y248071D01*
X134638Y248133D01*
X134700Y248183D01*
X134792Y248233D01*
X134932Y248280D01*
X135107Y248310D01*
X136129D01*
X136363Y248288D01*
X136520Y248261D01*
X136680Y248224D01*
X136831Y248180D01*
X136974Y248129D01*
X137110Y248071D01*
X137240Y248006D01*
X137391Y247917D01*
X137393Y247916D01*
X137472Y247856D01*
X138323Y247504D01*
X139237Y247383D01*
X140150Y247504D01*
X141002Y247856D01*
X141733Y248417D01*
X142294Y249149D01*
X142647Y250000D01*
X142767Y250914D01*
X142647Y251827D01*
X142294Y252679D01*
X141733Y253410D01*
X141002Y253971D01*
X140150Y254324D01*
X139237Y254444D01*
X138323Y254324D01*
X137472Y253971D01*
X136741Y253410D01*
X136260Y252783D01*
X136250Y252774D01*
X136233Y252748D01*
X136179Y252679D01*
X136170Y252655D01*
X136169Y252654D01*
X136117Y252594D01*
X136062Y252543D01*
X136000Y252498D01*
X135926Y252457D01*
X135837Y252420D01*
X135729Y252388D01*
X135599Y252361D01*
X135556Y252357D01*
X135107D01*
X134956Y252383D01*
X134578Y252691D01*
X134661Y253134D01*
X134661D01*
Y254108D01*
X134669Y254146D01*
X134666Y254163D01*
X134668Y254180D01*
X134661Y254210D01*
Y258283D01*
D02*
G37*
G36*
X124819D02*
X119276D01*
Y254184D01*
X119268Y254146D01*
X119276Y254108D01*
Y253134D01*
X119961D01*
X119984Y253025D01*
X120024Y252618D01*
Y250000D01*
Y247318D01*
X120017Y247216D01*
X119987Y246991D01*
X119961Y246866D01*
X119276D01*
Y245892D01*
X119268Y245854D01*
X119276Y245816D01*
Y241717D01*
X124819D01*
Y245816D01*
X124827Y245854D01*
X124819Y245892D01*
Y246202D01*
X125319Y246557D01*
X125984Y246470D01*
X126898Y246590D01*
X127749Y246943D01*
X128481Y247504D01*
X129042Y248235D01*
X129394Y249086D01*
X129515Y250000D01*
X129394Y250914D01*
X129042Y251765D01*
X128481Y252496D01*
X127749Y253057D01*
X126898Y253410D01*
X125984Y253530D01*
X125319Y253443D01*
X124819Y253798D01*
Y254108D01*
X124827Y254146D01*
X124819Y254184D01*
Y258283D01*
D02*
G37*
G36*
X193904Y245094D02*
X189739D01*
Y238244D01*
X166846D01*
X166702Y238256D01*
X166495Y238291D01*
X166349Y238330D01*
X166325Y238340D01*
Y240469D01*
X159601D01*
Y231972D01*
X166325D01*
Y234101D01*
X166349Y234111D01*
X166495Y234150D01*
X166702Y234185D01*
X166846Y234197D01*
X189798D01*
Y232982D01*
X189952Y232208D01*
X190391Y231551D01*
X194897Y227045D01*
X195225Y226692D01*
X195459Y226400D01*
X195475Y226378D01*
X195467Y226368D01*
X194987Y225801D01*
X193451Y224265D01*
X193013Y223609D01*
X192859Y222835D01*
Y217364D01*
X192846Y217221D01*
X192812Y217013D01*
X192773Y216866D01*
X192765Y216846D01*
X191913D01*
Y215875D01*
X191906Y215838D01*
X191913Y215799D01*
Y215747D01*
X191912Y215726D01*
X191913Y215721D01*
Y208350D01*
X198638D01*
Y216846D01*
X196998D01*
X196992Y216862D01*
X196952Y217010D01*
X196918Y217219D01*
X196905Y217364D01*
Y221997D01*
X197732Y222823D01*
X197860Y222933D01*
X198085Y223103D01*
X198301Y223245D01*
X198507Y223361D01*
X198703Y223451D01*
X198889Y223517D01*
X199065Y223563D01*
X199234Y223589D01*
X199450Y223600D01*
X199475Y223606D01*
X200409D01*
Y224571D01*
X200417Y224606D01*
X200411Y224639D01*
X200416Y224671D01*
X200409Y224696D01*
Y228060D01*
X200416Y228085D01*
X200411Y228117D01*
X200417Y228150D01*
X200409Y228185D01*
Y229150D01*
X199475D01*
X199450Y229156D01*
X199234Y229167D01*
X199065Y229193D01*
X198889Y229239D01*
X198703Y229305D01*
X198507Y229395D01*
X198301Y229510D01*
X198085Y229653D01*
X197860Y229823D01*
X197732Y229933D01*
X193844Y233820D01*
Y235221D01*
X193904D01*
Y236194D01*
X193912Y236232D01*
X193904Y236271D01*
Y236292D01*
X193907Y236324D01*
X193904Y236336D01*
Y245094D01*
D02*
G37*
G36*
X194882Y115216D02*
X193593Y115046D01*
X192392Y114549D01*
X191361Y113757D01*
X190569Y112726D01*
X190072Y111525D01*
X189902Y110236D01*
X190072Y108947D01*
X190569Y107746D01*
X191361Y106715D01*
X191849Y106341D01*
X191864Y106317D01*
X191915Y106284D01*
X191954Y106238D01*
X192165Y106071D01*
X192317Y105926D01*
X192446Y105775D01*
X192557Y105615D01*
X192651Y105445D01*
X192729Y105260D01*
X192781Y105092D01*
X192270Y104580D01*
X191832Y103924D01*
X191678Y103150D01*
Y101485D01*
X191665Y101227D01*
X191662Y101197D01*
X191323D01*
Y100223D01*
X191315Y100185D01*
X191323Y100147D01*
Y96704D01*
X191315Y96666D01*
X191323Y96627D01*
Y95654D01*
X191653D01*
X191678Y95277D01*
Y93611D01*
X191665Y93353D01*
X191662Y93323D01*
X191323D01*
Y92349D01*
X191315Y92311D01*
X191323Y92273D01*
Y88830D01*
X191315Y88792D01*
X191323Y88753D01*
Y87779D01*
X191653D01*
X191678Y87403D01*
Y85737D01*
X191665Y85479D01*
X191662Y85449D01*
X191323D01*
Y84475D01*
X191315Y84437D01*
X191323Y84399D01*
Y79905D01*
X196079D01*
Y84399D01*
X196086Y84437D01*
X196079Y84475D01*
Y85449D01*
X195748D01*
X195724Y85825D01*
Y87491D01*
X195736Y87749D01*
X195740Y87779D01*
X196079D01*
Y88753D01*
X196086Y88792D01*
X196079Y88830D01*
Y92273D01*
X196086Y92311D01*
X196079Y92349D01*
Y93323D01*
X195748D01*
X195724Y93699D01*
Y95366D01*
X195736Y95623D01*
X195740Y95654D01*
X196079D01*
Y96627D01*
X196086Y96666D01*
X196079Y96704D01*
Y100147D01*
X196086Y100185D01*
X196079Y100223D01*
Y101197D01*
X195748D01*
X195724Y101573D01*
Y102312D01*
X196312Y102900D01*
X196751Y103557D01*
X196905Y104331D01*
Y104666D01*
X196926Y104838D01*
X196972Y105059D01*
X197035Y105260D01*
X197113Y105445D01*
X197207Y105615D01*
X197317Y105775D01*
X197447Y105926D01*
X197599Y106071D01*
X197810Y106238D01*
X197849Y106284D01*
X197899Y106317D01*
X197915Y106341D01*
X198403Y106715D01*
X199194Y107746D01*
X199692Y108947D01*
X199862Y110236D01*
X199692Y111525D01*
X199194Y112726D01*
X198403Y113757D01*
X197372Y114549D01*
X196171Y115046D01*
X194882Y115216D01*
D02*
G37*
G36*
X174882D02*
X173593Y115046D01*
X172392Y114549D01*
X171361Y113757D01*
X170569Y112726D01*
X170072Y111525D01*
X169902Y110236D01*
X170072Y108947D01*
X170569Y107746D01*
X171159Y106979D01*
X171177Y106945D01*
X171282Y106817D01*
X171361Y106715D01*
X171378Y106702D01*
X171763Y106236D01*
X171979Y105931D01*
X172166Y105629D01*
X172320Y105341D01*
X172441Y105069D01*
X172532Y104812D01*
X172594Y104571D01*
X172623Y104386D01*
Y101618D01*
X172619Y101516D01*
X172595Y101288D01*
X172580Y101197D01*
X172031D01*
Y100223D01*
X172024Y100185D01*
X172031Y100147D01*
Y96704D01*
X172024Y96666D01*
X172031Y96627D01*
Y95654D01*
X172362D01*
X172386Y95277D01*
Y93611D01*
X172374Y93353D01*
X172371Y93323D01*
X172031D01*
Y92349D01*
X172024Y92311D01*
X172031Y92273D01*
Y88830D01*
X172024Y88792D01*
X172031Y88753D01*
Y87779D01*
X172362D01*
X172386Y87403D01*
Y85737D01*
X172374Y85479D01*
X172371Y85449D01*
X172031D01*
Y84475D01*
X172024Y84437D01*
X172031Y84399D01*
Y79905D01*
X176787D01*
Y84399D01*
X176795Y84437D01*
X176787Y84475D01*
Y85449D01*
X176457D01*
X176433Y85825D01*
Y87491D01*
X176445Y87749D01*
X176448Y87779D01*
X176787D01*
Y88753D01*
X176795Y88792D01*
X176787Y88830D01*
Y92273D01*
X176795Y92311D01*
X176787Y92349D01*
Y93323D01*
X176457D01*
X176433Y93699D01*
Y95366D01*
X176445Y95623D01*
X176448Y95654D01*
X176787D01*
Y96627D01*
X176795Y96666D01*
X176787Y96704D01*
Y100147D01*
X176795Y100185D01*
X176787Y100223D01*
Y101197D01*
X176688D01*
X176669Y101515D01*
Y104262D01*
X176700Y104449D01*
X176763Y104676D01*
X176855Y104910D01*
X176978Y105154D01*
X177135Y105406D01*
X177328Y105668D01*
X177558Y105937D01*
X177826Y106213D01*
X178153Y106513D01*
X178171Y106537D01*
X178403Y106715D01*
X179194Y107746D01*
X179692Y108947D01*
X179861Y110236D01*
X179692Y111525D01*
X179194Y112726D01*
X178403Y113757D01*
X177372Y114549D01*
X176171Y115046D01*
X174882Y115216D01*
D02*
G37*
%LPD*%
G36*
X186970Y380307D02*
X186955Y380248D01*
X186942Y380150D01*
X186922Y379835D01*
X186900Y378359D01*
X184932D01*
X184845Y380327D01*
X186986D01*
X186970Y380307D01*
D02*
G37*
G36*
X163364Y381703D02*
X163423Y381535D01*
X163522Y381388D01*
X163660Y381260D01*
X163837Y381152D01*
X164053Y381063D01*
X164309Y380994D01*
X164604Y380945D01*
X164939Y380915D01*
X165313Y380906D01*
Y378937D01*
X164939Y378927D01*
X164604Y378898D01*
X164309Y378848D01*
X164053Y378780D01*
X163837Y378691D01*
X163660Y378583D01*
X163522Y378455D01*
X163423Y378307D01*
X163364Y378140D01*
X163345Y377953D01*
Y381890D01*
X163364Y381703D01*
D02*
G37*
G36*
X189069Y372966D02*
X189346Y372729D01*
X189622Y372520D01*
X189897Y372340D01*
X190171Y372186D01*
X190443Y372061D01*
X190715Y371964D01*
X190985Y371894D01*
X191255Y371852D01*
X191523Y371838D01*
X189283Y369545D01*
X190497Y368331D01*
X190453Y368344D01*
X190381Y368323D01*
X190280Y368268D01*
X190152Y368179D01*
X189995Y368056D01*
X189598Y367706D01*
X188792Y366927D01*
X187400Y368319D01*
X187694Y368616D01*
X188741Y369808D01*
X188796Y369908D01*
X188817Y369980D01*
X188804Y370024D01*
X188842Y369986D01*
X188794Y370099D01*
X188626Y370392D01*
X188402Y370712D01*
X188123Y371060D01*
X187400Y371838D01*
X188792Y373230D01*
X189069Y372966D01*
D02*
G37*
G36*
X188366Y363096D02*
X188396Y362759D01*
X188445Y362462D01*
X188514Y362205D01*
X188603Y361987D01*
X188711Y361809D01*
X188839Y361670D01*
X188987Y361571D01*
X189154Y361511D01*
X189341Y361492D01*
X185404D01*
X185591Y361511D01*
X185758Y361571D01*
X185906Y361670D01*
X186034Y361809D01*
X186142Y361987D01*
X186231Y362205D01*
X186300Y362462D01*
X186349Y362759D01*
X186378Y363096D01*
X186388Y363472D01*
X188357D01*
X188366Y363096D01*
D02*
G37*
G36*
X251503Y358832D02*
X252646Y358358D01*
X253628Y357605D01*
X254382Y356623D01*
X254856Y355479D01*
X255017Y354252D01*
X254856Y353025D01*
X254382Y351881D01*
X253628Y350899D01*
X252646Y350146D01*
X251503Y349672D01*
X250276Y349510D01*
X249048Y349672D01*
X247905Y350146D01*
X246923Y350899D01*
X246169Y351881D01*
X245695Y353025D01*
X245534Y354252D01*
X245695Y355479D01*
X246169Y356623D01*
X246923Y357605D01*
X247905Y358358D01*
X249048Y358832D01*
X250276Y358994D01*
X251503Y358832D01*
D02*
G37*
G36*
X196486Y342548D02*
X196356Y342382D01*
X196241Y342206D01*
X196142Y342021D01*
X196058Y341824D01*
X195989Y341618D01*
X195935Y341401D01*
X195897Y341175D01*
X195874Y340937D01*
X195866Y340690D01*
X193898D01*
X193890Y340937D01*
X193867Y341175D01*
X193829Y341401D01*
X193775Y341618D01*
X193706Y341824D01*
X193622Y342021D01*
X193522Y342206D01*
X193408Y342382D01*
X193277Y342548D01*
X193132Y342703D01*
X196632D01*
X196486Y342548D01*
D02*
G37*
G36*
X206852Y314236D02*
X207036Y314084D01*
X207223Y313951D01*
X207415Y313836D01*
X207609Y313739D01*
X207807Y313659D01*
X208009Y313598D01*
X208215Y313555D01*
X208424Y313530D01*
X208636Y313524D01*
X206161Y311049D01*
X206155Y311261D01*
X206130Y311470D01*
X206087Y311676D01*
X206026Y311878D01*
X205946Y312076D01*
X205849Y312271D01*
X205734Y312462D01*
X205601Y312649D01*
X205449Y312833D01*
X205280Y313013D01*
X206672Y314405D01*
X206852Y314236D01*
D02*
G37*
G36*
X217062Y338635D02*
X217243Y338118D01*
X217343Y337880D01*
X217564Y337449D01*
X217685Y337255D01*
X217812Y337075D01*
X217946Y336909D01*
X218087Y336758D01*
X217338Y335385D01*
X217166Y335541D01*
X216986Y335673D01*
X216798Y335782D01*
X216602Y335866D01*
X216399Y335926D01*
X216187Y335962D01*
X215967Y335975D01*
X215740Y335963D01*
X215504Y335927D01*
X215261Y335868D01*
X216982Y338915D01*
X217062Y338635D01*
D02*
G37*
G36*
X238028Y308721D02*
X238058Y308502D01*
X238108Y308285D01*
X238178Y308071D01*
X238268Y307859D01*
X238378Y307651D01*
X238508Y307445D01*
X238658Y307242D01*
X238828Y307042D01*
X239018Y306844D01*
X235518D01*
X235708Y307042D01*
X235878Y307242D01*
X236028Y307445D01*
X236158Y307651D01*
X236268Y307859D01*
X236358Y308071D01*
X236428Y308285D01*
X236478Y308502D01*
X236508Y308721D01*
X236518Y308944D01*
X238018D01*
X238028Y308721D01*
D02*
G37*
G36*
X195089Y282189D02*
X194921Y282130D01*
X194774Y282031D01*
X194646Y281892D01*
X194537Y281714D01*
X194449Y281496D01*
X194380Y281239D01*
X194331Y280942D01*
X194301Y280605D01*
X194291Y280228D01*
X192323D01*
X192313Y280605D01*
X192283Y280942D01*
X192234Y281239D01*
X192165Y281496D01*
X192077Y281714D01*
X191969Y281892D01*
X191841Y282031D01*
X191693Y282130D01*
X191526Y282189D01*
X191339Y282209D01*
X195276D01*
X195089Y282189D01*
D02*
G37*
G36*
X194975Y276509D02*
X195252Y276273D01*
X195528Y276064D01*
X195802Y275883D01*
X196076Y275730D01*
X196349Y275604D01*
X196620Y275507D01*
X196891Y275437D01*
X197160Y275396D01*
X197429Y275382D01*
X195709Y273623D01*
X197429Y271862D01*
X197160Y271849D01*
X196891Y271807D01*
X196620Y271737D01*
X196349Y271640D01*
X196076Y271514D01*
X195802Y271361D01*
X195528Y271180D01*
X195252Y270972D01*
X194975Y270735D01*
X194697Y270470D01*
X193305Y271862D01*
X193695Y272266D01*
X194307Y272989D01*
X194531Y273309D01*
X194699Y273601D01*
X194708Y273622D01*
X194698Y273644D01*
X194530Y273936D01*
X194307Y274256D01*
X194028Y274604D01*
X193305Y275382D01*
X194697Y276774D01*
X194975Y276509D01*
D02*
G37*
G36*
X192892Y263374D02*
X190751D01*
X190767Y263393D01*
X190782Y263453D01*
X190795Y263551D01*
X190815Y263866D01*
X190837Y265342D01*
X192806D01*
X192892Y263374D01*
D02*
G37*
G36*
X165333Y265561D02*
X165392Y265394D01*
X165490Y265246D01*
X165628Y265118D01*
X165805Y265010D01*
X166022Y264921D01*
X166278Y264852D01*
X166573Y264803D01*
X166908Y264774D01*
X167282Y264764D01*
Y262795D01*
X166908Y262785D01*
X166573Y262756D01*
X166278Y262707D01*
X166022Y262638D01*
X165805Y262549D01*
X165628Y262441D01*
X165490Y262313D01*
X165392Y262165D01*
X165333Y261998D01*
X165313Y261811D01*
Y265748D01*
X165333Y265561D01*
D02*
G37*
G36*
X133606Y254126D02*
X133567Y254067D01*
X133533Y253969D01*
X133503Y253831D01*
X133478Y253654D01*
X133442Y253181D01*
X133438Y252976D01*
X133441Y252912D01*
X133500Y252578D01*
X133598Y252282D01*
X133736Y252027D01*
X133913Y251810D01*
X134130Y251633D01*
X134386Y251495D01*
X134681Y251397D01*
X135016Y251338D01*
X135342Y251320D01*
X135521Y251327D01*
X135756Y251353D01*
X135977Y251397D01*
X136182Y251459D01*
X136372Y251539D01*
X136547Y251636D01*
X136707Y251751D01*
X136851Y251884D01*
X136980Y252034D01*
X137094Y252202D01*
X137906Y248797D01*
X137727Y248902D01*
X137540Y248996D01*
X137346Y249079D01*
X137145Y249151D01*
X136937Y249211D01*
X136722Y249261D01*
X136499Y249300D01*
X136031Y249344D01*
X135787Y249349D01*
X135390Y250860D01*
Y249349D01*
X135016Y249330D01*
X134681Y249271D01*
X134386Y249172D01*
X134130Y249034D01*
X133913Y248857D01*
X133736Y248641D01*
X133598Y248385D01*
X133500Y248090D01*
X133441Y247755D01*
X133424Y247438D01*
X133503Y246169D01*
X133533Y246031D01*
X133567Y245933D01*
X133606Y245874D01*
X133649Y245854D01*
X130468D01*
X130656Y245874D01*
X130823Y245933D01*
X130971Y246031D01*
X131098Y246169D01*
X131207Y246346D01*
X131295Y246563D01*
X131364Y246819D01*
X131413Y247114D01*
X131443Y247449D01*
X131453Y247823D01*
X133127D01*
X131453Y250334D01*
X132682Y252177D01*
X131453D01*
X131443Y252551D01*
X131413Y252886D01*
X131364Y253181D01*
X131295Y253437D01*
X131207Y253654D01*
X131098Y253831D01*
X130971Y253969D01*
X130823Y254067D01*
X130656Y254126D01*
X130468Y254146D01*
X133649D01*
X133606Y254126D01*
D02*
G37*
G36*
X123660D02*
X123528Y254067D01*
X123411Y253969D01*
X123311Y253831D01*
X123225Y253654D01*
X123156Y253437D01*
X123101Y253181D01*
X123063Y252886D01*
X123047Y252661D01*
X123051Y252579D01*
X123110Y252244D01*
X123209Y251949D01*
X123346Y251693D01*
X123524Y251476D01*
X123702Y251330D01*
X123852Y251427D01*
X123998Y251545D01*
X124130Y251677D01*
Y251117D01*
X124291Y251063D01*
X124626Y251004D01*
X125000Y250984D01*
Y249016D01*
X124626Y248996D01*
X124291Y248937D01*
X124130Y248883D01*
Y248323D01*
X123998Y248455D01*
X123852Y248573D01*
X123702Y248670D01*
X123524Y248524D01*
X123346Y248307D01*
X123209Y248051D01*
X123110Y247756D01*
X123051Y247421D01*
X123048Y247360D01*
X123101Y246819D01*
X123156Y246563D01*
X123225Y246346D01*
X123311Y246169D01*
X123411Y246031D01*
X123528Y245933D01*
X123660Y245874D01*
X123807Y245854D01*
X120288D01*
X120435Y245874D01*
X120567Y245933D01*
X120683Y246031D01*
X120784Y246169D01*
X120869Y246346D01*
X120939Y246563D01*
X120993Y246819D01*
X121032Y247114D01*
X121055Y247449D01*
X121063Y247823D01*
X122515D01*
X121063Y250000D01*
X122515Y252177D01*
X121063D01*
X121055Y252551D01*
X120993Y253181D01*
X120939Y253437D01*
X120869Y253654D01*
X120784Y253831D01*
X120683Y253969D01*
X120567Y254067D01*
X120435Y254126D01*
X120288Y254146D01*
X123807D01*
X123660Y254126D01*
D02*
G37*
G36*
X192876Y236213D02*
X192861Y236154D01*
X192848Y236055D01*
X192827Y235740D01*
X192806Y234264D01*
X190837D01*
X190751Y236232D01*
X192892D01*
X192876Y236213D01*
D02*
G37*
G36*
X165333Y238002D02*
X165392Y237835D01*
X165490Y237687D01*
X165628Y237559D01*
X165805Y237451D01*
X166022Y237362D01*
X166278Y237293D01*
X166573Y237244D01*
X166908Y237215D01*
X167282Y237205D01*
Y235236D01*
X166908Y235226D01*
X166573Y235197D01*
X166278Y235148D01*
X166022Y235079D01*
X165805Y234990D01*
X165628Y234882D01*
X165490Y234754D01*
X165392Y234606D01*
X165333Y234439D01*
X165313Y234252D01*
Y238189D01*
X165333Y238002D01*
D02*
G37*
G36*
X196943Y229265D02*
X197220Y229029D01*
X197496Y228820D01*
X197771Y228639D01*
X198045Y228486D01*
X198317Y228360D01*
X198589Y228263D01*
X198859Y228193D01*
X199129Y228151D01*
X199398Y228138D01*
X197678Y226378D01*
X199398Y224618D01*
X199129Y224604D01*
X198859Y224563D01*
X198589Y224493D01*
X198317Y224396D01*
X198045Y224270D01*
X197771Y224117D01*
X197496Y223936D01*
X197220Y223727D01*
X196943Y223491D01*
X196666Y223226D01*
X195274Y224618D01*
X195663Y225022D01*
X196276Y225745D01*
X196500Y226065D01*
X196668Y226357D01*
X196676Y226378D01*
X196668Y226399D01*
X196500Y226691D01*
X196276Y227011D01*
X195997Y227359D01*
X195274Y228138D01*
X196666Y229530D01*
X196943Y229265D01*
D02*
G37*
G36*
X195876Y217427D02*
X195905Y217091D01*
X195955Y216794D01*
X196024Y216537D01*
X196112Y216319D01*
X196221Y216141D01*
X196348Y216002D01*
X196496Y215903D01*
X196663Y215843D01*
X196850Y215823D01*
X192925Y215834D01*
X193110Y215854D01*
X193275Y215913D01*
X193421Y216012D01*
X193548Y216149D01*
X193655Y216327D01*
X193742Y216543D01*
X193810Y216799D01*
X193859Y217094D01*
X193888Y217429D01*
X193898Y217803D01*
X195866D01*
X195876Y217427D01*
D02*
G37*
G36*
X196929Y106842D02*
X196706Y106629D01*
X196509Y106399D01*
X196339Y106153D01*
X196194Y105890D01*
X196076Y105611D01*
X195984Y105316D01*
X195919Y105004D01*
X195879Y104675D01*
X195866Y104331D01*
X193898D01*
X193885Y104675D01*
X193845Y105004D01*
X193780Y105316D01*
X193688Y105611D01*
X193570Y105890D01*
X193425Y106153D01*
X193255Y106399D01*
X193058Y106629D01*
X192835Y106842D01*
X192585Y107038D01*
X197178D01*
X196929Y106842D01*
D02*
G37*
G36*
X194689Y101779D02*
X194746Y100893D01*
X194781Y100677D01*
X194823Y100500D01*
X194872Y100362D01*
X194929Y100264D01*
X194994Y100205D01*
X195067Y100185D01*
X192335D01*
X192407Y100205D01*
X192472Y100264D01*
X192529Y100362D01*
X192579Y100500D01*
X192621Y100677D01*
X192656Y100893D01*
X192682Y101149D01*
X192713Y101779D01*
X192717Y102153D01*
X194685D01*
X194689Y101779D01*
D02*
G37*
G36*
X194994Y96646D02*
X194929Y96587D01*
X194872Y96488D01*
X194823Y96351D01*
X194781Y96173D01*
X194746Y95957D01*
X194719Y95701D01*
X194689Y95071D01*
X194685Y94697D01*
X192717D01*
X192713Y95071D01*
X192656Y95957D01*
X192621Y96173D01*
X192579Y96351D01*
X192529Y96488D01*
X192472Y96587D01*
X192407Y96646D01*
X192335Y96666D01*
X195067D01*
X194994Y96646D01*
D02*
G37*
G36*
X194689Y93905D02*
X194746Y93019D01*
X194781Y92803D01*
X194823Y92626D01*
X194872Y92488D01*
X194929Y92390D01*
X194994Y92330D01*
X195067Y92311D01*
X192335D01*
X192407Y92330D01*
X192472Y92390D01*
X192529Y92488D01*
X192579Y92626D01*
X192621Y92803D01*
X192656Y93019D01*
X192682Y93275D01*
X192713Y93905D01*
X192717Y94279D01*
X194685D01*
X194689Y93905D01*
D02*
G37*
G36*
X194994Y88772D02*
X194929Y88713D01*
X194872Y88614D01*
X194823Y88477D01*
X194781Y88299D01*
X194746Y88083D01*
X194719Y87827D01*
X194689Y87197D01*
X194685Y86823D01*
X192717D01*
X192713Y87197D01*
X192656Y88083D01*
X192621Y88299D01*
X192579Y88477D01*
X192529Y88614D01*
X192472Y88713D01*
X192407Y88772D01*
X192335Y88792D01*
X195067D01*
X194994Y88772D01*
D02*
G37*
G36*
X194689Y86031D02*
X194746Y85145D01*
X194781Y84929D01*
X194823Y84752D01*
X194872Y84614D01*
X194929Y84516D01*
X194994Y84456D01*
X195067Y84437D01*
X192335D01*
X192407Y84456D01*
X192472Y84516D01*
X192529Y84614D01*
X192579Y84752D01*
X192621Y84929D01*
X192656Y85145D01*
X192682Y85401D01*
X192713Y86031D01*
X192717Y86405D01*
X194685D01*
X194689Y86031D01*
D02*
G37*
G36*
X177464Y107264D02*
X177116Y106945D01*
X176804Y106624D01*
X176529Y106302D01*
X176290Y105978D01*
X176089Y105654D01*
X175923Y105327D01*
X175795Y105000D01*
X175703Y104671D01*
X175648Y104340D01*
X175630Y104009D01*
X173661Y104131D01*
X173644Y104451D01*
X173593Y104777D01*
X173509Y105109D01*
X173390Y105446D01*
X173237Y105790D01*
X173050Y106139D01*
X172829Y106494D01*
X172574Y106855D01*
X171962Y107595D01*
X177464Y107264D01*
D02*
G37*
G36*
X175631Y101779D02*
X175723Y100264D01*
X175748Y100205D01*
X175775Y100185D01*
X173044D01*
X173161Y100205D01*
X173266Y100264D01*
X173359Y100362D01*
X173439Y100500D01*
X173507Y100677D01*
X173563Y100893D01*
X173606Y101149D01*
X173637Y101445D01*
X173661Y102153D01*
X175630D01*
X175631Y101779D01*
D02*
G37*
G36*
X175703Y96646D02*
X175638Y96587D01*
X175581Y96488D01*
X175531Y96351D01*
X175489Y96173D01*
X175455Y95957D01*
X175428Y95701D01*
X175398Y95071D01*
X175394Y94697D01*
X173425D01*
X173421Y95071D01*
X173364Y95957D01*
X173330Y96173D01*
X173288Y96351D01*
X173238Y96488D01*
X173181Y96587D01*
X173116Y96646D01*
X173044Y96666D01*
X175775D01*
X175703Y96646D01*
D02*
G37*
G36*
X175398Y93905D02*
X175455Y93019D01*
X175489Y92803D01*
X175531Y92626D01*
X175581Y92488D01*
X175638Y92390D01*
X175703Y92330D01*
X175775Y92311D01*
X173044D01*
X173116Y92330D01*
X173181Y92390D01*
X173238Y92488D01*
X173288Y92626D01*
X173330Y92803D01*
X173364Y93019D01*
X173391Y93275D01*
X173421Y93905D01*
X173425Y94279D01*
X175394D01*
X175398Y93905D01*
D02*
G37*
G36*
X175703Y88772D02*
X175638Y88713D01*
X175581Y88614D01*
X175531Y88477D01*
X175489Y88299D01*
X175455Y88083D01*
X175428Y87827D01*
X175398Y87197D01*
X175394Y86823D01*
X173425D01*
X173421Y87197D01*
X173364Y88083D01*
X173330Y88299D01*
X173288Y88477D01*
X173238Y88614D01*
X173181Y88713D01*
X173116Y88772D01*
X173044Y88792D01*
X175775D01*
X175703Y88772D01*
D02*
G37*
G36*
X175398Y86031D02*
X175455Y85145D01*
X175489Y84929D01*
X175531Y84752D01*
X175581Y84614D01*
X175638Y84516D01*
X175703Y84456D01*
X175775Y84437D01*
X173044D01*
X173116Y84456D01*
X173181Y84516D01*
X173238Y84614D01*
X173288Y84752D01*
X173330Y84929D01*
X173364Y85145D01*
X173391Y85401D01*
X173421Y86031D01*
X173425Y86405D01*
X175394D01*
X175398Y86031D01*
D02*
G37*
%LPC*%
G36*
X145512Y150649D02*
X144223Y150479D01*
X143022Y149982D01*
X141991Y149190D01*
X141199Y148159D01*
X140702Y146958D01*
X140532Y145669D01*
X140702Y144380D01*
X141199Y143180D01*
X141991Y142148D01*
X143022Y141357D01*
X144223Y140859D01*
X145512Y140690D01*
X146801Y140859D01*
X148002Y141357D01*
X149033Y142148D01*
X149824Y143180D01*
X150322Y144380D01*
X150491Y145669D01*
X150322Y146958D01*
X149824Y148159D01*
X149033Y149190D01*
X148002Y149982D01*
X146801Y150479D01*
X145512Y150649D01*
D02*
G37*
%LPD*%
D10*
X234328Y241339D02*
X237580Y244590D01*
Y247451D01*
X223987Y241339D02*
X234328D01*
X237580Y247451D02*
X238160Y248031D01*
X122047Y236024D02*
X151742D01*
X96457Y231496D02*
X111417D01*
X115945Y236024D01*
X122047D01*
X96457Y251969D02*
X99606D01*
X111614Y263976D01*
X118081Y379724D02*
X129892D01*
X100394Y377953D02*
X116141D01*
X117294Y379106D02*
Y379134D01*
X117884Y379724D02*
X118081D01*
X129892Y379724D02*
X149971D01*
X116141Y377953D02*
X117294Y379106D01*
Y379134D02*
X117884Y379724D01*
X106693Y407874D02*
X117884D01*
X96457Y397638D02*
X106693Y407874D01*
X118081Y407579D02*
X127825D01*
X127924Y407480D02*
X149971D01*
X206299Y212598D02*
Y223228D01*
X203543Y225984D02*
X206299Y223228D01*
X203543Y226772D02*
X206821Y230050D01*
X203543Y226378D02*
Y226772D01*
X206821Y230050D02*
Y240158D01*
X194882Y212992D02*
X195276Y212598D01*
X198031Y225984D02*
Y226378D01*
X194882Y222835D02*
X198031Y225984D01*
X194882Y212992D02*
Y222835D01*
X191821Y237303D02*
Y240158D01*
Y232982D02*
Y237303D01*
Y232982D02*
X198031Y226772D01*
Y226378D02*
Y226772D01*
X201575Y274016D02*
X204331Y276772D01*
X201575Y273622D02*
Y274016D01*
X204331Y276772D02*
Y285433D01*
X206821Y261713D02*
Y267982D01*
Y259449D02*
Y261713D01*
X201575Y273228D02*
X206821Y267982D01*
X201575Y273228D02*
Y273622D01*
X193307Y276772D02*
X196063Y274016D01*
Y273622D02*
Y274016D01*
X193307Y276772D02*
Y285433D01*
X191821Y262303D02*
Y268987D01*
Y259449D02*
Y262303D01*
X196063Y273228D02*
Y273622D01*
X191821Y268987D02*
X196063Y273228D01*
X194882Y324803D02*
X208661Y311024D01*
X194882Y324803D02*
Y344488D01*
X195669Y369685D02*
X197819Y367535D01*
X198396Y358268D02*
Y366958D01*
X197819Y367535D02*
X198396Y366958D01*
X195669Y369685D02*
Y370079D01*
X187373Y358268D02*
Y366741D01*
X187939Y367307D01*
Y367466D02*
X190157Y369685D01*
X187939Y367307D02*
Y367466D01*
X190157Y369685D02*
Y370079D01*
X200916Y383957D02*
Y384252D01*
Y375719D02*
Y383957D01*
X195669Y370472D02*
X200916Y375719D01*
X195669Y370079D02*
Y370472D01*
X185916Y381398D02*
Y384252D01*
Y374714D02*
Y381398D01*
Y374714D02*
X190157Y370472D01*
Y370079D02*
Y370472D01*
X189764Y415748D02*
Y416142D01*
X187402Y418504D02*
X189764Y416142D01*
Y415748D02*
X190157Y415354D01*
X187402Y418504D02*
Y427165D01*
X195669Y415354D02*
Y415748D01*
X198425Y418504D01*
Y427165D01*
X200916Y403543D02*
Y410108D01*
X196457Y414567D02*
X200916Y410108D01*
X196063Y414567D02*
X196457D01*
X195669Y414961D02*
X196063Y414567D01*
X195669Y414961D02*
Y415354D01*
X185916Y406398D02*
Y410719D01*
Y403543D02*
Y406398D01*
Y410719D02*
X190157Y414961D01*
Y415354D01*
X116142Y309055D02*
Y346457D01*
X132437Y250334D02*
X138657D01*
X132437D02*
Y255161D01*
Y244839D02*
Y250334D01*
X138657D02*
X139237Y250914D01*
X122047Y244291D02*
X122419Y243919D01*
X122047Y250000D02*
X125984D01*
X111614Y263976D02*
X122047D01*
X201821Y253122D02*
X202974Y251969D01*
X206821Y261713D02*
X206920Y261811D01*
X201821Y246079D02*
X208726D01*
X206920Y261811D02*
X216506D01*
X218475Y263779D01*
X223790D01*
X202974Y251969D02*
X218475D01*
X210710Y244094D02*
X221231D01*
X206821Y240158D02*
X214538D01*
X220317Y234378D01*
X223707D01*
X223833Y234252D01*
X221231Y244094D02*
X223987Y241339D01*
X208726Y246079D02*
X210710Y244094D01*
X201821Y246079D02*
X201821Y246079D01*
X196821Y251969D02*
Y259449D01*
X201821Y253122D02*
Y259449D01*
X192884Y250000D02*
X196821Y246063D01*
Y240158D02*
Y246063D01*
Y251969D02*
X201821Y246969D01*
Y246079D02*
Y246969D01*
Y240158D02*
Y246079D01*
X185826Y395669D02*
X190916Y390579D01*
X184833Y407480D02*
X185916Y406398D01*
X190916Y395691D02*
Y403543D01*
X202874Y391262D02*
X206888Y387248D01*
X200916Y383957D02*
X201014Y383858D01*
X206664D01*
X195817Y384350D02*
X195916Y384252D01*
X206888Y387248D02*
X223833D01*
X195335Y391262D02*
X202874D01*
X206664Y383858D02*
X210474Y380048D01*
X160995Y407480D02*
X184833D01*
X223833Y387248D02*
X228317Y391732D01*
X195916Y403543D02*
X196014Y403445D01*
X204695Y403543D02*
X208632Y407480D01*
X196014Y400591D02*
X200935Y395669D01*
X196014Y400591D02*
Y403445D01*
X200916Y403543D02*
X204695D01*
X200935Y395669D02*
X212569D01*
X208632Y407480D02*
X213947D01*
X190916Y395691D02*
X194853Y391754D01*
Y391732D02*
X195817Y390768D01*
Y384350D02*
Y390768D01*
X190916Y384252D02*
Y390579D01*
X194853Y391732D02*
Y391754D01*
X170050Y395669D02*
X185826D01*
X184439Y379921D02*
X185916Y381398D01*
X129892Y393602D02*
Y399410D01*
Y393602D02*
X131959Y395669D01*
X139735D01*
X161388Y379921D02*
X184439D01*
X129892Y387795D02*
Y393602D01*
X213821Y380048D02*
X213947Y379921D01*
X210474Y380048D02*
X213821D01*
X123407Y395089D02*
X123987Y395669D01*
X127825Y407579D02*
X127924Y407480D01*
X119371Y395089D02*
X123407D01*
X117983Y407677D02*
X118081Y407579D01*
Y393799D02*
X119371Y395089D01*
X118081Y393799D02*
Y399606D01*
Y387992D02*
Y393799D01*
X122441Y263583D02*
X131496D01*
X132283D02*
X151742D01*
X122047Y263976D02*
X122441Y263583D01*
X131890Y263976D02*
X132283Y263583D01*
X131496D02*
X131890Y263976D01*
X151742Y236024D02*
X151939Y236221D01*
X151742Y263583D02*
X151939Y263779D01*
X122047Y244291D02*
Y250000D01*
Y255709D01*
X131890Y244291D02*
X132437Y244839D01*
X131890Y255709D02*
X132437Y255161D01*
X190345Y263779D02*
X191821Y262303D01*
X175955Y250000D02*
X192884D01*
X170443D02*
X170443Y250000D01*
X162963Y236221D02*
X190739D01*
X162963Y263779D02*
X190345D01*
X193701Y103150D02*
X194882Y104331D01*
X174646Y110000D02*
X174882Y110236D01*
X194882Y104331D02*
Y110236D01*
X174646Y98661D02*
Y110000D01*
X193701Y98425D02*
Y103150D01*
X174409Y98425D02*
X174646Y98661D01*
X190739Y236221D02*
X191821Y237303D01*
X193701Y90551D02*
Y98425D01*
Y82677D02*
Y90551D01*
X174409Y82677D02*
Y90551D01*
Y98425D01*
D18*
X96457Y231496D02*
D03*
Y251969D02*
D03*
Y377165D02*
D03*
Y397638D02*
D03*
D19*
X195669Y415354D02*
D03*
X190157D02*
D03*
X179921Y82677D02*
D03*
X174409D02*
D03*
X179921Y90551D02*
D03*
X174409D02*
D03*
X179921Y98425D02*
D03*
X174409D02*
D03*
X134646Y476378D02*
D03*
X129134D02*
D03*
X148425Y484252D02*
D03*
X142913D02*
D03*
X148425Y492126D02*
D03*
X142913D02*
D03*
X129134D02*
D03*
X134646D02*
D03*
Y484252D02*
D03*
X129134D02*
D03*
X142913Y476378D02*
D03*
X148425D02*
D03*
X170050Y395669D02*
D03*
X164538D02*
D03*
X195669Y370079D02*
D03*
X190157D02*
D03*
X203543Y226378D02*
D03*
X198031D02*
D03*
X175955Y250000D02*
D03*
X170443D02*
D03*
X201575Y273622D02*
D03*
X196063D02*
D03*
X193701Y82677D02*
D03*
X188189D02*
D03*
X193701Y90551D02*
D03*
X188189D02*
D03*
X193701Y98425D02*
D03*
X188189D02*
D03*
D20*
X206299Y212598D02*
D03*
X195276D02*
D03*
X160995Y407480D02*
D03*
X149971D02*
D03*
X198425Y427165D02*
D03*
X187402D02*
D03*
X193307Y285433D02*
D03*
X204331D02*
D03*
X160995Y379921D02*
D03*
X149971D02*
D03*
X198396Y358268D02*
D03*
X187373D02*
D03*
X151939Y263779D02*
D03*
X162963D02*
D03*
Y236221D02*
D03*
X151939D02*
D03*
D21*
X129892Y407677D02*
D03*
Y399410D02*
D03*
X118081Y399606D02*
D03*
Y407874D02*
D03*
Y387992D02*
D03*
Y379724D02*
D03*
X122047Y255709D02*
D03*
Y263976D02*
D03*
Y244291D02*
D03*
Y236024D02*
D03*
X129892Y379528D02*
D03*
Y387795D02*
D03*
X131890Y263976D02*
D03*
Y255709D02*
D03*
Y236024D02*
D03*
Y244291D02*
D03*
D22*
X220472Y587402D02*
D03*
Y581890D02*
D03*
X204724Y587402D02*
D03*
Y581890D02*
D03*
X188976Y587402D02*
D03*
Y581890D02*
D03*
X108268Y170473D02*
D03*
Y175984D02*
D03*
Y156693D02*
D03*
Y162205D02*
D03*
X116142Y170473D02*
D03*
Y175984D02*
D03*
Y156693D02*
D03*
Y162205D02*
D03*
X220443Y392520D02*
D03*
Y387008D02*
D03*
X124016Y170473D02*
D03*
Y175984D02*
D03*
Y156693D02*
D03*
Y162205D02*
D03*
X230286Y246850D02*
D03*
Y241339D02*
D03*
D23*
X185916Y384252D02*
D03*
X190916D02*
D03*
X195916D02*
D03*
X200916D02*
D03*
X191821Y240158D02*
D03*
X196821D02*
D03*
X201821D02*
D03*
X206821D02*
D03*
D24*
X185916Y403543D02*
D03*
X190916D02*
D03*
X195916D02*
D03*
X200916D02*
D03*
X191821Y259449D02*
D03*
X196821D02*
D03*
X201821D02*
D03*
X206821D02*
D03*
D25*
X219065Y407480D02*
D03*
X213947D02*
D03*
Y379921D02*
D03*
X219065D02*
D03*
X223790Y234252D02*
D03*
X228908D02*
D03*
X223790Y263779D02*
D03*
X228908D02*
D03*
D26*
X263779Y297244D02*
D03*
Y347244D02*
D03*
D27*
X250276Y290232D02*
D03*
Y354252D02*
D03*
D28*
X227795Y295232D02*
D03*
Y304248D02*
D03*
Y340232D02*
D03*
Y349252D02*
D03*
X246772Y308256D02*
D03*
X253780Y312252D02*
D03*
X246772Y316248D02*
D03*
X253780Y320244D02*
D03*
X246772Y324240D02*
D03*
X253780Y328236D02*
D03*
X246772Y332232D02*
D03*
D29*
X253780Y336228D02*
D03*
D30*
X166220Y504567D02*
D03*
Y464567D02*
D03*
X236221Y504567D02*
D03*
Y464567D02*
D03*
X176221D02*
D03*
X145512Y185669D02*
D03*
Y145669D02*
D03*
X215512Y185669D02*
D03*
Y145669D02*
D03*
X155512D02*
D03*
X174882Y110236D02*
D03*
X224882D02*
D03*
X214882D02*
D03*
X194882D02*
D03*
X184882D02*
D03*
D31*
X68554Y217894D02*
D03*
Y316323D02*
D03*
X67014Y54508D02*
D03*
Y152937D02*
D03*
X67008Y365098D02*
D03*
Y463528D02*
D03*
Y627504D02*
D03*
Y529075D02*
D03*
D32*
X62963Y283465D02*
D03*
Y272559D02*
D03*
Y261653D02*
D03*
Y250748D02*
D03*
X74144Y288921D02*
D03*
Y278016D02*
D03*
Y267106D02*
D03*
Y256201D02*
D03*
X61424Y120079D02*
D03*
Y109173D02*
D03*
Y98268D02*
D03*
Y87362D02*
D03*
X72605Y125535D02*
D03*
Y114630D02*
D03*
Y103720D02*
D03*
Y92815D02*
D03*
X61417Y430669D02*
D03*
Y419764D02*
D03*
Y408858D02*
D03*
Y397953D02*
D03*
X72598Y436126D02*
D03*
Y425220D02*
D03*
Y414311D02*
D03*
Y403406D02*
D03*
Y567382D02*
D03*
Y578287D02*
D03*
Y589197D02*
D03*
Y600102D02*
D03*
X61417Y561929D02*
D03*
Y572835D02*
D03*
Y583740D02*
D03*
Y594646D02*
D03*
D33*
X74144Y245295D02*
D03*
X72605Y81910D02*
D03*
X72598Y392500D02*
D03*
Y556476D02*
D03*
D34*
X49213Y21654D02*
D03*
X47244Y681102D02*
D03*
X283465Y21654D02*
D03*
X281496Y681102D02*
D03*
D35*
X194967Y549213D02*
D03*
X194882Y620079D02*
D03*
D36*
X220006Y529213D02*
D03*
X180006D02*
D03*
Y569213D02*
D03*
X220006D02*
D03*
X219921Y600079D02*
D03*
X179921D02*
D03*
Y640079D02*
D03*
X219921D02*
D03*
D37*
X133858Y198819D02*
D03*
X206693Y598425D02*
D03*
X192913D02*
D03*
X222441Y624016D02*
D03*
X226378Y366142D02*
D03*
X194882Y344488D02*
D03*
X208661Y311024D02*
D03*
Y344488D02*
D03*
X214567Y338270D02*
D03*
X190945Y442913D02*
D03*
X196850Y480315D02*
D03*
X112205Y435039D02*
D03*
X185039Y161417D02*
D03*
X116142Y309055D02*
D03*
Y346457D02*
D03*
X139237Y250914D02*
D03*
X125984Y250000D02*
D03*
X84646Y399606D02*
D03*
X96457Y407480D02*
D03*
X92520Y437008D02*
D03*
X90551Y462598D02*
D03*
X64961Y444882D02*
D03*
X220443Y399606D02*
D03*
X212569Y395669D02*
D03*
X216535Y417323D02*
D03*
X159449Y446850D02*
D03*
X114173Y448819D02*
D03*
X118110Y462598D02*
D03*
X143701D02*
D03*
X173228Y482283D02*
D03*
X123987Y395669D02*
D03*
X141732Y419291D02*
D03*
X157451Y395669D02*
D03*
X139735D02*
D03*
X185039Y76772D02*
D03*
X116142Y183071D02*
D03*
X112205Y149606D02*
D03*
X125984D02*
D03*
X68898Y173228D02*
D03*
X218475Y251969D02*
D03*
X84646Y255906D02*
D03*
X163386Y251969D02*
D03*
X226349Y255906D02*
D03*
X92520Y261811D02*
D03*
X155512Y314961D02*
D03*
X129921Y285433D02*
D03*
X237268Y305059D02*
D03*
X53150Y293307D02*
D03*
X238160Y248031D02*
D03*
X185039Y210630D02*
D03*
X242126Y216535D02*
D03*
X51181Y269685D02*
D03*
X33465Y230315D02*
D03*
X41339Y196850D02*
D03*
X228317Y391732D02*
D03*
X242097Y368110D02*
D03*
X49213Y230315D02*
D03*
X251969Y385827D02*
D03*
X242097Y374110D02*
D03*
X35433Y275590D02*
D03*
X62992Y200787D02*
D03*
X127953Y364173D02*
D03*
X153543Y350394D02*
D03*
D38*
X247182Y253393D02*
Y283913D01*
X243999Y245996D02*
Y250210D01*
X247182Y253393D01*
X233175Y235172D02*
X243999Y245996D01*
X243803Y253980D02*
X244682Y254859D01*
Y282878D01*
X228495Y263779D02*
X228908D01*
X242560Y253980D02*
X243803D01*
X232761Y263779D02*
X242560Y253980D01*
X241242Y286317D02*
X244682Y282878D01*
X243742Y287352D02*
X247182Y283913D01*
X241242Y286317D02*
Y293974D01*
X243742Y287352D02*
Y292938D01*
X215514Y338270D02*
X218262Y335521D01*
X214567Y338270D02*
X215514D01*
X219597Y335521D02*
X237268Y317850D01*
X218262Y335521D02*
X219597D01*
X229828Y235172D02*
X233175D01*
X228908Y263779D02*
X232761D01*
X241242Y293974D02*
X251851Y304583D01*
X243204Y318194D02*
X243674D01*
X242144Y319255D02*
X243204Y318194D01*
X245620Y316248D02*
X246772D01*
X247135Y307893D02*
X250660D01*
X243674Y318194D02*
X245620Y316248D01*
X251851Y304583D02*
Y306702D01*
X246772Y308256D02*
X247135Y307893D01*
X250660D02*
X251851Y306702D01*
X237268Y305059D02*
Y317850D01*
X228908Y234252D02*
X229828Y235172D01*
X234223Y388799D02*
Y398144D01*
X224887Y407480D02*
X234223Y398144D01*
X219065Y407480D02*
X224887D01*
X234223Y388799D02*
X236957Y386065D01*
X233578Y385908D02*
X234457Y385029D01*
X236957Y373240D02*
Y386065D01*
X234457Y372204D02*
Y385029D01*
X239468Y369860D02*
X241218Y368110D01*
X236801Y369860D02*
X239468D01*
X241218Y368110D02*
X242097D01*
X241218Y374110D02*
X242097D01*
X237836Y372360D02*
X239468D01*
X236957Y373240D02*
X237836Y372360D01*
X239468D02*
X241218Y374110D01*
X219065Y379921D02*
X226349D01*
X232336Y385908D01*
X233578D01*
X234457Y372204D02*
X236801Y369860D01*
X242144Y334149D02*
X248851Y340856D01*
X258394Y332612D02*
X259636D01*
X260515Y331733D01*
X253780Y328236D02*
X254018D01*
X242144Y319255D02*
Y334149D01*
X260515Y323217D02*
Y331733D01*
X263015Y324252D02*
X276122Y311145D01*
X260515Y323217D02*
X273622Y310110D01*
X244238Y98970D02*
X275390Y130122D01*
X208891Y67159D02*
X273622Y131890D01*
Y310110D01*
X275390Y130122D02*
X276122Y130854D01*
X275390Y130122D02*
Y130122D01*
X276122Y130854D02*
Y311145D01*
X258407Y337376D02*
X263015Y332769D01*
Y324252D02*
Y332769D01*
X244238Y98970D02*
X244238D01*
X66431Y73699D02*
Y82354D01*
X68931Y74735D02*
Y78236D01*
Y74735D02*
X76507Y67159D01*
X66431Y73699D02*
X75471Y64659D01*
X61424Y87362D02*
X61910Y86876D01*
X61424Y87362D02*
X66431Y82354D01*
X68931Y78236D02*
X72605Y81910D01*
X75471Y64659D02*
X209927D01*
X76507Y67159D02*
X208891D01*
X209927Y64659D02*
X244238Y98970D01*
X243742Y292938D02*
X254351Y303548D01*
X253780Y312252D02*
X253934Y312097D01*
X254351Y303548D02*
Y307737D01*
X253934Y308155D02*
Y312097D01*
Y308155D02*
X254351Y307737D01*
X254018Y328236D02*
X258394Y332612D01*
X257382Y340856D02*
X258407Y339831D01*
X248851Y340856D02*
X257382D01*
X258407Y337376D02*
Y339831D01*
M02*
