G04*
G04 #@! TF.GenerationSoftware,Altium Limited,Altium Designer,24.0.1 (36)*
G04*
G04 Layer_Color=8388736*
%FSLAX25Y25*%
%MOIN*%
G70*
G04*
G04 #@! TF.SameCoordinates,D971FA4E-125B-417E-B361-90485E0FAC03*
G04*
G04*
G04 #@! TF.FilePolarity,Positive*
G04*
G01*
G75*
%ADD14C,0.01000*%
D14*
X47244Y702756D02*
X46247Y702731D01*
X45253Y702655D01*
X44263Y702529D01*
X43281Y702353D01*
X42310Y702128D01*
X41351Y701853D01*
X40407Y701531D01*
X39481Y701161D01*
X38575Y700744D01*
X37691Y700282D01*
X36831Y699777D01*
X35999Y699228D01*
X35195Y698637D01*
X34422Y698007D01*
X33682Y697338D01*
X32976Y696633D01*
X32308Y695893D01*
X31678Y695120D01*
X31087Y694316D01*
X30538Y693483D01*
X30033Y692624D01*
X29571Y691740D01*
X29154Y690834D01*
X28784Y689908D01*
X28462Y688964D01*
X28188Y688005D01*
X27962Y687033D01*
X27786Y686052D01*
X27660Y685062D01*
X27584Y684068D01*
X27559Y683071D01*
X305118D02*
X305093Y684068D01*
X305017Y685062D01*
X304891Y686052D01*
X304715Y687033D01*
X304490Y688005D01*
X304215Y688964D01*
X303893Y689908D01*
X303523Y690834D01*
X303106Y691740D01*
X302645Y692624D01*
X302139Y693484D01*
X301590Y694316D01*
X300999Y695120D01*
X300369Y695893D01*
X299701Y696633D01*
X298995Y697338D01*
X298255Y698007D01*
X297482Y698637D01*
X296678Y699228D01*
X295846Y699777D01*
X294986Y700282D01*
X294102Y700744D01*
X293196Y701161D01*
X292270Y701531D01*
X291326Y701853D01*
X290367Y702128D01*
X289396Y702353D01*
X288414Y702529D01*
X287425Y702655D01*
X286430Y702731D01*
X285433Y702756D01*
X27559Y23622D02*
X27584Y22625D01*
X27660Y21631D01*
X27786Y20641D01*
X27962Y19659D01*
X28188Y18688D01*
X28462Y17729D01*
X28784Y16785D01*
X29154Y15859D01*
X29571Y14953D01*
X30033Y14069D01*
X30538Y13209D01*
X31087Y12377D01*
X31678Y11573D01*
X32308Y10800D01*
X32976Y10060D01*
X33682Y9354D01*
X34422Y8686D01*
X35195Y8056D01*
X35999Y7465D01*
X36831Y6916D01*
X37691Y6410D01*
X38575Y5949D01*
X39481Y5532D01*
X40407Y5162D01*
X41351Y4840D01*
X42310Y4565D01*
X43282Y4340D01*
X44263Y4164D01*
X45253Y4038D01*
X46247Y3962D01*
X47244Y3937D01*
X285433D02*
X286430Y3962D01*
X287425Y4038D01*
X288414Y4164D01*
X289396Y4340D01*
X290367Y4565D01*
X291326Y4840D01*
X292270Y5162D01*
X293196Y5532D01*
X294102Y5949D01*
X294986Y6410D01*
X295846Y6916D01*
X296678Y7465D01*
X297482Y8056D01*
X298255Y8686D01*
X298995Y9354D01*
X299701Y10060D01*
X300369Y10800D01*
X300999Y11573D01*
X301590Y12377D01*
X302139Y13209D01*
X302645Y14069D01*
X303106Y14953D01*
X303523Y15859D01*
X303893Y16785D01*
X304215Y17729D01*
X304490Y18688D01*
X304715Y19659D01*
X304891Y20641D01*
X305017Y21631D01*
X305093Y22625D01*
X305118Y23622D01*
X305118Y683071D02*
X305118Y23622D01*
X47244Y702756D02*
X285433D01*
X47244Y3937D02*
X285433D01*
X27559Y23622D02*
X27559Y683071D01*
M02*
