G04*
G04 #@! TF.GenerationSoftware,Altium Limited,Altium Designer,24.0.1 (36)*
G04*
G04 Layer_Color=8421504*
%FSLAX25Y25*%
%MOIN*%
G70*
G04*
G04 #@! TF.SameCoordinates,D971FA4E-125B-417E-B361-90485E0FAC03*
G04*
G04*
G04 #@! TF.FilePolarity,Positive*
G04*
G01*
G75*
%ADD17R,0.02756X0.03543*%
%ADD18R,0.04724X0.06496*%
%ADD19R,0.06496X0.04724*%
%ADD20R,0.03543X0.03150*%
%ADD21R,0.03543X0.02756*%
%ADD22R,0.02165X0.07874*%
%ADD23R,0.02165X0.07874*%
%ADD24R,0.03347X0.03740*%
D17*
X195669Y415354D02*
D03*
X190157D02*
D03*
X179921Y82677D02*
D03*
X174409D02*
D03*
X179921Y90551D02*
D03*
X174409D02*
D03*
X179921Y98425D02*
D03*
X174409D02*
D03*
X134646Y476378D02*
D03*
X129134D02*
D03*
X148425Y484252D02*
D03*
X142913D02*
D03*
X148425Y492126D02*
D03*
X142913D02*
D03*
X129134D02*
D03*
X134646D02*
D03*
Y484252D02*
D03*
X129134D02*
D03*
X142913Y476378D02*
D03*
X148425D02*
D03*
X170050Y395669D02*
D03*
X164538D02*
D03*
X195669Y370079D02*
D03*
X190157D02*
D03*
X203543Y226378D02*
D03*
X198031D02*
D03*
X175955Y250000D02*
D03*
X170443D02*
D03*
X201575Y273622D02*
D03*
X196063D02*
D03*
X193701Y82677D02*
D03*
X188189D02*
D03*
X193701Y90551D02*
D03*
X188189D02*
D03*
X193701Y98425D02*
D03*
X188189D02*
D03*
D18*
X206299Y212598D02*
D03*
X195276D02*
D03*
X160995Y407480D02*
D03*
X149971D02*
D03*
X198425Y427165D02*
D03*
X187402D02*
D03*
X193307Y285433D02*
D03*
X204331D02*
D03*
X160995Y379921D02*
D03*
X149971D02*
D03*
X198396Y358268D02*
D03*
X187373D02*
D03*
X151939Y263779D02*
D03*
X162963D02*
D03*
Y236221D02*
D03*
X151939D02*
D03*
D19*
X98425Y395276D02*
D03*
Y384252D02*
D03*
Y247638D02*
D03*
Y236614D02*
D03*
D20*
X129892Y407677D02*
D03*
Y399410D02*
D03*
X118081Y399606D02*
D03*
Y407874D02*
D03*
Y387992D02*
D03*
Y379724D02*
D03*
X122047Y255709D02*
D03*
Y263976D02*
D03*
Y244291D02*
D03*
Y236024D02*
D03*
X129892Y379528D02*
D03*
Y387795D02*
D03*
X131890Y263976D02*
D03*
Y255709D02*
D03*
Y236024D02*
D03*
Y244291D02*
D03*
D21*
X220472Y587402D02*
D03*
Y581890D02*
D03*
X204724Y587402D02*
D03*
Y581890D02*
D03*
X188976Y587402D02*
D03*
Y581890D02*
D03*
X108268Y170473D02*
D03*
Y175984D02*
D03*
Y156693D02*
D03*
Y162205D02*
D03*
X116142Y170473D02*
D03*
Y175984D02*
D03*
Y156693D02*
D03*
Y162205D02*
D03*
X220443Y392520D02*
D03*
Y387008D02*
D03*
X124016Y170473D02*
D03*
Y175984D02*
D03*
Y156693D02*
D03*
Y162205D02*
D03*
X230286Y246850D02*
D03*
Y241339D02*
D03*
D22*
X185916Y384252D02*
D03*
X190916D02*
D03*
X195916D02*
D03*
X200916D02*
D03*
X191821Y240158D02*
D03*
X196821D02*
D03*
X201821D02*
D03*
X206821D02*
D03*
D23*
X185916Y403543D02*
D03*
X190916D02*
D03*
X195916D02*
D03*
X200916D02*
D03*
X191821Y259449D02*
D03*
X196821D02*
D03*
X201821D02*
D03*
X206821D02*
D03*
D24*
X219065Y407480D02*
D03*
X213947D02*
D03*
Y379921D02*
D03*
X219065D02*
D03*
X223790Y234252D02*
D03*
X228908D02*
D03*
X223790Y263779D02*
D03*
X228908D02*
D03*
M02*
