G04*
G04 #@! TF.GenerationSoftware,Altium Limited,Altium Designer,24.0.1 (36)*
G04*
G04 Layer_Color=8388736*
%FSLAX25Y25*%
%MOIN*%
G70*
G04*
G04 #@! TF.SameCoordinates,D971FA4E-125B-417E-B361-90485E0FAC03*
G04*
G04*
G04 #@! TF.FilePolarity,Negative*
G04*
G01*
G75*
%ADD17R,0.02756X0.03543*%
%ADD18R,0.04724X0.06496*%
%ADD19R,0.06496X0.04724*%
%ADD20R,0.03543X0.03150*%
%ADD21R,0.03543X0.02756*%
%ADD22R,0.02165X0.07874*%
%ADD23R,0.02165X0.07874*%
%ADD24R,0.03347X0.03740*%
%ADD25C,0.06496*%
%ADD26C,0.09567*%
%ADD27C,0.05756*%
%ADD28R,0.05756X0.05756*%
%ADD29C,0.07874*%
%ADD30C,0.18779*%
%ADD31C,0.06909*%
%ADD32R,0.06909X0.06909*%
%ADD33C,0.19685*%
%ADD34C,0.13287*%
%ADD35C,0.07650*%
%ADD36C,0.05000*%
D17*
X195669Y415354D02*
D03*
X190157D02*
D03*
X179921Y82677D02*
D03*
X174409D02*
D03*
X179921Y90551D02*
D03*
X174409D02*
D03*
X179921Y98425D02*
D03*
X174409D02*
D03*
X134646Y476378D02*
D03*
X129134D02*
D03*
X148425Y484252D02*
D03*
X142913D02*
D03*
X148425Y492126D02*
D03*
X142913D02*
D03*
X129134D02*
D03*
X134646D02*
D03*
Y484252D02*
D03*
X129134D02*
D03*
X142913Y476378D02*
D03*
X148425D02*
D03*
X170050Y395669D02*
D03*
X164538D02*
D03*
X195669Y370079D02*
D03*
X190157D02*
D03*
X203543Y226378D02*
D03*
X198031D02*
D03*
X175955Y250000D02*
D03*
X170443D02*
D03*
X201575Y273622D02*
D03*
X196063D02*
D03*
X193701Y82677D02*
D03*
X188189D02*
D03*
X193701Y90551D02*
D03*
X188189D02*
D03*
X193701Y98425D02*
D03*
X188189D02*
D03*
D18*
X206299Y212598D02*
D03*
X195276D02*
D03*
X160995Y407480D02*
D03*
X149971D02*
D03*
X198425Y427165D02*
D03*
X187402D02*
D03*
X193307Y285433D02*
D03*
X204331D02*
D03*
X160995Y379921D02*
D03*
X149971D02*
D03*
X198396Y358268D02*
D03*
X187373D02*
D03*
X151939Y263779D02*
D03*
X162963D02*
D03*
Y236221D02*
D03*
X151939D02*
D03*
D19*
X98425Y395276D02*
D03*
Y384252D02*
D03*
Y247638D02*
D03*
Y236614D02*
D03*
D20*
X129892Y407677D02*
D03*
Y399410D02*
D03*
X118081Y399606D02*
D03*
Y407874D02*
D03*
Y387992D02*
D03*
Y379724D02*
D03*
X122047Y255709D02*
D03*
Y263976D02*
D03*
Y244291D02*
D03*
Y236024D02*
D03*
X129892Y379528D02*
D03*
Y387795D02*
D03*
X131890Y263976D02*
D03*
Y255709D02*
D03*
Y236024D02*
D03*
Y244291D02*
D03*
D21*
X220472Y587402D02*
D03*
Y581890D02*
D03*
X204724Y587402D02*
D03*
Y581890D02*
D03*
X188976Y587402D02*
D03*
Y581890D02*
D03*
X108268Y170473D02*
D03*
Y175984D02*
D03*
Y156693D02*
D03*
Y162205D02*
D03*
X116142Y170473D02*
D03*
Y175984D02*
D03*
Y156693D02*
D03*
Y162205D02*
D03*
X220443Y392520D02*
D03*
Y387008D02*
D03*
X124016Y170473D02*
D03*
Y175984D02*
D03*
Y156693D02*
D03*
Y162205D02*
D03*
X230286Y246850D02*
D03*
Y241339D02*
D03*
D22*
X185916Y384252D02*
D03*
X190916D02*
D03*
X195916D02*
D03*
X200916D02*
D03*
X191821Y240158D02*
D03*
X196821D02*
D03*
X201821D02*
D03*
X206821D02*
D03*
D23*
X185916Y403543D02*
D03*
X190916D02*
D03*
X195916D02*
D03*
X200916D02*
D03*
X191821Y259449D02*
D03*
X196821D02*
D03*
X201821D02*
D03*
X206821D02*
D03*
D24*
X219065Y407480D02*
D03*
X213947D02*
D03*
Y379921D02*
D03*
X219065D02*
D03*
X223790Y234252D02*
D03*
X228908D02*
D03*
X223790Y263779D02*
D03*
X228908D02*
D03*
D25*
X263779Y297244D02*
D03*
Y347244D02*
D03*
D26*
X250276Y290232D02*
D03*
Y354252D02*
D03*
D27*
X227795Y295232D02*
D03*
Y304248D02*
D03*
Y340232D02*
D03*
Y349252D02*
D03*
X246772Y308256D02*
D03*
X253780Y312252D02*
D03*
X246772Y316248D02*
D03*
X253780Y320244D02*
D03*
X246772Y324240D02*
D03*
X253780Y328236D02*
D03*
X246772Y332232D02*
D03*
D28*
X253780Y336228D02*
D03*
D29*
X166220Y504567D02*
D03*
Y464567D02*
D03*
X236221Y504567D02*
D03*
Y464567D02*
D03*
X176221D02*
D03*
X145512Y185669D02*
D03*
Y145669D02*
D03*
X215512Y185669D02*
D03*
Y145669D02*
D03*
X155512D02*
D03*
X174882Y110236D02*
D03*
X224882D02*
D03*
X214882D02*
D03*
X194882D02*
D03*
X184882D02*
D03*
D30*
X68554Y217894D02*
D03*
Y316323D02*
D03*
X67014Y54508D02*
D03*
Y152937D02*
D03*
X67008Y365098D02*
D03*
Y463528D02*
D03*
Y627504D02*
D03*
Y529075D02*
D03*
D31*
X62963Y283465D02*
D03*
Y272559D02*
D03*
Y261653D02*
D03*
Y250748D02*
D03*
X74144Y288921D02*
D03*
Y278016D02*
D03*
Y267106D02*
D03*
Y256201D02*
D03*
X61424Y120079D02*
D03*
Y109173D02*
D03*
Y98268D02*
D03*
Y87362D02*
D03*
X72605Y125535D02*
D03*
Y114630D02*
D03*
Y103720D02*
D03*
Y92815D02*
D03*
X61417Y430669D02*
D03*
Y419764D02*
D03*
Y408858D02*
D03*
Y397953D02*
D03*
X72598Y436126D02*
D03*
Y425220D02*
D03*
Y414311D02*
D03*
Y403406D02*
D03*
Y567382D02*
D03*
Y578287D02*
D03*
Y589197D02*
D03*
Y600102D02*
D03*
X61417Y561929D02*
D03*
Y572835D02*
D03*
Y583740D02*
D03*
Y594646D02*
D03*
D32*
X74144Y245295D02*
D03*
X72605Y81910D02*
D03*
X72598Y392500D02*
D03*
Y556476D02*
D03*
D33*
X49213Y21654D02*
D03*
X47244Y681102D02*
D03*
X283465Y21654D02*
D03*
X281496Y681102D02*
D03*
D34*
X194967Y549213D02*
D03*
X194882Y620079D02*
D03*
D35*
X220006Y529213D02*
D03*
X180006D02*
D03*
Y569213D02*
D03*
X220006D02*
D03*
X219921Y600079D02*
D03*
X179921D02*
D03*
Y640079D02*
D03*
X219921D02*
D03*
D36*
X206693Y598425D02*
D03*
X192913D02*
D03*
X222441Y624016D02*
D03*
X118110Y208661D02*
D03*
X102362Y273622D02*
D03*
X226378Y366142D02*
D03*
X194882Y344488D02*
D03*
X208661Y311024D02*
D03*
Y344488D02*
D03*
X214567Y338270D02*
D03*
X190945Y442913D02*
D03*
X196850Y480315D02*
D03*
X112205Y435039D02*
D03*
X185039Y161417D02*
D03*
X116142Y309055D02*
D03*
Y346457D02*
D03*
X139237Y250914D02*
D03*
X125984Y250000D02*
D03*
X92520Y401575D02*
D03*
X100394Y403543D02*
D03*
X92520Y437008D02*
D03*
X90551Y462598D02*
D03*
X64961Y444882D02*
D03*
X220443Y399606D02*
D03*
X212569Y395669D02*
D03*
X216535Y417323D02*
D03*
X159449Y446850D02*
D03*
X114173Y448819D02*
D03*
X118110Y462598D02*
D03*
X143701D02*
D03*
X173228Y482283D02*
D03*
X123987Y395669D02*
D03*
X141732Y419291D02*
D03*
X157451Y395669D02*
D03*
X139735D02*
D03*
X185039Y76772D02*
D03*
X116142Y183071D02*
D03*
X112205Y149606D02*
D03*
X125984D02*
D03*
X68898Y173228D02*
D03*
X218475Y251969D02*
D03*
X90240Y253587D02*
D03*
X163386Y251969D02*
D03*
X226349Y255906D02*
D03*
X98114Y257524D02*
D03*
X155512Y314961D02*
D03*
X129921Y285433D02*
D03*
X237268Y305059D02*
D03*
X53150Y293307D02*
D03*
X238160Y248031D02*
D03*
X185039Y210630D02*
D03*
X242126Y216535D02*
D03*
X51181Y269685D02*
D03*
X33465Y230315D02*
D03*
X41339Y196850D02*
D03*
X228317Y391732D02*
D03*
X242097Y368110D02*
D03*
X49213Y230315D02*
D03*
X251969Y385827D02*
D03*
X242097Y374110D02*
D03*
X35433Y275590D02*
D03*
X62992Y200787D02*
D03*
X127953Y364173D02*
D03*
X153543Y350394D02*
D03*
M02*
