G04*
G04 #@! TF.GenerationSoftware,Altium Limited,Altium Designer,24.0.1 (36)*
G04*
G04 Layer_Physical_Order=2*
G04 Layer_Color=16711680*
%FSLAX25Y25*%
%MOIN*%
G70*
G04*
G04 #@! TF.SameCoordinates,D971FA4E-125B-417E-B361-90485E0FAC03*
G04*
G04*
G04 #@! TF.FilePolarity,Positive*
G04*
G01*
G75*
%ADD10C,0.01968*%
%ADD25C,0.06496*%
%ADD26C,0.09567*%
%ADD27C,0.05756*%
%ADD28R,0.05756X0.05756*%
%ADD29C,0.07874*%
%ADD30C,0.18779*%
%ADD31C,0.06909*%
%ADD32R,0.06909X0.06909*%
%ADD33C,0.19685*%
%ADD34C,0.13287*%
%ADD35C,0.07650*%
%ADD36C,0.05000*%
%ADD37C,0.01500*%
G36*
X297244Y585820D02*
X295425Y585067D01*
X245913Y634579D01*
X245582Y634800D01*
X245192Y634878D01*
X224328D01*
X223513Y636846D01*
X223782Y637116D01*
X224417Y638216D01*
X224746Y639443D01*
Y640714D01*
X224417Y641941D01*
X223782Y643041D01*
X222884Y643940D01*
X221784Y644575D01*
X220556Y644904D01*
X219286D01*
X218059Y644575D01*
X216959Y643940D01*
X216060Y643041D01*
X215425Y641941D01*
X215096Y640714D01*
Y639443D01*
X215425Y638216D01*
X216060Y637116D01*
X216330Y636846D01*
X215515Y634878D01*
X188976D01*
X188586Y634800D01*
X188255Y634579D01*
X182350Y628674D01*
X182129Y628343D01*
X182051Y627953D01*
Y608268D01*
X182129Y607877D01*
X182350Y607547D01*
X186517Y603380D01*
X186402Y602139D01*
X184417Y601941D01*
X183782Y603041D01*
X182884Y603940D01*
X181784Y604575D01*
X180556Y604904D01*
X179286D01*
X178059Y604575D01*
X176959Y603940D01*
X176060Y603041D01*
X175425Y601941D01*
X175096Y600714D01*
Y599443D01*
X175425Y598216D01*
X176060Y597116D01*
X176959Y596218D01*
X178059Y595583D01*
X179286Y595254D01*
X180556D01*
X181784Y595583D01*
X182884Y596218D01*
X183782Y597116D01*
X184417Y598216D01*
X184610Y598936D01*
X186579Y598677D01*
Y584646D01*
X186656Y584256D01*
X186878Y583925D01*
X187208Y583704D01*
X187598Y583626D01*
X261389D01*
X283975Y561040D01*
Y508313D01*
X284050Y507933D01*
X249578Y473460D01*
X234252D01*
X233862Y473383D01*
X233531Y473162D01*
X231562Y471193D01*
X229594Y469225D01*
X229373Y468894D01*
X229295Y468504D01*
Y458661D01*
X229373Y458271D01*
X229594Y457940D01*
X231562Y455972D01*
X231893Y455751D01*
X232283Y455673D01*
X251546D01*
X284414Y422806D01*
Y176498D01*
X260510Y152594D01*
X213688Y152594D01*
X213298Y152517D01*
X212967Y152296D01*
X212967Y152296D01*
X209470Y148799D01*
X209249Y148468D01*
X209172Y148078D01*
Y140204D01*
X209249Y139814D01*
X209470Y139483D01*
X219014Y129939D01*
Y104769D01*
X219092Y104379D01*
X219313Y104048D01*
X223689Y99673D01*
X224019Y99452D01*
X224410Y99374D01*
X255027D01*
X255417Y99452D01*
X255748Y99673D01*
X295425Y139350D01*
X297244Y138597D01*
Y23622D01*
X295127D01*
X295000Y24423D01*
X294425Y26193D01*
X293580Y27852D01*
X292485Y29358D01*
X291169Y30674D01*
X289663Y31769D01*
X288004Y32614D01*
X286234Y33189D01*
X284395Y33480D01*
X282534D01*
X280695Y33189D01*
X278925Y32614D01*
X277266Y31769D01*
X275760Y30674D01*
X274444Y29358D01*
X273349Y27852D01*
X272504Y26193D01*
X271929Y24423D01*
X271802Y23622D01*
X60875D01*
X60748Y24423D01*
X60173Y26193D01*
X59328Y27852D01*
X58234Y29358D01*
X56917Y30674D01*
X55411Y31769D01*
X53752Y32614D01*
X51982Y33189D01*
X50143Y33480D01*
X48282D01*
X46443Y33189D01*
X44673Y32614D01*
X43014Y31769D01*
X41508Y30674D01*
X40192Y29358D01*
X39097Y27852D01*
X38252Y26193D01*
X37677Y24423D01*
X37550Y23622D01*
X35433D01*
Y192836D01*
X37252Y193590D01*
X68447Y162394D01*
X68547Y162327D01*
X68636Y162246D01*
X68711Y162218D01*
X68778Y162173D01*
X68896Y162150D01*
X69009Y162108D01*
X69208Y162076D01*
X70611Y161621D01*
X71925Y160951D01*
X73118Y160084D01*
X74161Y159041D01*
X75028Y157848D01*
X75698Y156534D01*
X76154Y155131D01*
X76185Y154932D01*
X76227Y154819D01*
X76250Y154701D01*
X76295Y154634D01*
X76323Y154558D01*
X76405Y154470D01*
X76471Y154370D01*
X91799Y139043D01*
X92129Y138822D01*
X92520Y138744D01*
X129921D01*
X130311Y138822D01*
X130642Y139043D01*
X132611Y141011D01*
X132832Y141342D01*
X132909Y141732D01*
Y145120D01*
X134878Y145314D01*
X134885Y145279D01*
X135106Y144948D01*
X139043Y141011D01*
X139374Y140790D01*
X139764Y140713D01*
X147638D01*
X148028Y140790D01*
X148359Y141011D01*
X149543Y142196D01*
X151181Y142555D01*
X152104Y142095D01*
X152480Y141719D01*
X153606Y141069D01*
X154862Y140732D01*
X156162D01*
X157417Y141069D01*
X158543Y141719D01*
X159462Y142638D01*
X160112Y143764D01*
X160449Y145019D01*
Y146319D01*
X160112Y147575D01*
X159462Y148701D01*
X158543Y149620D01*
X157417Y150270D01*
X156162Y150606D01*
X154862D01*
X153606Y150270D01*
X152594Y149686D01*
X152092Y149814D01*
X150626Y150549D01*
X150626Y163386D01*
X150548Y163776D01*
X150327Y164107D01*
X122768Y191666D01*
X122437Y191887D01*
X122047Y191964D01*
X83100D01*
X66458Y208606D01*
X66391Y208651D01*
X66337Y208710D01*
X66227Y208760D01*
X66127Y208827D01*
X66048Y208842D01*
X65975Y208876D01*
X65649Y208955D01*
X64286Y209519D01*
X63029Y210290D01*
X61907Y211247D01*
X60949Y212369D01*
X60179Y213627D01*
X59614Y214989D01*
X59536Y215315D01*
X59502Y215388D01*
X59487Y215468D01*
X59420Y215567D01*
X59370Y215677D01*
X59310Y215731D01*
X59266Y215798D01*
X56138Y218926D01*
Y237640D01*
X58106Y237834D01*
X58113Y237799D01*
X58334Y237468D01*
X68240Y227562D01*
X68571Y227342D01*
X68961Y227264D01*
X69291D01*
X70748Y227033D01*
X72150Y226577D01*
X73465Y225908D01*
X73953Y225553D01*
X74062Y225503D01*
X74162Y225436D01*
X74241Y225420D01*
X74314Y225387D01*
X74434Y225382D01*
X74552Y225358D01*
X86614D01*
X87004Y225436D01*
X87335Y225657D01*
X93241Y231562D01*
X93462Y231893D01*
X93539Y232283D01*
Y239735D01*
X96879Y243075D01*
X104591D01*
X105280Y241205D01*
Y212598D01*
X105357Y212208D01*
X105578Y211877D01*
X121326Y196129D01*
X121657Y195908D01*
X122047Y195831D01*
X127530D01*
X139043Y184318D01*
X142980Y180381D01*
X143311Y180160D01*
X143701Y180083D01*
X151575D01*
X151965Y180160D01*
X152296Y180381D01*
X152296Y180381D01*
X154264Y182350D01*
X154485Y182681D01*
X154563Y183071D01*
Y192913D01*
X154485Y193304D01*
X154264Y193634D01*
X144194Y203705D01*
X145009Y205673D01*
X149184D01*
X164335Y190523D01*
X164335Y84646D01*
X164412Y84255D01*
X164633Y83925D01*
X176444Y72114D01*
X176775Y71893D01*
X177165Y71815D01*
X192913D01*
X193304Y71893D01*
X193634Y72114D01*
X193634Y72114D01*
X203477Y81956D01*
X203698Y82287D01*
X203776Y82677D01*
Y188554D01*
X214989Y199768D01*
X236220Y199768D01*
X236611Y199845D01*
X236941Y200066D01*
X252572Y215697D01*
X252793Y216028D01*
X252871Y216418D01*
X252871Y284102D01*
X252864Y284136D01*
X252869Y284169D01*
X252869Y284169D01*
X252826Y284330D01*
X252793Y284492D01*
X252793Y284493D01*
X252774Y284521D01*
X252766Y284554D01*
X252765Y284554D01*
X252664Y284685D01*
X252572Y284823D01*
X252544Y284842D01*
X252523Y284869D01*
X252023Y285307D01*
X251994Y285324D01*
X251972Y285349D01*
X251823Y285423D01*
X251679Y285506D01*
X251679Y285506D01*
X251645Y285510D01*
X251615Y285525D01*
X251615Y285525D01*
X251554Y285529D01*
X251449Y285536D01*
X251284Y285558D01*
X251284Y285558D01*
X251252Y285549D01*
X251218Y285551D01*
X250276Y285427D01*
X249032Y285591D01*
X247873Y286071D01*
X246878Y286835D01*
X246114Y287830D01*
X245634Y288989D01*
X245471Y290232D01*
X245634Y291476D01*
X246114Y292635D01*
X246878Y293630D01*
X247873Y294393D01*
X249032Y294873D01*
X250276Y295037D01*
X251218Y294913D01*
X251252Y294915D01*
X251284Y294907D01*
X251284Y294907D01*
X251449Y294928D01*
X251615Y294939D01*
X251615Y294939D01*
X251645Y294954D01*
X251679Y294958D01*
X251679Y294958D01*
X251823Y295042D01*
X251972Y295115D01*
X251994Y295140D01*
X252023Y295157D01*
X252523Y295595D01*
X252544Y295622D01*
X252572Y295641D01*
X252664Y295779D01*
X252765Y295911D01*
X252766Y295911D01*
X252774Y295944D01*
X252793Y295972D01*
X252793Y295972D01*
X252805Y296032D01*
X252826Y296135D01*
X252869Y296295D01*
X252869Y296295D01*
X252864Y296329D01*
X252871Y296362D01*
X252871Y301306D01*
X254985D01*
X255239Y301357D01*
X256297Y300462D01*
X256724Y299798D01*
X256572Y299431D01*
X256283Y297982D01*
Y296506D01*
X256572Y295058D01*
X257137Y293693D01*
X257957Y292466D01*
X259001Y291422D01*
X260229Y290601D01*
X261593Y290036D01*
X263041Y289748D01*
X264518D01*
X265966Y290036D01*
X267330Y290601D01*
X268558Y291422D01*
X269602Y292466D01*
X270422Y293693D01*
X270988Y295058D01*
X271276Y296506D01*
Y297982D01*
X270988Y299431D01*
X270422Y300795D01*
X269602Y302023D01*
X268558Y303067D01*
X267330Y303887D01*
X265966Y304452D01*
X264518Y304740D01*
X263041D01*
X261609Y304455D01*
X261539Y304503D01*
X260945Y305056D01*
X260399Y306088D01*
X260570Y306345D01*
X260706Y307028D01*
Y315945D01*
X260706Y315945D01*
X260570Y316628D01*
X260183Y317207D01*
X258350Y319040D01*
X258292Y319116D01*
X258198Y319262D01*
X258110Y319421D01*
X257915Y319869D01*
X257836Y320097D01*
X257670Y320696D01*
X257658Y320753D01*
Y320755D01*
X257655Y320763D01*
X257597Y321029D01*
X257563Y321108D01*
X257393Y321741D01*
X256883Y322625D01*
X256469Y323038D01*
X256292Y324240D01*
X256469Y325442D01*
X256883Y325855D01*
X257393Y326739D01*
X257658Y327726D01*
Y328747D01*
X257393Y329733D01*
X257019Y330382D01*
X257517Y332036D01*
X257658Y332350D01*
X257658Y332626D01*
Y338142D01*
X257658Y339185D01*
X257808Y339626D01*
X259171Y340780D01*
X260076Y340643D01*
X260229Y340601D01*
X260397Y340531D01*
X261593Y340036D01*
X263041Y339748D01*
X264518D01*
X265966Y340036D01*
X267330Y340601D01*
X268558Y341422D01*
X269602Y342466D01*
X270422Y343693D01*
X270988Y345058D01*
X271276Y346506D01*
Y347982D01*
X270988Y349431D01*
X270422Y350795D01*
X269602Y352023D01*
X268558Y353067D01*
X267330Y353887D01*
X265966Y354452D01*
X264518Y354740D01*
X263041D01*
X261593Y354452D01*
X260229Y353887D01*
X259001Y353067D01*
X257957Y352023D01*
X257137Y350795D01*
X256572Y349431D01*
X256283Y347982D01*
Y346506D01*
X256572Y345058D01*
X257137Y343693D01*
X257708Y342838D01*
X257957Y342466D01*
X257977Y342358D01*
X257977Y342358D01*
X258073Y341851D01*
X256607Y340106D01*
X255746Y340106D01*
X255746Y340106D01*
X255729Y340106D01*
X252871D01*
Y348122D01*
X252864Y348155D01*
X252869Y348189D01*
X252869Y348189D01*
X252826Y348349D01*
X252793Y348512D01*
X252793Y348512D01*
X252774Y348540D01*
X252766Y348573D01*
X252765Y348573D01*
X252664Y348705D01*
X252572Y348843D01*
X252544Y348862D01*
X252523Y348889D01*
X252023Y349327D01*
X251994Y349344D01*
X251972Y349369D01*
X251823Y349443D01*
X251679Y349526D01*
X251679Y349526D01*
X251645Y349530D01*
X251615Y349545D01*
X251615Y349545D01*
X251554Y349549D01*
X251449Y349556D01*
X251284Y349578D01*
X251284Y349578D01*
X251252Y349569D01*
X251218Y349571D01*
X250276Y349447D01*
X249032Y349611D01*
X247873Y350091D01*
X246878Y350854D01*
X246114Y351850D01*
X245634Y353008D01*
X245471Y354252D01*
X245634Y355496D01*
X246114Y356655D01*
X246878Y357650D01*
X247873Y358413D01*
X249032Y358893D01*
X250276Y359057D01*
X251218Y358933D01*
X251252Y358935D01*
X251284Y358926D01*
X251284Y358926D01*
X251449Y358948D01*
X251615Y358959D01*
X251615Y358959D01*
X251645Y358974D01*
X251679Y358978D01*
X251679Y358978D01*
X251823Y359061D01*
X251972Y359135D01*
X251994Y359160D01*
X252023Y359177D01*
X252523Y359615D01*
X252544Y359642D01*
X252572Y359661D01*
X252664Y359799D01*
X252765Y359931D01*
X252766Y359931D01*
X252774Y359963D01*
X252793Y359992D01*
X252793Y359992D01*
X252805Y360051D01*
X252826Y360155D01*
X252869Y360315D01*
X252869Y360315D01*
X252864Y360349D01*
X252871Y360382D01*
X252871Y382445D01*
X253320Y382565D01*
X254118Y383026D01*
X254769Y383678D01*
X255230Y384476D01*
X255469Y385366D01*
Y386288D01*
X255230Y387178D01*
X254769Y387976D01*
X254118Y388628D01*
X253320Y389088D01*
X252871Y389209D01*
X252871Y409566D01*
X252793Y409956D01*
X252572Y410287D01*
X234973Y427886D01*
X234642Y428107D01*
X234252Y428185D01*
X189525D01*
X189332Y430153D01*
X189367Y430160D01*
X189697Y430381D01*
X203477Y444161D01*
X203698Y444492D01*
X203776Y444882D01*
Y498032D01*
X203698Y498422D01*
X203477Y498752D01*
X189697Y512532D01*
X189367Y512753D01*
X188976Y512831D01*
X139764D01*
X139374Y512753D01*
X139043Y512532D01*
X131169Y504658D01*
X130948Y504327D01*
X130870Y503937D01*
Y499340D01*
X128902Y498525D01*
X128674Y498752D01*
X128343Y498974D01*
X127953Y499051D01*
X114173D01*
X113783Y498974D01*
X113452Y498752D01*
X111484Y496784D01*
X111263Y496453D01*
X111185Y496063D01*
Y478769D01*
X101940Y469523D01*
X84646D01*
X84255Y469446D01*
X83925Y469225D01*
X76375Y461676D01*
X76353Y461642D01*
X76321Y461617D01*
X76243Y461478D01*
X76154Y461345D01*
X76146Y461305D01*
X76127Y461270D01*
X75692Y459931D01*
X75022Y458617D01*
X74155Y457423D01*
X73112Y456380D01*
X71919Y455513D01*
X70605Y454844D01*
X69266Y454409D01*
X69230Y454389D01*
X69191Y454381D01*
X69058Y454292D01*
X68919Y454214D01*
X68894Y454183D01*
X68860Y454160D01*
X66507Y451807D01*
X62992D01*
X62602Y451729D01*
X62271Y451508D01*
X54397Y443634D01*
X54176Y443304D01*
X54098Y442913D01*
Y427165D01*
X54176Y426775D01*
X54397Y426444D01*
X56366Y424476D01*
X56696Y424255D01*
X56803Y424234D01*
X57338Y423349D01*
X57685Y422209D01*
X57266Y421483D01*
X56963Y420350D01*
Y419177D01*
X57266Y418044D01*
X57853Y417029D01*
X58682Y416199D01*
X59698Y415613D01*
X60831Y415309D01*
X62004D01*
X63137Y415613D01*
X64153Y416199D01*
X64982Y417029D01*
X65569Y418044D01*
X65872Y419177D01*
Y420060D01*
X66580Y420586D01*
X67743Y420972D01*
X69041Y419674D01*
X69777Y418065D01*
X69034Y417046D01*
X68447Y416031D01*
X68144Y414897D01*
Y413725D01*
X68447Y412592D01*
X69034Y411576D01*
X69863Y410746D01*
X70879Y410160D01*
X72012Y409856D01*
X73185D01*
X74318Y410160D01*
X75334Y410746D01*
X76163Y411576D01*
X76750Y412592D01*
X77053Y413725D01*
Y414897D01*
X76750Y416031D01*
X76592Y416303D01*
X77505Y418172D01*
X77624Y418272D01*
X106299D01*
X106689Y418349D01*
X107020Y418570D01*
X118533Y430083D01*
X131341D01*
X131534Y428114D01*
X131500Y428107D01*
X131169Y427886D01*
X131169Y427886D01*
X115421Y412138D01*
X115200Y411807D01*
X115122Y411417D01*
Y403121D01*
X115200Y402731D01*
X115421Y402400D01*
X115420Y402399D01*
X114393Y400719D01*
X110774Y397100D01*
X110336Y396444D01*
X110182Y395669D01*
Y350394D01*
X110336Y349620D01*
X110774Y348963D01*
X112250Y347487D01*
X112271Y347462D01*
X112361Y347335D01*
X112435Y347212D01*
X112496Y347092D01*
X112543Y346973D01*
X112578Y346856D01*
X112603Y346738D01*
X112617Y346617D01*
X112623Y346449D01*
X112642Y346367D01*
Y345996D01*
X112880Y345106D01*
X113341Y344308D01*
X113993Y343656D01*
X114791Y343195D01*
X115151Y343099D01*
X115148Y343057D01*
X115122Y342927D01*
Y339461D01*
X64235D01*
X43654Y360042D01*
Y531288D01*
X66175Y553809D01*
X68144Y553746D01*
Y552022D01*
X77053D01*
Y560931D01*
X68144D01*
Y557442D01*
X68072Y557431D01*
X67980Y557422D01*
X65481D01*
X65071Y559348D01*
X65569Y560210D01*
X65872Y561343D01*
Y562516D01*
X65569Y563649D01*
X64982Y564664D01*
X64153Y565494D01*
X63137Y566080D01*
X62004Y566384D01*
X60831D01*
X59698Y566080D01*
X58682Y565494D01*
X57853Y564664D01*
X57266Y563649D01*
X56963Y562516D01*
Y561343D01*
X57266Y560210D01*
X57853Y559194D01*
X58682Y558364D01*
X59114Y558115D01*
X59602Y556376D01*
X59561Y555777D01*
X38108Y534325D01*
X37722Y533746D01*
X37586Y533063D01*
Y358268D01*
X37722Y357585D01*
X38108Y357006D01*
X39573Y355542D01*
X39573Y355542D01*
X39573Y355542D01*
X59734Y335380D01*
X59734Y335380D01*
X61199Y333915D01*
X61199Y333915D01*
X61778Y333529D01*
X62461Y333393D01*
X115122D01*
Y312585D01*
X115148Y312455D01*
X115151Y312413D01*
X114791Y312317D01*
X113993Y311856D01*
X113341Y311204D01*
X112880Y310406D01*
X112642Y309516D01*
Y308594D01*
X112880Y307704D01*
X113341Y306906D01*
X113604Y306643D01*
X113648Y306573D01*
X113763Y306450D01*
X113839Y306354D01*
X113904Y306253D01*
X113962Y306145D01*
X114012Y306028D01*
X114055Y305901D01*
X114090Y305761D01*
X114116Y305607D01*
X114119Y305575D01*
Y273753D01*
X112300Y273000D01*
X101836Y283465D01*
X101505Y283686D01*
X101115Y283763D01*
X83163D01*
X82668Y284182D01*
X81728Y285433D01*
Y295276D01*
X81651Y295666D01*
X81430Y295996D01*
X77493Y299934D01*
X77162Y300155D01*
X76772Y300232D01*
X49213D01*
X48822Y300155D01*
X48492Y299934D01*
X37252Y288694D01*
X35433Y289447D01*
Y673960D01*
X36007Y674279D01*
X37402Y674529D01*
X38223Y673398D01*
X39540Y672081D01*
X41045Y670987D01*
X42704Y670142D01*
X44475Y669567D01*
X46313Y669276D01*
X48175D01*
X50014Y669567D01*
X51784Y670142D01*
X53443Y670987D01*
X54949Y672081D01*
X56265Y673398D01*
X57359Y674904D01*
X58204Y676562D01*
X58780Y678333D01*
X59071Y680171D01*
Y682033D01*
X58780Y683872D01*
X58204Y685642D01*
X57359Y687301D01*
X56265Y688807D01*
X56096Y688976D01*
X56911Y690945D01*
X271829D01*
X272644Y688976D01*
X272475Y688807D01*
X271381Y687301D01*
X270536Y685642D01*
X269960Y683872D01*
X269669Y682033D01*
Y680172D01*
X269960Y678333D01*
X270536Y676562D01*
X271381Y674904D01*
X272475Y673398D01*
X273791Y672081D01*
X275297Y670987D01*
X276956Y670142D01*
X278727Y669567D01*
X280565Y669276D01*
X282427D01*
X284265Y669567D01*
X286036Y670142D01*
X287695Y670987D01*
X289201Y672081D01*
X290517Y673398D01*
X291611Y674904D01*
X292456Y676562D01*
X293032Y678333D01*
X293323Y680172D01*
Y682033D01*
X293032Y683872D01*
X292456Y685642D01*
X291611Y687301D01*
X290517Y688807D01*
X290348Y688976D01*
X291163Y690945D01*
X297244D01*
Y585820D01*
D02*
G37*
G36*
X69168Y554138D02*
X69153Y554281D01*
X69107Y554408D01*
X69032Y554521D01*
X68926Y554618D01*
X68790Y554701D01*
X68623Y554768D01*
X68427Y554821D01*
X68200Y554858D01*
X67943Y554881D01*
X67656Y554888D01*
Y556388D01*
X67943Y556396D01*
X68200Y556418D01*
X68427Y556456D01*
X68623Y556508D01*
X68790Y556576D01*
X68926Y556658D01*
X69032Y556756D01*
X69107Y556868D01*
X69153Y556996D01*
X69168Y557138D01*
Y554138D01*
D02*
G37*
G36*
X185039Y480315D02*
Y452756D01*
X175197Y442913D01*
X106299D01*
X92520Y429134D01*
X74730D01*
X74318Y429372D01*
X73185Y429675D01*
X72012D01*
X70879Y429372D01*
X70720Y429280D01*
X68898Y431102D01*
Y438976D01*
X72835Y442913D01*
X90551D01*
X100394Y452756D01*
X169291D01*
X173228Y456693D01*
Y468504D01*
X169291Y472441D01*
X149606D01*
X147638Y474409D01*
Y494095D01*
X149606Y496063D01*
X169291D01*
X185039Y480315D01*
D02*
G37*
G36*
X129921Y496063D02*
Y470472D01*
X131890Y468504D01*
X167323D01*
X169291Y466535D01*
Y458661D01*
X167323Y456693D01*
X94488D01*
X82677Y444882D01*
X71611D01*
X66919Y440190D01*
X66929Y440179D01*
Y427165D01*
X64961Y425197D01*
X57087D01*
X55118Y427165D01*
Y442913D01*
X62992Y450787D01*
X66929D01*
X69581Y453439D01*
X70996Y453899D01*
X72453Y454641D01*
X73776Y455603D01*
X74933Y456759D01*
X75894Y458082D01*
X76636Y459539D01*
X77096Y460955D01*
X84646Y468504D01*
X102362D01*
X112205Y478346D01*
Y496063D01*
X114173Y498032D01*
X127953D01*
X129921Y496063D01*
D02*
G37*
G36*
X202756Y498032D02*
Y444882D01*
X188976Y431102D01*
X118110D01*
X106299Y419291D01*
X70866D01*
X67650Y422507D01*
Y426444D01*
X67871Y426775D01*
X67949Y427165D01*
X96457D01*
X108268Y438976D01*
X177165Y438976D01*
X188976Y450787D01*
Y490158D01*
X181102Y498032D01*
X147638D01*
X145669Y496063D01*
Y472441D01*
X143701Y470472D01*
X133858D01*
X131890Y472441D01*
Y503937D01*
X139764Y511811D01*
X188976D01*
X202756Y498032D01*
D02*
G37*
G36*
X137925Y398882D02*
X138109Y398730D01*
X138297Y398597D01*
X138488Y398481D01*
X138682Y398384D01*
X138881Y398305D01*
X139083Y398244D01*
X139288Y398201D01*
X139497Y398176D01*
X139710Y398169D01*
X137235Y395694D01*
X137228Y395907D01*
X137203Y396116D01*
X137160Y396322D01*
X137099Y396523D01*
X137020Y396722D01*
X136923Y396916D01*
X136807Y397107D01*
X136674Y397295D01*
X136522Y397479D01*
X136353Y397659D01*
X137745Y399051D01*
X137925Y398882D01*
D02*
G37*
G36*
X212544Y393169D02*
X212332Y393162D01*
X212123Y393138D01*
X211917Y393095D01*
X211715Y393034D01*
X211517Y392954D01*
X211322Y392857D01*
X211131Y392742D01*
X210944Y392608D01*
X210760Y392457D01*
X210580Y392288D01*
X209188Y393680D01*
X209357Y393860D01*
X209508Y394044D01*
X209642Y394231D01*
X209757Y394422D01*
X209854Y394617D01*
X209933Y394815D01*
X209995Y395017D01*
X210038Y395223D01*
X210063Y395432D01*
X210069Y395644D01*
X212544Y393169D01*
D02*
G37*
G36*
X142241Y395432D02*
X142266Y395223D01*
X142309Y395017D01*
X142370Y394815D01*
X142450Y394617D01*
X142547Y394422D01*
X142662Y394231D01*
X142795Y394044D01*
X142947Y393860D01*
X143116Y393680D01*
X141724Y392288D01*
X141544Y392457D01*
X141360Y392608D01*
X141173Y392742D01*
X140982Y392857D01*
X140787Y392954D01*
X140589Y393034D01*
X140387Y393095D01*
X140181Y393138D01*
X139972Y393162D01*
X139760Y393169D01*
X142235Y395644D01*
X142241Y395432D01*
D02*
G37*
G36*
X126493Y395432D02*
X126518Y395223D01*
X126561Y395017D01*
X126622Y394815D01*
X126702Y394617D01*
X126799Y394422D01*
X126914Y394231D01*
X127047Y394044D01*
X127199Y393860D01*
X127368Y393680D01*
X125976Y392288D01*
X125796Y392457D01*
X125612Y392608D01*
X125425Y392742D01*
X125234Y392857D01*
X125039Y392954D01*
X124841Y393034D01*
X124639Y393095D01*
X124433Y393138D01*
X124224Y393162D01*
X124012Y393169D01*
X126487Y395644D01*
X126493Y395432D01*
D02*
G37*
G36*
X228292Y389232D02*
X228080Y389226D01*
X227871Y389201D01*
X227665Y389158D01*
X227463Y389096D01*
X227265Y389017D01*
X227070Y388920D01*
X226879Y388805D01*
X226692Y388671D01*
X226508Y388520D01*
X226328Y388351D01*
X224936Y389743D01*
X225105Y389923D01*
X225256Y390107D01*
X225390Y390294D01*
X225505Y390485D01*
X225602Y390680D01*
X225681Y390878D01*
X225743Y391080D01*
X225786Y391286D01*
X225811Y391495D01*
X225817Y391707D01*
X228292Y389232D01*
D02*
G37*
G36*
X251851Y409566D02*
X251851Y360382D01*
X251351Y359944D01*
X250276Y360085D01*
X248766Y359887D01*
X247359Y359304D01*
X246151Y358377D01*
X245224Y357169D01*
X244641Y355762D01*
X244442Y354252D01*
X244641Y352742D01*
X245224Y351335D01*
X246151Y350127D01*
X247359Y349200D01*
X248766Y348617D01*
X250276Y348419D01*
X251351Y348560D01*
X251851Y348122D01*
Y340106D01*
X249902D01*
Y340106D01*
X249552Y339962D01*
X237976Y351538D01*
Y368076D01*
X238571D01*
X238687Y367196D01*
X239040Y366345D01*
X239601Y365614D01*
X240332Y365053D01*
X241183Y364700D01*
X242097Y364580D01*
X243010Y364700D01*
X243862Y365053D01*
X244593Y365614D01*
X245154Y366345D01*
X245507Y367196D01*
X245627Y368110D01*
X245507Y369024D01*
X245154Y369875D01*
X244593Y370606D01*
X244262Y370860D01*
Y371360D01*
X244593Y371614D01*
X245154Y372345D01*
X245507Y373197D01*
X245627Y374110D01*
X245507Y375024D01*
X245154Y375875D01*
X244593Y376606D01*
X243862Y377168D01*
X243010Y377520D01*
X242097Y377640D01*
X241183Y377520D01*
X240332Y377168D01*
X239601Y376606D01*
X239040Y375875D01*
X238687Y375024D01*
X238571Y374145D01*
X236034D01*
X235352Y374009D01*
X234773Y373622D01*
X234773Y373622D01*
X232430Y371279D01*
X232043Y370700D01*
X231907Y370017D01*
Y350765D01*
X231407Y350666D01*
X231183Y351208D01*
X230561Y352018D01*
X229751Y352639D01*
X228808Y353030D01*
X227795Y353163D01*
X226783Y353030D01*
X225840Y352639D01*
X225029Y352018D01*
X224408Y351208D01*
X224017Y350264D01*
X223884Y349252D01*
X224017Y348240D01*
X224408Y347296D01*
X225029Y346486D01*
X225840Y345865D01*
X226783Y345474D01*
X227795Y345340D01*
X228808Y345474D01*
X229751Y345865D01*
X230561Y346486D01*
X231183Y347296D01*
X231573Y348240D01*
X231644Y348778D01*
X232165Y348899D01*
X232430Y348502D01*
X244907Y336024D01*
X244854Y335901D01*
X244783Y335771D01*
X244697Y335645D01*
X244594Y335520D01*
X244473Y335395D01*
X244301Y335246D01*
X244280Y335220D01*
X244253Y335201D01*
X244233Y335173D01*
X244006Y334998D01*
X243384Y334188D01*
X242993Y333245D01*
X242860Y332232D01*
X242993Y331220D01*
X243384Y330277D01*
X244006Y329467D01*
X244816Y328845D01*
X245661Y328495D01*
X245696Y328323D01*
Y328149D01*
X245661Y327977D01*
X244816Y327627D01*
X244006Y327006D01*
X243946Y326928D01*
X243778Y326765D01*
X243576Y326589D01*
X243380Y326438D01*
X243194Y326314D01*
X243017Y326214D01*
X242850Y326136D01*
X242693Y326079D01*
X242545Y326040D01*
X242443Y326024D01*
X236543D01*
X226672Y335895D01*
X226786Y336412D01*
X226826Y336449D01*
X227795Y336321D01*
X228808Y336454D01*
X229751Y336845D01*
X230561Y337467D01*
X231183Y338277D01*
X231573Y339220D01*
X231707Y340232D01*
X231573Y341245D01*
X231183Y342188D01*
X230561Y342998D01*
X229751Y343620D01*
X228808Y344010D01*
X227795Y344144D01*
X226783Y344010D01*
X225840Y343620D01*
X225029Y342998D01*
X224408Y342188D01*
X224017Y341245D01*
X223884Y340232D01*
X224011Y339263D01*
X223975Y339223D01*
X223458Y339109D01*
X216817Y345750D01*
X216238Y346137D01*
X215556Y346272D01*
X212359D01*
X212288Y346282D01*
X212161Y346311D01*
X212032Y346354D01*
X211900Y346410D01*
X211764Y346481D01*
X211623Y346570D01*
X211478Y346678D01*
X211328Y346805D01*
X211203Y346926D01*
X211158Y346984D01*
X210426Y347545D01*
X209575Y347898D01*
X208661Y348018D01*
X207748Y347898D01*
X206896Y347545D01*
X206165Y346984D01*
X205604Y346253D01*
X205252Y345402D01*
X205131Y344488D01*
X205252Y343575D01*
X205604Y342723D01*
X206096Y342083D01*
X206101Y342074D01*
X206111Y342063D01*
X206165Y341992D01*
X206198Y341967D01*
X206266Y341891D01*
X206393Y341734D01*
X206500Y341581D01*
X206589Y341434D01*
X206661Y341291D01*
X206718Y341154D01*
X206760Y341021D01*
X206786Y340907D01*
X205341Y339461D01*
X116142D01*
Y342927D01*
X117055Y343047D01*
X117907Y343399D01*
X118638Y343960D01*
X119199Y344692D01*
X119552Y345543D01*
X119672Y346457D01*
X119552Y347370D01*
X119199Y348222D01*
X118638Y348953D01*
X117907Y349514D01*
X117055Y349867D01*
X116142Y349987D01*
Y396745D01*
X118919Y399522D01*
X122837D01*
X122936Y399023D01*
X122222Y398727D01*
X121490Y398165D01*
X120929Y397434D01*
X120577Y396583D01*
X120456Y395669D01*
X120577Y394756D01*
X120929Y393904D01*
X121490Y393173D01*
X122222Y392612D01*
X123073Y392259D01*
X123987Y392139D01*
X124054Y392148D01*
X124147Y392145D01*
X124268Y392130D01*
X124386Y392106D01*
X124503Y392070D01*
X124621Y392023D01*
X124742Y391963D01*
X124865Y391889D01*
X124992Y391798D01*
X125017Y391778D01*
X134367Y382428D01*
X135023Y381989D01*
X135798Y381835D01*
X218070D01*
Y370537D01*
X195912Y348380D01*
X195887Y348359D01*
X195760Y348269D01*
X195637Y348194D01*
X195517Y348134D01*
X195399Y348087D01*
X195282Y348052D01*
X195163Y348027D01*
X195043Y348013D01*
X194949Y348009D01*
X194882Y348018D01*
X193968Y347898D01*
X193117Y347545D01*
X192386Y346984D01*
X191825Y346253D01*
X191472Y345402D01*
X191352Y344488D01*
X191472Y343575D01*
X191825Y342723D01*
X192386Y341992D01*
X193117Y341431D01*
X193968Y341078D01*
X194882Y340958D01*
X195796Y341078D01*
X196647Y341431D01*
X197378Y341992D01*
X197939Y342723D01*
X198292Y343575D01*
X198412Y344488D01*
X198403Y344555D01*
X198406Y344649D01*
X198421Y344770D01*
X198445Y344888D01*
X198481Y345005D01*
X198528Y345123D01*
X198588Y345243D01*
X198662Y345367D01*
X198753Y345494D01*
X198773Y345518D01*
X221524Y368269D01*
X221962Y368925D01*
X222116Y369699D01*
Y382670D01*
X227287Y387841D01*
X227312Y387861D01*
X227439Y387952D01*
X227562Y388026D01*
X227682Y388086D01*
X227801Y388133D01*
X227918Y388169D01*
X228036Y388193D01*
X228157Y388208D01*
X228250Y388211D01*
X228317Y388202D01*
X229231Y388322D01*
X230082Y388675D01*
X230814Y389236D01*
X231375Y389967D01*
X231727Y390819D01*
X231848Y391732D01*
X231727Y392646D01*
X231375Y393497D01*
X230814Y394229D01*
X230082Y394790D01*
X229231Y395142D01*
X228317Y395263D01*
X227404Y395142D01*
X226552Y394790D01*
X225821Y394229D01*
X225260Y393497D01*
X224907Y392646D01*
X224787Y391732D01*
X224796Y391665D01*
X224793Y391572D01*
X224779Y391451D01*
X224754Y391333D01*
X224718Y391215D01*
X224671Y391097D01*
X224611Y390977D01*
X224537Y390854D01*
X224447Y390727D01*
X224426Y390702D01*
X219605Y385881D01*
X206302D01*
X206146Y386310D01*
X206142Y386381D01*
X211539Y391778D01*
X211564Y391798D01*
X211691Y391889D01*
X211814Y391963D01*
X211934Y392023D01*
X212052Y392070D01*
X212170Y392106D01*
X212288Y392130D01*
X212409Y392145D01*
X212502Y392148D01*
X212569Y392139D01*
X213483Y392259D01*
X214334Y392612D01*
X215066Y393173D01*
X215627Y393904D01*
X215979Y394756D01*
X216100Y395669D01*
X215979Y396583D01*
X215627Y397434D01*
X215066Y398165D01*
X214334Y398727D01*
X213483Y399079D01*
X212569Y399200D01*
X211656Y399079D01*
X210804Y398727D01*
X210073Y398165D01*
X209512Y397434D01*
X209159Y396583D01*
X209039Y395669D01*
X209048Y395602D01*
X209045Y395509D01*
X209031Y395388D01*
X209006Y395270D01*
X208970Y395152D01*
X208923Y395035D01*
X208863Y394914D01*
X208789Y394791D01*
X208698Y394664D01*
X208678Y394639D01*
X203857Y389818D01*
X148447D01*
X143626Y394639D01*
X143605Y394664D01*
X143515Y394791D01*
X143441Y394914D01*
X143381Y395035D01*
X143334Y395153D01*
X143298Y395270D01*
X143273Y395388D01*
X143259Y395509D01*
X143256Y395602D01*
X143265Y395669D01*
X143145Y396583D01*
X142792Y397434D01*
X142231Y398165D01*
X141500Y398727D01*
X140648Y399079D01*
X139735Y399200D01*
X139667Y399191D01*
X139574Y399194D01*
X139453Y399208D01*
X139335Y399233D01*
X139218Y399268D01*
X139100Y399315D01*
X138979Y399376D01*
X138856Y399450D01*
X138729Y399540D01*
X138704Y399561D01*
X135289Y402976D01*
X134633Y403415D01*
X133858Y403569D01*
X118081D01*
X117307Y403415D01*
X116650Y402976D01*
X116604Y402929D01*
X116142Y403121D01*
Y411417D01*
X131890Y427165D01*
X234252D01*
X251851Y409566D01*
D02*
G37*
G36*
X240455Y372225D02*
X240445Y372226D01*
X240426Y372218D01*
X240400Y372201D01*
X240366Y372175D01*
X240275Y372096D01*
X239999Y371830D01*
X238938Y372891D01*
X239654Y373579D01*
X240455Y372225D01*
D02*
G37*
G36*
X240079Y370310D02*
X240426Y370002D01*
X240445Y369995D01*
X240455Y369996D01*
X239654Y368641D01*
X238938Y369330D01*
X239999Y370391D01*
X240079Y370310D01*
D02*
G37*
G36*
X114332Y349669D02*
X114516Y349517D01*
X114704Y349384D01*
X114895Y349269D01*
X115089Y349172D01*
X115288Y349093D01*
X115490Y349031D01*
X115695Y348988D01*
X115904Y348963D01*
X116117Y348957D01*
X113642Y346482D01*
X113635Y346694D01*
X113610Y346903D01*
X113567Y347109D01*
X113506Y347311D01*
X113427Y347509D01*
X113330Y347704D01*
X113214Y347895D01*
X113081Y348082D01*
X112930Y348266D01*
X112760Y348446D01*
X114152Y349838D01*
X114332Y349669D01*
D02*
G37*
G36*
X198264Y346478D02*
X198094Y346298D01*
X197943Y346114D01*
X197809Y345926D01*
X197694Y345735D01*
X197597Y345540D01*
X197518Y345342D01*
X197457Y345140D01*
X197414Y344935D01*
X197389Y344726D01*
X197382Y344513D01*
X194907Y346988D01*
X195120Y346995D01*
X195329Y347020D01*
X195534Y347063D01*
X195736Y347124D01*
X195934Y347203D01*
X196129Y347300D01*
X196320Y347416D01*
X196507Y347549D01*
X196691Y347700D01*
X196872Y347870D01*
X198264Y346478D01*
D02*
G37*
G36*
X210644Y346048D02*
X210844Y345878D01*
X211047Y345728D01*
X211253Y345598D01*
X211462Y345488D01*
X211673Y345398D01*
X211887Y345328D01*
X212104Y345278D01*
X212324Y345248D01*
X212546Y345238D01*
Y343738D01*
X212324Y343728D01*
X212104Y343698D01*
X211887Y343648D01*
X211673Y343578D01*
X211462Y343488D01*
X211253Y343378D01*
X211047Y343248D01*
X210844Y343098D01*
X210644Y342928D01*
X210447Y342738D01*
Y346238D01*
X210644Y346048D01*
D02*
G37*
G36*
X210355Y342649D02*
X210161Y342459D01*
X209987Y342265D01*
X209834Y342068D01*
X209701Y341866D01*
X209589Y341662D01*
X209497Y341453D01*
X209425Y341240D01*
X209374Y341024D01*
X209343Y340804D01*
X209333Y340580D01*
X207833Y340629D01*
X207823Y340850D01*
X207794Y341070D01*
X207745Y341287D01*
X207677Y341503D01*
X207589Y341717D01*
X207482Y341929D01*
X207355Y342139D01*
X207208Y342347D01*
X207042Y342554D01*
X206856Y342758D01*
X210355Y342649D01*
D02*
G37*
G36*
X212728Y336576D02*
X212538Y336771D01*
X212344Y336944D01*
X212146Y337097D01*
X211945Y337230D01*
X211740Y337343D01*
X211531Y337435D01*
X211319Y337506D01*
X211103Y337557D01*
X210883Y337588D01*
X210659Y337598D01*
X210708Y339098D01*
X210929Y339108D01*
X211148Y339137D01*
X211366Y339186D01*
X211581Y339254D01*
X211795Y339342D01*
X212007Y339450D01*
X212217Y339577D01*
X212426Y339723D01*
X212632Y339889D01*
X212837Y340075D01*
X212728Y336576D01*
D02*
G37*
G36*
X250926Y336077D02*
X250915Y336133D01*
X250883Y336183D01*
X250831Y336227D01*
X250757Y336265D01*
X250661Y336298D01*
X250545Y336324D01*
X250408Y336345D01*
X250250Y336360D01*
X249869Y336371D01*
Y337871D01*
X250070Y337874D01*
X250408Y337898D01*
X250545Y337918D01*
X250661Y337945D01*
X250757Y337977D01*
X250831Y338016D01*
X250883Y338060D01*
X250915Y338110D01*
X250926Y338166D01*
Y336077D01*
D02*
G37*
G36*
X234542Y322978D02*
X234542Y322978D01*
X235121Y322592D01*
X235804Y322456D01*
X242443D01*
X242545Y322440D01*
X242693Y322401D01*
X242850Y322344D01*
X243017Y322267D01*
X243194Y322166D01*
X243380Y322042D01*
X243576Y321891D01*
X243778Y321715D01*
X243946Y321552D01*
X244006Y321474D01*
X244816Y320853D01*
X245661Y320503D01*
X245696Y320331D01*
Y320157D01*
X245661Y319985D01*
X244816Y319635D01*
X244006Y319014D01*
X243384Y318204D01*
X242993Y317260D01*
X242860Y316248D01*
X242993Y315236D01*
X243384Y314292D01*
X244006Y313482D01*
X244816Y312861D01*
X245661Y312511D01*
X245696Y312339D01*
Y312165D01*
X245661Y311993D01*
X244816Y311643D01*
X244006Y311022D01*
X243384Y310212D01*
X242993Y309268D01*
X242860Y308256D01*
X242980Y307343D01*
X242825Y307064D01*
X242618Y306843D01*
X240965D01*
X240895Y306853D01*
X240767Y306882D01*
X240639Y306924D01*
X240507Y306981D01*
X240371Y307052D01*
X240230Y307141D01*
X240085Y307249D01*
X239935Y307376D01*
X239809Y307497D01*
X239764Y307555D01*
X239033Y308116D01*
X238182Y308469D01*
X237268Y308589D01*
X236354Y308469D01*
X235503Y308116D01*
X234772Y307555D01*
X234211Y306824D01*
X233858Y305973D01*
X233738Y305059D01*
X233858Y304145D01*
X234211Y303294D01*
X234772Y302563D01*
X235503Y302002D01*
X236354Y301649D01*
X237268Y301529D01*
X238182Y301649D01*
X239033Y302002D01*
X239764Y302563D01*
X239809Y302621D01*
X239935Y302742D01*
X240085Y302870D01*
X240230Y302977D01*
X240371Y303066D01*
X240507Y303137D01*
X240638Y303194D01*
X240767Y303236D01*
X240895Y303265D01*
X240965Y303275D01*
X242419D01*
X243865Y301829D01*
X243865Y301829D01*
X244443Y301442D01*
X245126Y301306D01*
X251851D01*
X251851Y296362D01*
X251351Y295924D01*
X250276Y296066D01*
X248766Y295867D01*
X247359Y295284D01*
X246151Y294357D01*
X245224Y293149D01*
X244641Y291742D01*
X244442Y290232D01*
X244641Y288722D01*
X245224Y287316D01*
X246151Y286107D01*
X247359Y285180D01*
X248766Y284598D01*
X250276Y284399D01*
X251351Y284541D01*
X251851Y284102D01*
X251851Y216418D01*
X236220Y200787D01*
X214567Y200787D01*
X202756Y188976D01*
Y82677D01*
X192913Y72835D01*
X177165D01*
X165354Y84646D01*
X165354Y190945D01*
X149606Y206693D01*
X129921D01*
X116142Y220472D01*
Y257066D01*
X116642Y257155D01*
X116670Y257078D01*
X116745Y256805D01*
X116799Y256520D01*
X116825Y256287D01*
Y227608D01*
X116979Y226834D01*
X117418Y226178D01*
X134396Y209199D01*
X135053Y208761D01*
X135827Y208607D01*
X168453D01*
X172859Y204201D01*
Y116156D01*
X172828Y115970D01*
X172766Y115735D01*
X172674Y115490D01*
X172552Y115232D01*
X172395Y114961D01*
X172213Y114692D01*
X171703Y114075D01*
X171491Y113857D01*
X171361Y113757D01*
X170569Y112726D01*
X170072Y111525D01*
X169902Y110236D01*
X170072Y108947D01*
X170569Y107746D01*
X171361Y106715D01*
X172392Y105924D01*
X173593Y105426D01*
X174882Y105257D01*
X176171Y105426D01*
X177372Y105924D01*
X178403Y106715D01*
X179194Y107746D01*
X179692Y108947D01*
X179861Y110236D01*
X179692Y111525D01*
X179194Y112726D01*
X178403Y113757D01*
X178273Y113857D01*
X178051Y114086D01*
X177787Y114387D01*
X177559Y114680D01*
X177368Y114961D01*
X177212Y115232D01*
X177090Y115490D01*
X176998Y115735D01*
X176935Y115970D01*
X176905Y116156D01*
Y205039D01*
X176751Y205814D01*
X176312Y206470D01*
X170722Y212060D01*
X170066Y212499D01*
X169291Y212653D01*
X136665D01*
X120872Y228446D01*
Y255613D01*
X120902Y255788D01*
X120949Y255929D01*
X120999Y256021D01*
X121049Y256083D01*
X121111Y256133D01*
X121203Y256183D01*
X121344Y256229D01*
X121519Y256260D01*
X131029D01*
X135345Y251944D01*
X135366Y251919D01*
X135456Y251792D01*
X135530Y251669D01*
X135591Y251549D01*
X135638Y251430D01*
X135673Y251313D01*
X135698Y251195D01*
X135712Y251074D01*
X135715Y250981D01*
X135706Y250914D01*
X135827Y250000D01*
X136179Y249149D01*
X136741Y248417D01*
X137367Y247937D01*
X137376Y247927D01*
X137402Y247910D01*
X137472Y247856D01*
X137495Y247847D01*
X137496Y247846D01*
X137557Y247794D01*
X137607Y247739D01*
X137652Y247677D01*
X137693Y247603D01*
X137730Y247514D01*
X137763Y247406D01*
X137789Y247276D01*
X137794Y247233D01*
Y246010D01*
X137948Y245236D01*
X138386Y244580D01*
X140302Y242664D01*
X140958Y242225D01*
X141732Y242071D01*
X210601D01*
X211375Y242225D01*
X212031Y242664D01*
X217444Y248077D01*
X217470Y248098D01*
X217596Y248188D01*
X217720Y248262D01*
X217840Y248322D01*
X217958Y248370D01*
X218075Y248405D01*
X218193Y248430D01*
X218314Y248444D01*
X218408Y248447D01*
X218475Y248438D01*
X219389Y248559D01*
X220240Y248911D01*
X220971Y249472D01*
X221532Y250203D01*
X221885Y251055D01*
X222005Y251969D01*
X221885Y252882D01*
X221532Y253734D01*
X220971Y254465D01*
X220240Y255026D01*
X219389Y255378D01*
X218475Y255499D01*
X217561Y255378D01*
X216710Y255026D01*
X215979Y254465D01*
X215418Y253734D01*
X215065Y252882D01*
X214945Y251969D01*
X214953Y251901D01*
X214950Y251808D01*
X214936Y251687D01*
X214911Y251569D01*
X214876Y251452D01*
X214829Y251334D01*
X214769Y251213D01*
X214694Y251090D01*
X214604Y250963D01*
X214583Y250938D01*
X209763Y246118D01*
X142570D01*
X141840Y246848D01*
Y247806D01*
X141862Y248040D01*
X141889Y248197D01*
X141926Y248357D01*
X141970Y248508D01*
X142021Y248651D01*
X142079Y248787D01*
X142145Y248917D01*
X142233Y249068D01*
X142234Y249070D01*
X142294Y249149D01*
X142647Y250000D01*
X142767Y250914D01*
X142647Y251827D01*
X142294Y252679D01*
X141733Y253410D01*
X141002Y253971D01*
X140150Y254324D01*
X139237Y254444D01*
X139170Y254435D01*
X139076Y254438D01*
X138955Y254452D01*
X138837Y254477D01*
X138720Y254513D01*
X138602Y254560D01*
X138482Y254620D01*
X138358Y254694D01*
X138231Y254784D01*
X138206Y254805D01*
X133298Y259714D01*
X132641Y260153D01*
X131867Y260307D01*
X120845D01*
X120612Y260332D01*
X120327Y260387D01*
X120054Y260462D01*
X119791Y260558D01*
X119537Y260676D01*
X119290Y260816D01*
X119050Y260980D01*
X118867Y261126D01*
X118165Y261828D01*
Y305575D01*
X118168Y305607D01*
X118194Y305761D01*
X118228Y305901D01*
X118271Y306028D01*
X118321Y306145D01*
X118379Y306253D01*
X118445Y306354D01*
X118520Y306450D01*
X118584Y306518D01*
X118638Y306559D01*
X119199Y307290D01*
X119552Y308141D01*
X119672Y309055D01*
X119552Y309969D01*
X119199Y310820D01*
X118638Y311551D01*
X117907Y312112D01*
X117055Y312465D01*
X116142Y312585D01*
Y333393D01*
X207115D01*
X207798Y333529D01*
X208377Y333915D01*
X210996Y336535D01*
X211039Y336525D01*
X211163Y336483D01*
X211289Y336427D01*
X211419Y336356D01*
X211552Y336268D01*
X211690Y336161D01*
X211832Y336034D01*
X211999Y335863D01*
X212005Y335859D01*
X212071Y335773D01*
X212802Y335212D01*
X213653Y334860D01*
X214567Y334739D01*
X215481Y334860D01*
X216332Y335212D01*
X217063Y335773D01*
X217624Y336505D01*
X217977Y337356D01*
X218097Y338270D01*
X218029Y338784D01*
X218503Y339017D01*
X234542Y322978D01*
D02*
G37*
G36*
X247549Y336403D02*
X247581Y336150D01*
X247634Y335905D01*
X247709Y335670D01*
X247804Y335444D01*
X247921Y335228D01*
X248059Y335020D01*
X248218Y334823D01*
X248399Y334634D01*
X248600Y334455D01*
X244969Y334476D01*
X245173Y334653D01*
X245354Y334839D01*
X245515Y335034D01*
X245654Y335239D01*
X245771Y335453D01*
X245868Y335677D01*
X245942Y335910D01*
X245996Y336153D01*
X246028Y336405D01*
X246039Y336666D01*
X247539D01*
X247549Y336403D01*
D02*
G37*
G36*
X244716Y322226D02*
X244469Y322466D01*
X244222Y322681D01*
X243975Y322870D01*
X243729Y323035D01*
X243484Y323174D01*
X243239Y323288D01*
X242995Y323376D01*
X242752Y323440D01*
X242509Y323478D01*
X242266Y323490D01*
Y324990D01*
X242509Y325003D01*
X242752Y325041D01*
X242995Y325104D01*
X243239Y325192D01*
X243484Y325306D01*
X243729Y325445D01*
X243975Y325610D01*
X244222Y325799D01*
X244469Y326014D01*
X244716Y326255D01*
Y322226D01*
D02*
G37*
G36*
X256680Y320451D02*
X256862Y319794D01*
X256965Y319497D01*
X257195Y318970D01*
X257322Y318739D01*
X257457Y318530D01*
X257600Y318342D01*
X257751Y318176D01*
X256924Y316882D01*
X256735Y317052D01*
X256532Y317196D01*
X256315Y317314D01*
X256084Y317407D01*
X255839Y317475D01*
X255580Y317518D01*
X255307Y317535D01*
X255020Y317527D01*
X254719Y317494D01*
X254404Y317435D01*
X256601Y320812D01*
X256680Y320451D01*
D02*
G37*
G36*
X117746Y307115D02*
X117616Y306949D01*
X117501Y306773D01*
X117402Y306587D01*
X117317Y306391D01*
X117248Y306185D01*
X117195Y305968D01*
X117157Y305741D01*
X117134Y305504D01*
X117126Y305257D01*
X115157D01*
X115150Y305504D01*
X115127Y305741D01*
X115089Y305968D01*
X115035Y306185D01*
X114966Y306391D01*
X114882Y306587D01*
X114782Y306773D01*
X114667Y306949D01*
X114537Y307115D01*
X114392Y307270D01*
X117892D01*
X117746Y307115D01*
D02*
G37*
G36*
X239251Y306619D02*
X239451Y306449D01*
X239654Y306299D01*
X239860Y306169D01*
X240068Y306059D01*
X240280Y305969D01*
X240494Y305899D01*
X240711Y305849D01*
X240931Y305819D01*
X241153Y305809D01*
Y304309D01*
X240931Y304299D01*
X240711Y304269D01*
X240494Y304219D01*
X240280Y304149D01*
X240068Y304059D01*
X239860Y303949D01*
X239654Y303819D01*
X239451Y303669D01*
X239251Y303499D01*
X239054Y303309D01*
Y306809D01*
X239251Y306619D01*
D02*
G37*
G36*
X80709Y295276D02*
Y285433D01*
X78740Y283465D01*
X72835D01*
X66929Y289370D01*
X57087D01*
X41339Y273622D01*
Y206693D01*
X88583Y159449D01*
X129921D01*
X131890Y157480D01*
Y141732D01*
X129921Y139764D01*
X92520D01*
X77192Y155091D01*
X77148Y155370D01*
X76643Y156925D01*
X75900Y158382D01*
X74939Y159705D01*
X73783Y160862D01*
X72460Y161823D01*
X71003Y162566D01*
X69447Y163071D01*
X69168Y163115D01*
X29528Y202756D01*
Y279528D01*
X49213Y299213D01*
X76772D01*
X80709Y295276D01*
D02*
G37*
G36*
X114119Y269740D02*
Y260990D01*
X114173Y260716D01*
X114173Y218504D01*
X127953Y204724D01*
X141732D01*
X153543Y192913D01*
Y183071D01*
X151575Y181102D01*
X143701D01*
X139764Y185039D01*
X127953Y196850D01*
X122047D01*
X106299Y212598D01*
Y261811D01*
X96457Y271654D01*
X72835Y271654D01*
X68898Y275590D01*
X68898Y279528D01*
X72114Y282744D01*
X72444Y282523D01*
X72835Y282445D01*
X78740D01*
X79130Y282523D01*
X79461Y282744D01*
X101115D01*
X114119Y269740D01*
D02*
G37*
G36*
X66929Y285433D02*
Y277559D01*
X65555Y276185D01*
X65210Y276450D01*
X64126Y276899D01*
X62963Y277052D01*
X61800Y276899D01*
X60716Y276450D01*
X59786Y275736D01*
X59072Y274806D01*
X58623Y273722D01*
X58470Y272559D01*
X58623Y271396D01*
X59072Y270312D01*
X59337Y269967D01*
X55118Y265748D01*
Y218504D01*
X58545Y215077D01*
X58642Y214673D01*
X59268Y213162D01*
X60122Y211768D01*
X61184Y210524D01*
X62428Y209462D01*
X63822Y208608D01*
X65333Y207982D01*
X65737Y207885D01*
X82677Y190945D01*
X122047D01*
X149606Y163386D01*
X149606Y143701D01*
X147638Y141732D01*
X139764D01*
X135827Y145669D01*
X135827Y159449D01*
X120079Y175197D01*
X104331D01*
X102362Y177165D01*
X78740D01*
X45276Y210630D01*
Y273622D01*
X59055Y287402D01*
X64961D01*
X66929Y285433D01*
D02*
G37*
G36*
X118148Y260395D02*
X118444Y260159D01*
X118751Y259950D01*
X119070Y259769D01*
X119400Y259616D01*
X119742Y259490D01*
X120095Y259393D01*
X120460Y259323D01*
X120837Y259282D01*
X121225Y259268D01*
X121801Y257299D01*
X121427Y257279D01*
X121092Y257221D01*
X120797Y257122D01*
X120541Y256984D01*
X120325Y256807D01*
X120148Y256591D01*
X120010Y256335D01*
X119911Y256039D01*
X119852Y255705D01*
X119833Y255331D01*
X117864Y255907D01*
X117850Y256295D01*
X117808Y256672D01*
X117739Y257036D01*
X117641Y257390D01*
X117516Y257732D01*
X117363Y258062D01*
X117182Y258381D01*
X116973Y258688D01*
X116737Y258984D01*
X116472Y259268D01*
X117864Y260660D01*
X118148Y260395D01*
D02*
G37*
G36*
X137427Y254126D02*
X137611Y253974D01*
X137799Y253841D01*
X137990Y253726D01*
X138184Y253629D01*
X138383Y253550D01*
X138584Y253488D01*
X138790Y253445D01*
X138999Y253420D01*
X139212Y253414D01*
X136737Y250939D01*
X136730Y251151D01*
X136705Y251360D01*
X136662Y251566D01*
X136601Y251768D01*
X136522Y251966D01*
X136425Y252161D01*
X136309Y252352D01*
X136176Y252539D01*
X136024Y252723D01*
X135855Y252903D01*
X137247Y254295D01*
X137427Y254126D01*
D02*
G37*
G36*
X218450Y249469D02*
X218237Y249462D01*
X218028Y249437D01*
X217823Y249394D01*
X217621Y249333D01*
X217423Y249254D01*
X217228Y249156D01*
X217037Y249041D01*
X216849Y248908D01*
X216665Y248756D01*
X216485Y248587D01*
X215093Y249979D01*
X215263Y250159D01*
X215414Y250343D01*
X215547Y250531D01*
X215663Y250722D01*
X215760Y250916D01*
X215839Y251115D01*
X215900Y251316D01*
X215943Y251522D01*
X215968Y251731D01*
X215975Y251943D01*
X218450Y249469D01*
D02*
G37*
G36*
X141248Y249404D02*
X141154Y249217D01*
X141072Y249023D01*
X141000Y248822D01*
X140939Y248614D01*
X140889Y248398D01*
X140851Y248176D01*
X140806Y247708D01*
X140801Y247464D01*
X138832Y246947D01*
X138824Y247198D01*
X138797Y247433D01*
X138753Y247654D01*
X138691Y247859D01*
X138611Y248049D01*
X138514Y248224D01*
X138399Y248384D01*
X138267Y248528D01*
X138117Y248657D01*
X137949Y248771D01*
X141353Y249583D01*
X141248Y249404D01*
D02*
G37*
G36*
X104591Y259394D02*
X104591Y244094D01*
X96457D01*
X92520Y240158D01*
Y232283D01*
X86614Y226378D01*
X74552D01*
X73999Y226780D01*
X72542Y227522D01*
X70986Y228028D01*
X69371Y228284D01*
X68961D01*
X59055Y238189D01*
Y253937D01*
X61024Y255906D01*
X66929D01*
X68898Y253937D01*
Y242126D01*
X69689Y241334D01*
Y240841D01*
X70183D01*
X70866Y240158D01*
X78169D01*
X85217Y247206D01*
Y257737D01*
X89193Y261713D01*
X102273D01*
X104591Y259394D01*
D02*
G37*
G36*
X301181Y577869D02*
Y146548D01*
X255027Y100394D01*
X224410D01*
X220034Y104769D01*
Y130361D01*
X210191Y140204D01*
Y148078D01*
X213688Y151575D01*
X260932Y151575D01*
X285433Y176076D01*
Y423228D01*
X251969Y456693D01*
X232283D01*
X230315Y458661D01*
Y468504D01*
X234252Y472441D01*
X250000D01*
X285433Y507874D01*
X284995Y508313D01*
Y561605D01*
X284852D01*
X261811Y584646D01*
X187598D01*
Y603740D01*
X183071Y608268D01*
Y627953D01*
X188976Y633858D01*
X245192D01*
X301181Y577869D01*
D02*
G37*
G36*
X175884Y116084D02*
X175937Y115756D01*
X176026Y115425D01*
X176150Y115092D01*
X176309Y114757D01*
X176504Y114419D01*
X176734Y114080D01*
X177000Y113738D01*
X177301Y113394D01*
X177638Y113048D01*
X172126D01*
X172463Y113394D01*
X173029Y114080D01*
X173260Y114419D01*
X173455Y114757D01*
X173614Y115092D01*
X173738Y115425D01*
X173827Y115756D01*
X173880Y116084D01*
X173898Y116410D01*
X175866D01*
X175884Y116084D01*
D02*
G37*
%LPC*%
G36*
X180556Y644904D02*
X179286D01*
X178059Y644575D01*
X176959Y643940D01*
X176060Y643041D01*
X175425Y641941D01*
X175096Y640714D01*
Y639443D01*
X175425Y638216D01*
X176060Y637116D01*
X176959Y636218D01*
X178059Y635583D01*
X179286Y635254D01*
X180556D01*
X181784Y635583D01*
X182884Y636218D01*
X183782Y637116D01*
X184417Y638216D01*
X184746Y639443D01*
Y640714D01*
X184417Y641941D01*
X183782Y643041D01*
X182884Y643940D01*
X181784Y644575D01*
X180556Y644904D01*
D02*
G37*
G36*
X73185Y604557D02*
X72012D01*
X70879Y604253D01*
X69863Y603667D01*
X69034Y602838D01*
X68447Y601822D01*
X68144Y600689D01*
Y599516D01*
X68447Y598383D01*
X69034Y597367D01*
X69863Y596538D01*
X70879Y595951D01*
X72012Y595648D01*
X73185D01*
X74318Y595951D01*
X75334Y596538D01*
X76163Y597367D01*
X76750Y598383D01*
X77053Y599516D01*
Y600689D01*
X76750Y601822D01*
X76163Y602838D01*
X75334Y603667D01*
X74318Y604253D01*
X73185Y604557D01*
D02*
G37*
G36*
X62004Y599100D02*
X60831D01*
X59698Y598797D01*
X58682Y598210D01*
X57853Y597381D01*
X57266Y596365D01*
X56963Y595232D01*
Y594059D01*
X57266Y592926D01*
X57853Y591910D01*
X58682Y591081D01*
X59698Y590494D01*
X60831Y590191D01*
X62004D01*
X63137Y590494D01*
X64153Y591081D01*
X64982Y591910D01*
X65569Y592926D01*
X65872Y594059D01*
Y595232D01*
X65569Y596365D01*
X64982Y597381D01*
X64153Y598210D01*
X63137Y598797D01*
X62004Y599100D01*
D02*
G37*
G36*
X73185Y593652D02*
X72012D01*
X70879Y593348D01*
X69863Y592762D01*
X69034Y591932D01*
X68447Y590916D01*
X68144Y589783D01*
Y588610D01*
X68447Y587477D01*
X69034Y586462D01*
X69863Y585632D01*
X70879Y585046D01*
X72012Y584742D01*
X73185D01*
X74318Y585046D01*
X75334Y585632D01*
X76163Y586462D01*
X76750Y587477D01*
X77053Y588610D01*
Y589783D01*
X76750Y590916D01*
X76163Y591932D01*
X75334Y592762D01*
X74318Y593348D01*
X73185Y593652D01*
D02*
G37*
G36*
X62004Y588195D02*
X60831D01*
X59698Y587891D01*
X58682Y587305D01*
X57853Y586475D01*
X57266Y585460D01*
X56963Y584327D01*
Y583154D01*
X57266Y582021D01*
X57853Y581005D01*
X58682Y580175D01*
X59698Y579589D01*
X60831Y579285D01*
X62004D01*
X63137Y579589D01*
X64153Y580175D01*
X64982Y581005D01*
X65569Y582021D01*
X65872Y583154D01*
Y584327D01*
X65569Y585460D01*
X64982Y586475D01*
X64153Y587305D01*
X63137Y587891D01*
X62004Y588195D01*
D02*
G37*
G36*
X73185Y582742D02*
X72012D01*
X70879Y582439D01*
X69863Y581852D01*
X69034Y581023D01*
X68447Y580007D01*
X68144Y578874D01*
Y577701D01*
X68447Y576568D01*
X69034Y575552D01*
X69863Y574723D01*
X70879Y574136D01*
X72012Y573833D01*
X73185D01*
X74318Y574136D01*
X75334Y574723D01*
X76163Y575552D01*
X76750Y576568D01*
X77053Y577701D01*
Y578874D01*
X76750Y580007D01*
X76163Y581023D01*
X75334Y581852D01*
X74318Y582439D01*
X73185Y582742D01*
D02*
G37*
G36*
X62004Y577289D02*
X60831D01*
X59698Y576986D01*
X58682Y576399D01*
X57853Y575570D01*
X57266Y574554D01*
X56963Y573421D01*
Y572248D01*
X57266Y571115D01*
X57853Y570099D01*
X58682Y569270D01*
X59698Y568683D01*
X60831Y568380D01*
X62004D01*
X63137Y568683D01*
X64153Y569270D01*
X64982Y570099D01*
X65569Y571115D01*
X65872Y572248D01*
Y573421D01*
X65569Y574554D01*
X64982Y575570D01*
X64153Y576399D01*
X63137Y576986D01*
X62004Y577289D01*
D02*
G37*
G36*
X220641Y574038D02*
X219371D01*
X218144Y573709D01*
X217043Y573074D01*
X216145Y572175D01*
X215510Y571075D01*
X215181Y569848D01*
Y568577D01*
X215510Y567350D01*
X216145Y566250D01*
X217043Y565352D01*
X218144Y564716D01*
X219371Y564388D01*
X220641D01*
X221868Y564716D01*
X222969Y565352D01*
X223867Y566250D01*
X224502Y567350D01*
X224831Y568577D01*
Y569848D01*
X224502Y571075D01*
X223867Y572175D01*
X222969Y573074D01*
X221868Y573709D01*
X220641Y574038D01*
D02*
G37*
G36*
X180641D02*
X179371D01*
X178144Y573709D01*
X177043Y573074D01*
X176145Y572175D01*
X175510Y571075D01*
X175181Y569848D01*
Y568577D01*
X175510Y567350D01*
X176145Y566250D01*
X177043Y565352D01*
X178144Y564716D01*
X179371Y564388D01*
X180641D01*
X181868Y564716D01*
X182969Y565352D01*
X183867Y566250D01*
X184502Y567350D01*
X184831Y568577D01*
Y569848D01*
X184502Y571075D01*
X183867Y572175D01*
X182969Y573074D01*
X181868Y573709D01*
X180641Y574038D01*
D02*
G37*
G36*
X73185Y571837D02*
X72012D01*
X70879Y571533D01*
X69863Y570947D01*
X69034Y570117D01*
X68447Y569101D01*
X68144Y567968D01*
Y566795D01*
X68447Y565662D01*
X69034Y564647D01*
X69863Y563817D01*
X70879Y563231D01*
X72012Y562927D01*
X73185D01*
X74318Y563231D01*
X75334Y563817D01*
X76163Y564647D01*
X76750Y565662D01*
X77053Y566795D01*
Y567968D01*
X76750Y569101D01*
X76163Y570117D01*
X75334Y570947D01*
X74318Y571533D01*
X73185Y571837D01*
D02*
G37*
G36*
X220641Y534038D02*
X219371D01*
X218144Y533709D01*
X217043Y533074D01*
X216145Y532175D01*
X215510Y531075D01*
X215181Y529848D01*
Y528577D01*
X215510Y527350D01*
X216145Y526250D01*
X217043Y525352D01*
X218144Y524716D01*
X219371Y524388D01*
X220641D01*
X221868Y524716D01*
X222969Y525352D01*
X223867Y526250D01*
X224502Y527350D01*
X224831Y528577D01*
Y529848D01*
X224502Y531075D01*
X223867Y532175D01*
X222969Y533074D01*
X221868Y533709D01*
X220641Y534038D01*
D02*
G37*
G36*
X180641D02*
X179371D01*
X178144Y533709D01*
X177043Y533074D01*
X176145Y532175D01*
X175510Y531075D01*
X175181Y529848D01*
Y528577D01*
X175510Y527350D01*
X176145Y526250D01*
X177043Y525352D01*
X178144Y524716D01*
X179371Y524388D01*
X180641D01*
X181868Y524716D01*
X182969Y525352D01*
X183867Y526250D01*
X184502Y527350D01*
X184831Y528577D01*
Y529848D01*
X184502Y531075D01*
X183867Y532175D01*
X182969Y533074D01*
X181868Y533709D01*
X180641Y534038D01*
D02*
G37*
G36*
X62004Y413313D02*
X60831D01*
X59698Y413009D01*
X58682Y412423D01*
X57853Y411593D01*
X57266Y410578D01*
X56963Y409445D01*
Y408272D01*
X57266Y407139D01*
X57617Y406531D01*
X57291Y405323D01*
X56705Y404487D01*
X56696Y404485D01*
X56366Y404264D01*
X54397Y402296D01*
X54176Y401965D01*
X54098Y401575D01*
Y383858D01*
X54176Y383468D01*
X54397Y383137D01*
X63227Y374308D01*
X63360Y374219D01*
X63485Y374120D01*
X63524Y374109D01*
X63558Y374087D01*
X63714Y374056D01*
X63868Y374012D01*
X63908Y374017D01*
X63948Y374009D01*
X64104Y374040D01*
X64263Y374059D01*
X64814Y374238D01*
X66271Y374469D01*
X67745D01*
X69202Y374238D01*
X70605Y373782D01*
X71929Y373107D01*
X71968Y373096D01*
X72002Y373074D01*
X72158Y373043D01*
X72312Y372999D01*
X72352Y373004D01*
X72392Y372996D01*
X84646D01*
X85036Y373074D01*
X85367Y373295D01*
X91272Y379200D01*
X91493Y379531D01*
X91571Y379921D01*
Y387373D01*
X94911Y390713D01*
X103804D01*
X104331Y390713D01*
X104331Y390713D01*
X104721Y390790D01*
X105052Y391011D01*
X105273Y391342D01*
X105350Y391732D01*
X105350Y391732D01*
X105350Y392259D01*
X105350Y407480D01*
X105273Y407870D01*
X105052Y408201D01*
X103083Y410170D01*
X102752Y410391D01*
X102362Y410468D01*
X88583D01*
X88192Y410391D01*
X87862Y410170D01*
X81956Y404264D01*
X81735Y403933D01*
X81658Y403543D01*
Y392155D01*
X79022Y389519D01*
X77053Y390334D01*
Y396955D01*
X69917D01*
X68144Y396955D01*
X67949Y398842D01*
Y398971D01*
X69863Y399841D01*
X70879Y399254D01*
X72012Y398951D01*
X73185D01*
X74318Y399254D01*
X75334Y399841D01*
X76163Y400670D01*
X76750Y401686D01*
X77053Y402819D01*
Y403992D01*
X76750Y405125D01*
X76163Y406141D01*
X75334Y406970D01*
X74318Y407557D01*
X73185Y407860D01*
X72012D01*
X70879Y407557D01*
X69863Y406970D01*
X69034Y406141D01*
X68447Y405125D01*
X66428Y404516D01*
X65897Y404720D01*
X65292Y406659D01*
X65569Y407139D01*
X65872Y408272D01*
Y409445D01*
X65569Y410578D01*
X64982Y411593D01*
X64153Y412423D01*
X63137Y413009D01*
X62004Y413313D01*
D02*
G37*
G36*
X257822Y342668D02*
X257977Y342358D01*
X257957Y342466D01*
X257822Y342668D01*
D02*
G37*
G36*
X73191Y129990D02*
X72018D01*
X70885Y129687D01*
X69870Y129100D01*
X69040Y128271D01*
X68454Y127255D01*
X68150Y126122D01*
Y124949D01*
X68454Y123816D01*
X69040Y122800D01*
X69870Y121971D01*
X70885Y121384D01*
X72018Y121081D01*
X73191D01*
X74324Y121384D01*
X75340Y121971D01*
X76169Y122800D01*
X76756Y123816D01*
X77060Y124949D01*
Y126122D01*
X76756Y127255D01*
X76169Y128271D01*
X75340Y129100D01*
X74324Y129687D01*
X73191Y129990D01*
D02*
G37*
G36*
X62010Y124533D02*
X60837D01*
X59704Y124230D01*
X58688Y123643D01*
X57859Y122814D01*
X57272Y121798D01*
X56969Y120665D01*
Y119492D01*
X57272Y118359D01*
X57859Y117343D01*
X58688Y116514D01*
X59704Y115928D01*
X60837Y115624D01*
X62010D01*
X63143Y115928D01*
X64159Y116514D01*
X64988Y117343D01*
X65575Y118359D01*
X65878Y119492D01*
Y120665D01*
X65575Y121798D01*
X64988Y122814D01*
X64159Y123643D01*
X63143Y124230D01*
X62010Y124533D01*
D02*
G37*
G36*
X73191Y119085D02*
X72018D01*
X70885Y118781D01*
X69870Y118195D01*
X69040Y117365D01*
X68454Y116349D01*
X68150Y115216D01*
Y114043D01*
X68454Y112910D01*
X69040Y111895D01*
X69870Y111065D01*
X70885Y110479D01*
X72018Y110175D01*
X73191D01*
X74324Y110479D01*
X75340Y111065D01*
X76169Y111895D01*
X76756Y112910D01*
X77060Y114043D01*
Y115216D01*
X76756Y116349D01*
X76169Y117365D01*
X75340Y118195D01*
X74324Y118781D01*
X73191Y119085D01*
D02*
G37*
G36*
X62010Y113628D02*
X60837D01*
X59704Y113324D01*
X58688Y112738D01*
X57859Y111908D01*
X57272Y110893D01*
X56969Y109760D01*
Y108587D01*
X57272Y107454D01*
X57859Y106438D01*
X58688Y105609D01*
X59704Y105022D01*
X60837Y104718D01*
X62010D01*
X63143Y105022D01*
X64159Y105609D01*
X64988Y106438D01*
X65575Y107454D01*
X65878Y108587D01*
Y109760D01*
X65575Y110893D01*
X64988Y111908D01*
X64159Y112738D01*
X63143Y113324D01*
X62010Y113628D01*
D02*
G37*
G36*
X73191Y108175D02*
X72018D01*
X70885Y107872D01*
X69870Y107285D01*
X69040Y106456D01*
X68454Y105440D01*
X68150Y104307D01*
Y103134D01*
X68454Y102001D01*
X69040Y100985D01*
X69870Y100156D01*
X70885Y99569D01*
X72018Y99266D01*
X73191D01*
X74324Y99569D01*
X75340Y100156D01*
X76169Y100985D01*
X76756Y102001D01*
X77060Y103134D01*
Y104307D01*
X76756Y105440D01*
X76169Y106456D01*
X75340Y107285D01*
X74324Y107872D01*
X73191Y108175D01*
D02*
G37*
G36*
X62010Y102722D02*
X60837D01*
X59704Y102419D01*
X58688Y101832D01*
X57859Y101003D01*
X57272Y99987D01*
X56969Y98854D01*
Y97681D01*
X57272Y96548D01*
X57859Y95533D01*
X58688Y94703D01*
X59704Y94117D01*
X60837Y93813D01*
X62010D01*
X63143Y94117D01*
X64159Y94703D01*
X64988Y95533D01*
X65575Y96548D01*
X65878Y97681D01*
Y98854D01*
X65575Y99987D01*
X64988Y101003D01*
X64159Y101832D01*
X63143Y102419D01*
X62010Y102722D01*
D02*
G37*
G36*
X73191Y97270D02*
X72018D01*
X70885Y96966D01*
X69870Y96380D01*
X69040Y95550D01*
X68454Y94534D01*
X68150Y93401D01*
Y92229D01*
X68454Y91096D01*
X69040Y90080D01*
X69870Y89250D01*
X70885Y88664D01*
X72018Y88360D01*
X73191D01*
X74324Y88664D01*
X75340Y89250D01*
X76169Y90080D01*
X76756Y91096D01*
X77060Y92229D01*
Y93401D01*
X76756Y94534D01*
X76169Y95550D01*
X75340Y96380D01*
X74324Y96966D01*
X73191Y97270D01*
D02*
G37*
G36*
X62010Y91817D02*
X60837D01*
X59704Y91513D01*
X58688Y90927D01*
X57859Y90097D01*
X57272Y89082D01*
X56969Y87949D01*
Y86776D01*
X57272Y85643D01*
X57859Y84627D01*
X58688Y83798D01*
X59704Y83211D01*
X60837Y82907D01*
X62010D01*
X63143Y83211D01*
X64159Y83798D01*
X64988Y84627D01*
X65575Y85643D01*
X65878Y86776D01*
Y87949D01*
X65575Y89082D01*
X64988Y90097D01*
X64159Y90927D01*
X63143Y91513D01*
X62010Y91817D01*
D02*
G37*
G36*
X77060Y86364D02*
X68150D01*
Y77455D01*
X77060D01*
Y86364D01*
D02*
G37*
%LPD*%
G36*
X104331Y407480D02*
X104331Y391732D01*
X94488D01*
X90551Y387795D01*
Y379921D01*
X84646Y374016D01*
X72392D01*
X70996Y374727D01*
X69441Y375232D01*
X67826Y375488D01*
X66190D01*
X64575Y375232D01*
X63948Y375029D01*
X55118Y383858D01*
Y401575D01*
X57087Y403543D01*
X64961D01*
X66929Y401575D01*
Y387795D01*
X68898Y385827D01*
X76772D01*
X82677Y391732D01*
Y403543D01*
X88583Y409449D01*
X102362D01*
X104331Y407480D01*
D02*
G37*
%LPC*%
G36*
X227795Y308159D02*
X226783Y308026D01*
X225840Y307635D01*
X225029Y307014D01*
X224408Y306204D01*
X224017Y305260D01*
X223884Y304248D01*
X224017Y303236D01*
X224408Y302292D01*
X225029Y301482D01*
X225840Y300861D01*
X226783Y300470D01*
X227795Y300337D01*
X228808Y300470D01*
X229751Y300861D01*
X230561Y301482D01*
X231183Y302292D01*
X231573Y303236D01*
X231707Y304248D01*
X231573Y305260D01*
X231183Y306204D01*
X230561Y307014D01*
X229751Y307635D01*
X228808Y308026D01*
X227795Y308159D01*
D02*
G37*
G36*
Y299144D02*
X226783Y299010D01*
X225840Y298620D01*
X225029Y297998D01*
X224408Y297188D01*
X224017Y296245D01*
X223884Y295232D01*
X224017Y294220D01*
X224408Y293277D01*
X225029Y292466D01*
X225840Y291845D01*
X226783Y291454D01*
X227795Y291321D01*
X228808Y291454D01*
X229751Y291845D01*
X230561Y292466D01*
X231183Y293277D01*
X231573Y294220D01*
X231707Y295232D01*
X231573Y296245D01*
X231183Y297188D01*
X230561Y297998D01*
X229751Y298620D01*
X228808Y299010D01*
X227795Y299144D01*
D02*
G37*
G36*
X208661Y314554D02*
X207748Y314434D01*
X206896Y314081D01*
X206165Y313520D01*
X205604Y312789D01*
X205252Y311937D01*
X205131Y311024D01*
X205252Y310110D01*
X205604Y309259D01*
X206165Y308527D01*
X206896Y307966D01*
X207748Y307614D01*
X208661Y307493D01*
X208729Y307502D01*
X208822Y307499D01*
X208943Y307485D01*
X209061Y307460D01*
X209178Y307425D01*
X209296Y307378D01*
X209417Y307317D01*
X209540Y307243D01*
X209667Y307153D01*
X209692Y307132D01*
X212544Y304280D01*
Y288371D01*
X212698Y287597D01*
X213136Y286941D01*
X236137Y263940D01*
Y251512D01*
X236134Y251479D01*
X236108Y251326D01*
X236073Y251186D01*
X236031Y251059D01*
X235980Y250942D01*
X235923Y250834D01*
X235857Y250733D01*
X235781Y250637D01*
X235717Y250569D01*
X235664Y250528D01*
X235103Y249797D01*
X234750Y248945D01*
X234630Y248031D01*
X234639Y247964D01*
X234635Y247871D01*
X234621Y247750D01*
X234596Y247632D01*
X234561Y247515D01*
X234514Y247397D01*
X234454Y247276D01*
X234379Y247153D01*
X234289Y247026D01*
X234268Y247001D01*
X225511Y238244D01*
X140602D01*
X129876Y248970D01*
X129855Y248995D01*
X129765Y249122D01*
X129691Y249245D01*
X129630Y249365D01*
X129583Y249483D01*
X129548Y249600D01*
X129523Y249719D01*
X129509Y249839D01*
X129506Y249933D01*
X129515Y250000D01*
X129394Y250914D01*
X129042Y251765D01*
X128481Y252496D01*
X127749Y253057D01*
X126898Y253410D01*
X125984Y253530D01*
X125071Y253410D01*
X124219Y253057D01*
X123488Y252496D01*
X122927Y251765D01*
X122574Y250914D01*
X122454Y250000D01*
X122574Y249086D01*
X122927Y248235D01*
X123488Y247504D01*
X124219Y246943D01*
X125071Y246590D01*
X125984Y246470D01*
X126051Y246479D01*
X126145Y246476D01*
X126266Y246461D01*
X126384Y246437D01*
X126501Y246401D01*
X126619Y246354D01*
X126739Y246294D01*
X126863Y246219D01*
X126990Y246129D01*
X127015Y246109D01*
X138333Y234790D01*
X138990Y234351D01*
X139764Y234197D01*
X226349D01*
X227123Y234351D01*
X227779Y234790D01*
X235675Y242685D01*
X236137Y242494D01*
Y231124D01*
X223571Y218559D01*
X206693D01*
X205919Y218405D01*
X205262Y217966D01*
X193451Y206155D01*
X193013Y205499D01*
X192859Y204724D01*
Y116156D01*
X192829Y115970D01*
X192766Y115735D01*
X192674Y115490D01*
X192552Y115232D01*
X192395Y114961D01*
X192213Y114692D01*
X191703Y114075D01*
X191491Y113857D01*
X191361Y113757D01*
X190569Y112726D01*
X190072Y111525D01*
X189902Y110236D01*
X190072Y108947D01*
X190569Y107746D01*
X191361Y106715D01*
X192392Y105924D01*
X193593Y105426D01*
X194882Y105257D01*
X196171Y105426D01*
X197372Y105924D01*
X198403Y106715D01*
X199194Y107746D01*
X199692Y108947D01*
X199862Y110236D01*
X199692Y111525D01*
X199194Y112726D01*
X198403Y113757D01*
X198273Y113857D01*
X198051Y114086D01*
X197787Y114387D01*
X197559Y114680D01*
X197369Y114961D01*
X197212Y115232D01*
X197090Y115490D01*
X196998Y115735D01*
X196935Y115970D01*
X196905Y116156D01*
Y203886D01*
X207531Y214512D01*
X224410D01*
X225184Y214666D01*
X225840Y215105D01*
X239590Y228855D01*
X240029Y229512D01*
X240183Y230286D01*
Y244551D01*
X240186Y244584D01*
X240212Y244737D01*
X240247Y244877D01*
X240289Y245004D01*
X240339Y245121D01*
X240397Y245229D01*
X240463Y245330D01*
X240538Y245426D01*
X240602Y245494D01*
X240656Y245535D01*
X241217Y246266D01*
X241570Y247118D01*
X241690Y248031D01*
X241570Y248945D01*
X241217Y249797D01*
X240656Y250528D01*
X240602Y250569D01*
X240538Y250637D01*
X240463Y250733D01*
X240397Y250834D01*
X240339Y250942D01*
X240289Y251059D01*
X240247Y251186D01*
X240212Y251326D01*
X240186Y251479D01*
X240183Y251512D01*
Y264778D01*
X240029Y265553D01*
X239590Y266209D01*
X216590Y289209D01*
Y305118D01*
X216436Y305892D01*
X215998Y306549D01*
X212553Y309993D01*
X212532Y310018D01*
X212442Y310145D01*
X212368Y310268D01*
X212308Y310389D01*
X212260Y310507D01*
X212225Y310624D01*
X212200Y310742D01*
X212186Y310863D01*
X212183Y310957D01*
X212192Y311024D01*
X212071Y311937D01*
X211719Y312789D01*
X211158Y313520D01*
X210426Y314081D01*
X209575Y314434D01*
X208661Y314554D01*
D02*
G37*
%LPD*%
G36*
X211168Y310786D02*
X211193Y310577D01*
X211236Y310371D01*
X211297Y310170D01*
X211376Y309971D01*
X211474Y309777D01*
X211589Y309586D01*
X211722Y309398D01*
X211874Y309214D01*
X212043Y309034D01*
X210651Y307642D01*
X210471Y307811D01*
X210287Y307963D01*
X210099Y308096D01*
X209908Y308211D01*
X209714Y308309D01*
X209515Y308388D01*
X209314Y308449D01*
X209108Y308492D01*
X208899Y308517D01*
X208686Y308524D01*
X211161Y310999D01*
X211168Y310786D01*
D02*
G37*
G36*
X239152Y251582D02*
X239175Y251345D01*
X239213Y251118D01*
X239267Y250902D01*
X239335Y250695D01*
X239420Y250499D01*
X239519Y250313D01*
X239634Y250137D01*
X239764Y249972D01*
X239910Y249817D01*
X236410D01*
X236555Y249972D01*
X236685Y250137D01*
X236800Y250313D01*
X236900Y250499D01*
X236984Y250695D01*
X237053Y250902D01*
X237107Y251118D01*
X237145Y251345D01*
X237168Y251582D01*
X237176Y251830D01*
X239144D01*
X239152Y251582D01*
D02*
G37*
G36*
X128491Y249762D02*
X128516Y249553D01*
X128559Y249348D01*
X128620Y249146D01*
X128699Y248948D01*
X128796Y248753D01*
X128912Y248562D01*
X129045Y248375D01*
X129196Y248191D01*
X129366Y248010D01*
X127974Y246618D01*
X127794Y246788D01*
X127610Y246939D01*
X127422Y247073D01*
X127231Y247188D01*
X127036Y247285D01*
X126838Y247364D01*
X126636Y247425D01*
X126431Y247468D01*
X126222Y247493D01*
X126009Y247500D01*
X128484Y249975D01*
X128491Y249762D01*
D02*
G37*
G36*
X237420Y246246D02*
X239910D01*
X239764Y246091D01*
X239634Y245925D01*
X239519Y245750D01*
X239420Y245564D01*
X239335Y245368D01*
X239267Y245161D01*
X239213Y244945D01*
X239175Y244718D01*
X239152Y244481D01*
X239144Y244233D01*
X237176D01*
X237168Y244481D01*
X237145Y244718D01*
X237107Y244945D01*
X237053Y245161D01*
X237016Y245271D01*
X236913Y245219D01*
X236722Y245104D01*
X236534Y244971D01*
X236350Y244819D01*
X236170Y244650D01*
X234778Y246042D01*
X234948Y246222D01*
X235099Y246406D01*
X235232Y246593D01*
X235348Y246784D01*
X235445Y246979D01*
X235524Y247178D01*
X235585Y247379D01*
X235628Y247585D01*
X235653Y247794D01*
X235660Y248007D01*
X237420Y246246D01*
D02*
G37*
G36*
X195884Y116084D02*
X195937Y115756D01*
X196026Y115425D01*
X196150Y115092D01*
X196309Y114757D01*
X196504Y114419D01*
X196734Y114080D01*
X197000Y113738D01*
X197301Y113394D01*
X197638Y113048D01*
X192126D01*
X192463Y113394D01*
X193029Y114080D01*
X193260Y114419D01*
X193455Y114757D01*
X193614Y115092D01*
X193738Y115425D01*
X193827Y115756D01*
X193880Y116084D01*
X193898Y116410D01*
X195866D01*
X195884Y116084D01*
D02*
G37*
%LPC*%
G36*
X220556Y604904D02*
X219286D01*
X218059Y604575D01*
X216959Y603940D01*
X216060Y603041D01*
X215425Y601941D01*
X215096Y600714D01*
Y599443D01*
X215425Y598216D01*
X216060Y597116D01*
X216959Y596218D01*
X218059Y595583D01*
X219286Y595254D01*
X220556D01*
X221784Y595583D01*
X222884Y596218D01*
X223782Y597116D01*
X224417Y598216D01*
X224746Y599443D01*
Y600714D01*
X224417Y601941D01*
X223782Y603041D01*
X222884Y603940D01*
X221784Y604575D01*
X220556Y604904D01*
D02*
G37*
%LPD*%
D10*
X194882Y344488D02*
X220093Y369699D01*
Y383508D01*
X208661Y311024D02*
X214567Y305118D01*
Y288371D02*
X238160Y264778D01*
X214567Y288371D02*
Y305118D01*
X238160Y248031D02*
Y264778D01*
X116142Y260990D02*
Y309055D01*
Y260990D02*
X118848Y258283D01*
X112205Y350394D02*
X116142Y346457D01*
X112205Y350394D02*
Y395669D01*
X118848Y227608D02*
Y258283D01*
X131867D01*
X139237Y250914D01*
X139817Y246010D02*
X141732Y244094D01*
X139817Y246010D02*
Y250334D01*
X139237Y250914D02*
X139817Y250334D01*
X141732Y244094D02*
X210601D01*
X118848Y227608D02*
X135827Y210630D01*
X139764Y236221D02*
X226349D01*
X125984Y250000D02*
X139764Y236221D01*
X220093Y383508D02*
X228317Y391732D01*
X112205Y395669D02*
X118081Y401546D01*
X194882Y204724D02*
X206693Y216535D01*
X135827Y210630D02*
X169291D01*
X174882Y205039D01*
X206693Y216535D02*
X224410D01*
X238160Y230286D01*
X210601Y244094D02*
X218475Y251969D01*
X226349Y236221D02*
X238160Y248031D01*
Y230286D02*
Y248031D01*
X147609Y387795D02*
X204695D01*
X212569Y395669D01*
X139735D02*
X147609Y387795D01*
X123987Y395669D02*
X135798Y383858D01*
X133858Y401546D02*
X139735Y395669D01*
X135798Y383858D02*
X219743D01*
X118081Y401546D02*
X133858D01*
X194882Y110236D02*
Y204724D01*
X174882Y110236D02*
Y205039D01*
D25*
X263779Y297244D02*
D03*
Y347244D02*
D03*
D26*
X250276Y290232D02*
D03*
Y354252D02*
D03*
D27*
X227795Y295232D02*
D03*
Y304248D02*
D03*
Y340232D02*
D03*
Y349252D02*
D03*
X246772Y308256D02*
D03*
X253780Y312252D02*
D03*
X246772Y316248D02*
D03*
X253780Y320244D02*
D03*
X246772Y324240D02*
D03*
X253780Y328236D02*
D03*
X246772Y332232D02*
D03*
D28*
X253780Y336228D02*
D03*
D29*
X166220Y504567D02*
D03*
Y464567D02*
D03*
X236221Y504567D02*
D03*
Y464567D02*
D03*
X176221D02*
D03*
X145512Y185669D02*
D03*
Y145669D02*
D03*
X215512Y185669D02*
D03*
Y145669D02*
D03*
X155512D02*
D03*
X174882Y110236D02*
D03*
X224882D02*
D03*
X214882D02*
D03*
X194882D02*
D03*
X184882D02*
D03*
D30*
X68554Y217894D02*
D03*
Y316323D02*
D03*
X67014Y54508D02*
D03*
Y152937D02*
D03*
X67008Y365098D02*
D03*
Y463528D02*
D03*
Y627504D02*
D03*
Y529075D02*
D03*
D31*
X62963Y283465D02*
D03*
Y272559D02*
D03*
Y261653D02*
D03*
Y250748D02*
D03*
X74144Y288921D02*
D03*
Y278016D02*
D03*
Y267106D02*
D03*
Y256201D02*
D03*
X61424Y120079D02*
D03*
Y109173D02*
D03*
Y98268D02*
D03*
Y87362D02*
D03*
X72605Y125535D02*
D03*
Y114630D02*
D03*
Y103720D02*
D03*
Y92815D02*
D03*
X61417Y430669D02*
D03*
Y419764D02*
D03*
Y408858D02*
D03*
Y397953D02*
D03*
X72598Y436126D02*
D03*
Y425220D02*
D03*
Y414311D02*
D03*
Y403406D02*
D03*
Y567382D02*
D03*
Y578287D02*
D03*
Y589197D02*
D03*
Y600102D02*
D03*
X61417Y561929D02*
D03*
Y572835D02*
D03*
Y583740D02*
D03*
Y594646D02*
D03*
D32*
X74144Y245295D02*
D03*
X72605Y81910D02*
D03*
X72598Y392500D02*
D03*
Y556476D02*
D03*
D33*
X49213Y21654D02*
D03*
X47244Y681102D02*
D03*
X283465Y21654D02*
D03*
X281496Y681102D02*
D03*
D34*
X194967Y549213D02*
D03*
X194882Y620079D02*
D03*
D35*
X220006Y529213D02*
D03*
X180006D02*
D03*
Y569213D02*
D03*
X220006D02*
D03*
X219921Y600079D02*
D03*
X179921D02*
D03*
Y640079D02*
D03*
X219921D02*
D03*
D36*
X206693Y598425D02*
D03*
X192913D02*
D03*
X222441Y624016D02*
D03*
X118110Y208661D02*
D03*
X102362Y273622D02*
D03*
X226378Y366142D02*
D03*
X194882Y344488D02*
D03*
X208661Y311024D02*
D03*
Y344488D02*
D03*
X214567Y338270D02*
D03*
X190945Y442913D02*
D03*
X196850Y480315D02*
D03*
X112205Y435039D02*
D03*
X185039Y161417D02*
D03*
X116142Y309055D02*
D03*
Y346457D02*
D03*
X139237Y250914D02*
D03*
X125984Y250000D02*
D03*
X92520Y401575D02*
D03*
X100394Y403543D02*
D03*
X92520Y437008D02*
D03*
X90551Y462598D02*
D03*
X64961Y444882D02*
D03*
X220443Y399606D02*
D03*
X212569Y395669D02*
D03*
X216535Y417323D02*
D03*
X159449Y446850D02*
D03*
X114173Y448819D02*
D03*
X118110Y462598D02*
D03*
X143701D02*
D03*
X173228Y482283D02*
D03*
X123987Y395669D02*
D03*
X141732Y419291D02*
D03*
X157451Y395669D02*
D03*
X139735D02*
D03*
X185039Y76772D02*
D03*
X116142Y183071D02*
D03*
X112205Y149606D02*
D03*
X125984D02*
D03*
X68898Y173228D02*
D03*
X218475Y251969D02*
D03*
X90240Y253587D02*
D03*
X163386Y251969D02*
D03*
X226349Y255906D02*
D03*
X98114Y257524D02*
D03*
X155512Y314961D02*
D03*
X129921Y285433D02*
D03*
X237268Y305059D02*
D03*
X53150Y293307D02*
D03*
X238160Y248031D02*
D03*
X185039Y210630D02*
D03*
X242126Y216535D02*
D03*
X51181Y269685D02*
D03*
X33465Y230315D02*
D03*
X41339Y196850D02*
D03*
X228317Y391732D02*
D03*
X242097Y368110D02*
D03*
X49213Y230315D02*
D03*
X251969Y385827D02*
D03*
X242097Y374110D02*
D03*
X35433Y275590D02*
D03*
X62992Y200787D02*
D03*
X127953Y364173D02*
D03*
X153543Y350394D02*
D03*
D37*
X207115Y335177D02*
X210286Y338348D01*
X213149D02*
X213897Y337600D01*
X63496Y337677D02*
X206080D01*
X208583Y340180D02*
Y344410D01*
X210286Y338348D02*
X213149D01*
X206080Y337677D02*
X208583Y340180D01*
Y344410D02*
X208661Y344488D01*
X62461Y335177D02*
X207115D01*
X213897Y337600D02*
X214567Y338270D01*
X215556Y344488D02*
X235804Y324240D01*
X208661Y344488D02*
X215556D01*
X60996Y336642D02*
X62461Y335177D01*
X60996Y336642D02*
Y336642D01*
X235804Y324240D02*
X246772D01*
X245126Y303091D02*
X254985D01*
X237268Y305059D02*
X243158D01*
X245126Y303091D01*
X233691Y370017D02*
X236034Y372360D01*
X237070Y369860D02*
X239468D01*
X236191Y368982D02*
X237070Y369860D01*
X239468D02*
X241218Y368110D01*
X242097D01*
X241218Y374110D02*
X242097D01*
X246789Y333058D02*
X247111Y332736D01*
X249869Y337121D02*
X253729D01*
X233691Y349764D02*
X246789Y336666D01*
X233691Y349764D02*
Y370017D01*
X253729Y337121D02*
X254118Y336732D01*
X246789Y333058D02*
Y336666D01*
X236191Y350799D02*
Y368982D01*
Y350799D02*
X249869Y337121D01*
X236034Y372360D02*
X239468D01*
X241218Y374110D01*
X63410Y557103D02*
Y558473D01*
X61417Y560465D02*
X63410Y558473D01*
X61417Y560465D02*
Y561929D01*
X65481Y555638D02*
X71760D01*
X72598Y556476D01*
X41870Y359303D02*
Y532027D01*
Y359303D02*
X41870D01*
X40835Y356803D02*
X60996Y336642D01*
X40835Y356803D02*
X40835D01*
X41870Y359303D02*
X63496Y337677D01*
X41870Y532027D02*
X65481Y555638D01*
X39370Y358268D02*
Y533063D01*
Y358268D02*
X40835Y356803D01*
X39370Y533063D02*
X63410Y557103D01*
X258922Y307028D02*
Y315945D01*
X254118Y320748D02*
X258922Y315945D01*
X254985Y303091D02*
X258922Y307028D01*
M02*
