M48
;Layer_Color=9474304
;FILE_FORMAT=2:4
INCH,TZ
;TYPE=PLATED
T01F00S00C0.0280
T02F00S00C0.0370
T03F00S00C0.0394
T04F00S00C0.0461
T05F00S00C0.0531
T07F00S00C0.0638
T08F00S00C0.0886
T09F00S00C0.1252
T10F00S00C0.2165
;TYPE=NON_PLATED
T11F00S00C0.1299
%
T01
X11220Y14961
X12598
X18504Y7677
X18504Y16142
Y21063
X16339Y25197
X21847
X22635Y25591
X23816Y24803
X24213Y21654
X23727Y30506
X20866Y31102
X11614Y30906
X12992Y28543
X12598Y25000
X13924Y25091
X9811Y25752
X9024Y25359
X10236Y27362
X5118Y26969
X3543Y27559
X5315Y29331
X4921Y23031
X3346
X4134Y19685
X6299Y20079
X6890Y17323
X11614Y18307
X11811Y20866
X11614Y34646
X12795Y36417
X12399Y39567
X13973Y39567
X14173Y41929
X11220Y43504
X11417Y44882
X11811Y46260
X14370
X9055
X9252Y43701
Y40157
X10039Y40354
X6496Y44488
X15354Y35039
X15551Y31496
X19488Y34449
X20866
X21457Y33827
X22638Y36614
X24210Y36811
Y37411
X25197Y38583
X22832Y39173
X22044Y39961
X21257Y39567
X21654Y41732
X19094Y44291
X15945Y44685
X15745Y39567
X17323Y48228
X19685Y48032
X19291Y59843
X20669
X22244Y62402
T02
X22780Y29523
Y30425
X24677Y30826
X25378Y31225
Y32024
Y32824
Y33623
X24677Y33223
Y32424
Y31625
X22780Y34023
Y34925
T03
X14551Y14567
X15551
X17488Y11024
X18488
X19488
X21488
X22488
X21551Y14567
Y18567
X14551
X16622Y46457
X17622
X23622
Y50457
X16622
T04
X6142Y8736
Y9827
Y10917
Y12008
X7260Y11463
Y12554
Y10372
Y9281
Y8191
X7414Y24530
Y25620
Y26711
Y27802
Y28892
X6296Y28346
Y27256
Y26165
Y25075
X6142Y39795
Y40886
Y41976
Y43067
X7260Y42522
Y43613
Y41431
Y40341
Y39250
Y55648
Y56738
Y57829
Y58920
Y60010
X6142Y59465
Y58374
Y57283
Y56193
T05
X18001Y52921
X22001
Y56921
X21992Y60008
X17992
X18001Y56921
X17992Y64008
X21992
T07
X25028Y29023
Y35425
T08
X19497Y54921
X19488Y62008
T09
X6701Y5451
Y15294
X6855Y21789
Y31632
X6701Y36510
Y46353
Y52907
Y62750
T10
X4921Y2165
X28346
X4724Y68110
X28150Y68110
T11
X26378Y29724
Y34724
M30
